Blinker-Light.ufo
<glyph name="exclam" format="1">
  <advance width="205"/>
  <unicode hex="0021"/>
  <outline>
    <contour>
      <point x="82" y="627" type="line"/>
      <point x="123" y="627" type="line"/>
      <point x="118" y="152" type="line"/>
      <point x="87" y="152" type="line"/>
    </contour>
    <contour>
      <point x="123" y="45" type="line"/>
      <point x="123" y="0" type="line"/>
      <point x="83" y="0" type="line"/>
      <point x="83" y="45" type="line"/>
    </contour>
  </outline>
</glyph>
<glyph name="quotedbl" format="1">
  <advance width="310"/>
  <unicode hex="0022"/>
  <outline>
    <contour>
      <point x="68" y="627" type="line"/>
      <point x="99" y="627" type="line"/>
      <point x="99" y="399" type="line"/>
      <point x="68" y="399" type="line"/>
    </contour>
    <contour>
      <point x="211" y="627" type="line"/>
      <point x="241" y="627" type="line"/>
      <point x="241" y="399" type="line"/>
      <point x="211" y="399" type="line"/>
    </contour>
  </outline>
</glyph>
<glyph name="numbersign" format="1">
  <advance width="593"/>
  <unicode hex="0023"/>
  <outline>
    <contour>
      <point x="556" y="493" type="line"/>
      <point x="556" y="463" type="line"/>
      <point x="464" y="463" type="line"/>
      <point x="417" y="174" type="line"/>
      <point x="521" y="174" type="line"/>
      <point x="521" y="144" type="line"/>
      <point x="411" y="144" type="line"/>
      <point x="387" y="0" type="line"/>
      <point x="356" y="0" type="line"/>
      <point x="379" y="144" type="line"/>
      <point x="160" y="144" type="line"/>
      <point x="137" y="0" type="line"/>
      <point x="105" y="0" type="line"/>
      <point x="129" y="144" type="line"/>
      <point x="37" y="144" type="line"/>
      <point x="37" y="174" type="line"/>
      <point x="134" y="174" type="line"/>
      <point x="182" y="463" type="line"/>
      <point x="72" y="463" type="line"/>
      <point x="72" y="493" type="line"/>
      <point x="188" y="493" type="line"/>
      <point x="209" y="627" type="line"/>
      <point x="240" y="627" type="line"/>
      <point x="219" y="493" type="line"/>
      <point x="437" y="493" type="line"/>
      <point x="459" y="627" type="line"/>
      <point x="490" y="627" type="line"/>
      <point x="469" y="493" type="line"/>
    </contour>
    <contour>
      <point x="385" y="174" type="line"/>
      <point x="433" y="463" type="line"/>
      <point x="214" y="463" type="line"/>
      <point x="165" y="174" type="line"/>
    </contour>
  </outline>
</glyph>
<glyph name="dollar" format="1">
  <advance width="489"/>
  <unicode hex="0024"/>
  <outline>
    <contour>
      <point x="259" y="-7" type="qcurve"/>
      <point x="259" y="-99" type="line"/>
      <point x="226" y="-99" type="line"/>
      <point x="226" y="-7" type="line"/>
      <point x="177" y="-5"/>
      <point x="83" y="11"/>
      <point x="49" y="24" type="qcurve"/>
      <point x="49" y="59" type="line"/>
      <point x="117" y="41"/>
      <point x="203" y="29"/>
      <point x="247" y="29" type="qcurve"/>
      <point x="334" y="29"/>
      <point x="408" y="92"/>
      <point x="408" y="172" type="qcurve"/>
      <point x="408" y="223"/>
      <point x="368" y="268"/>
      <point x="307" y="285" type="qcurve"/>
      <point x="162" y="325" type="line" smooth="yes"/>
      <point x="102" y="342"/>
      <point x="51" y="405"/>
      <point x="51" y="461" type="qcurve"/>
      <point x="51" y="546"/>
      <point x="136" y="631"/>
      <point x="226" y="636" type="qcurve"/>
      <point x="226" y="726" type="line"/>
      <point x="259" y="726" type="line"/>
      <point x="259" y="637" type="line"/>
      <point x="300" y="637"/>
      <point x="371" y="628"/>
      <point x="402" y="619" type="qcurve"/>
      <point x="402" y="584" type="line"/>
      <point x="366" y="593"/>
      <point x="292" y="602"/>
      <point x="255" y="602" type="qcurve" smooth="yes"/>
      <point x="166" y="602"/>
      <point x="88" y="536"/>
      <point x="88" y="463" type="qcurve"/>
      <point x="88" y="420"/>
      <point x="128" y="374"/>
      <point x="177" y="360" type="qcurve"/>
      <point x="321" y="319" type="line" smooth="yes"/>
      <point x="398" y="297"/>
      <point x="447" y="235"/>
      <point x="447" y="171" type="qcurve"/>
      <point x="447" y="80"/>
      <point x="356" y="-4"/>
    </contour>
  </outline>
</glyph>
<glyph name="percent" format="1">
  <advance width="636"/>
  <unicode hex="0025"/>
  <outline>
    <contour>
      <point x="276" y="475" type="qcurve"/>
      <point x="276" y="390"/>
      <point x="223" y="320"/>
      <point x="158" y="320" type="qcurve"/>
      <point x="94" y="320"/>
      <point x="41" y="390"/>
      <point x="41" y="475" type="qcurve"/>
      <point x="41" y="561"/>
      <point x="94" y="631"/>
      <point x="158" y="631" type="qcurve"/>
      <point x="223" y="631"/>
      <point x="276" y="561"/>
    </contour>
    <contour>
      <point x="481" y="627" type="line"/>
      <point x="181" y="0" type="line"/>
      <point x="148" y="0" type="line"/>
      <point x="448" y="627" type="line"/>
    </contour>
    <contour>
      <point x="245" y="475" type="qcurve"/>
      <point x="245" y="547"/>
      <point x="206" y="604"/>
      <point x="158" y="604" type="qcurve"/>
      <point x="110" y="604"/>
      <point x="72" y="546"/>
      <point x="72" y="475" type="qcurve"/>
      <point x="72" y="405"/>
      <point x="110" y="348"/>
      <point x="158" y="348" type="qcurve"/>
      <point x="206" y="348"/>
      <point x="245" y="405"/>
    </contour>
    <contour>
      <point x="594" y="152" type="qcurve"/>
      <point x="594" y="67"/>
      <point x="542" y="-3"/>
      <point x="477" y="-3" type="qcurve"/>
      <point x="412" y="-3"/>
      <point x="360" y="67"/>
      <point x="360" y="152" type="qcurve"/>
      <point x="360" y="238"/>
      <point x="413" y="308"/>
      <point x="477" y="308" type="qcurve"/>
      <point x="541" y="308"/>
      <point x="594" y="238"/>
    </contour>
    <contour>
      <point x="564" y="152" type="qcurve"/>
      <point x="564" y="223"/>
      <point x="525" y="281"/>
      <point x="477" y="281" type="qcurve"/>
      <point x="429" y="281"/>
      <point x="390" y="223"/>
      <point x="390" y="152" type="qcurve"/>
      <point x="390" y="81"/>
      <point x="429" y="24"/>
      <point x="477" y="24" type="qcurve"/>
      <point x="525" y="24"/>
      <point x="564" y="81"/>
    </contour>
  </outline>
</glyph>
<glyph name="ampersand" format="1">
  <advance width="739"/>
  <unicode hex="0026"/>
  <outline>
    <contour>
      <point x="329" y="29" type="qcurve" smooth="yes"/>
      <point x="389" y="29"/>
      <point x="478" y="46"/>
      <point x="507" y="63" type="qcurve"/>
      <point x="507" y="332" type="line"/>
      <point x="715" y="332" type="line"/>
      <point x="715" y="300" type="line"/>
      <point x="543" y="300" type="line"/>
      <point x="543" y="42" type="line"/>
      <point x="503" y="16"/>
      <point x="401" y="-7"/>
      <point x="329" y="-7" type="qcurve"/>
      <point x="189" y="-7"/>
      <point x="59" y="154"/>
      <point x="59" y="328" type="qcurve"/>
      <point x="59" y="487"/>
      <point x="187" y="637"/>
      <point x="322" y="637" type="qcurve"/>
      <point x="413" y="637"/>
      <point x="514" y="553"/>
      <point x="514" y="479" type="qcurve" smooth="yes"/>
      <point x="514" y="373"/>
      <point x="319" y="278"/>
      <point x="98" y="275" type="qcurve"/>
      <point x="107" y="146"/>
      <point x="217" y="29"/>
    </contour>
    <contour>
      <point x="321" y="602" type="qcurve"/>
      <point x="202" y="602"/>
      <point x="96" y="473"/>
      <point x="96" y="330" type="qcurve"/>
      <point x="96" y="325"/>
      <point x="96" y="314"/>
      <point x="96" y="308" type="qcurve"/>
      <point x="299" y="310"/>
      <point x="477" y="389"/>
      <point x="477" y="477" type="qcurve" smooth="yes"/>
      <point x="477" y="535"/>
      <point x="395" y="602"/>
    </contour>
  </outline>
</glyph>
<glyph name="parenleft" format="1">
  <advance width="213"/>
  <unicode hex="0028"/>
  <outline>
    <contour>
      <point x="93" y="313" type="qcurve"/>
      <point x="93" y="200"/>
      <point x="134" y="2"/>
      <point x="173" y="-72" type="qcurve"/>
      <point x="146" y="-80" type="line"/>
      <point x="103" y="-2"/>
      <point x="58" y="200"/>
      <point x="58" y="313" type="qcurve"/>
      <point x="58" y="430"/>
      <point x="103" y="630"/>
      <point x="146" y="707" type="qcurve"/>
      <point x="172" y="699" type="line"/>
      <point x="133" y="624"/>
      <point x="93" y="426"/>
    </contour>
  </outline>
</glyph>
<glyph name="parenright" format="1">
  <advance width="213"/>
  <unicode hex="0029"/>
  <outline>
    <contour>
      <point x="120" y="313" type="qcurve"/>
      <point x="120" y="426"/>
      <point x="80" y="624"/>
      <point x="41" y="699" type="qcurve"/>
      <point x="67" y="707" type="line"/>
      <point x="110" y="630"/>
      <point x="155" y="430"/>
      <point x="155" y="313" type="qcurve"/>
      <point x="155" y="200"/>
      <point x="110" y="-2"/>
      <point x="67" y="-80" type="qcurve"/>
      <point x="40" y="-72" type="line"/>
      <point x="79" y="2"/>
      <point x="120" y="200"/>
    </contour>
  </outline>
</glyph>
<glyph name="asterisk" format="1">
  <advance width="402"/>
  <unicode hex="002A"/>
  <outline>
    <contour>
      <point x="221" y="457" type="line"/>
      <point x="309" y="340" type="line"/>
      <point x="281" y="321" type="line"/>
      <point x="201" y="442" type="line"/>
      <point x="116" y="323" type="line"/>
      <point x="90" y="343" type="line"/>
      <point x="180" y="458" type="line"/>
      <point x="41" y="502" type="line"/>
      <point x="52" y="533" type="line"/>
      <point x="188" y="483" type="line"/>
      <point x="184" y="627" type="line"/>
      <point x="218" y="627" type="line"/>
      <point x="214" y="482" type="line"/>
      <point x="352" y="530" type="line"/>
      <point x="362" y="498" type="line"/>
    </contour>
  </outline>
</glyph>
<glyph name="plus" format="1">
  <advance width="500"/>
  <unicode hex="002B"/>
  <outline>
    <contour>
      <point x="463" y="339" type="line"/>
      <point x="463" y="305" type="line"/>
      <point x="269" y="305" type="line"/>
      <point x="269" y="110" type="line"/>
      <point x="233" y="110" type="line"/>
      <point x="233" y="305" type="line"/>
      <point x="37" y="305" type="line"/>
      <point x="37" y="339" type="line"/>
      <point x="233" y="339" type="line"/>
      <point x="233" y="532" type="line"/>
      <point x="269" y="532" type="line"/>
      <point x="269" y="339" type="line"/>
    </contour>
  </outline>
</glyph>
<glyph name="comma" format="1">
  <advance width="154"/>
  <unicode hex="002C"/>
  <outline>
    <contour>
      <point x="101" y="50" type="line"/>
      <point x="79" y="-88" type="line" smooth="yes"/>
      <point x="77" y="-99"/>
      <point x="69" y="-107"/>
      <point x="60" y="-107" type="qcurve"/>
      <point x="51" y="-107" type="line"/>
      <point x="60" y="50" type="line"/>
    </contour>
  </outline>
</glyph>
<glyph name="period" format="1">
  <advance width="141"/>
  <unicode hex="002E"/>
  <outline>
    <contour>
      <point x="90" y="0" type="line"/>
      <point x="51" y="0" type="line"/>
      <point x="51" y="46" type="line"/>
      <point x="90" y="46" type="line"/>
    </contour>
  </outline>
</glyph>
<glyph name="slash" format="1">
  <advance width="296"/>
  <unicode hex="002F"/>
  <outline>
    <contour>
      <point x="266" y="707" type="line"/>
      <point x="65" y="-80" type="line"/>
      <point x="31" y="-80" type="line"/>
      <point x="232" y="707" type="line"/>
    </contour>
  </outline>
</glyph>
<glyph name="zero" format="1">
  <advance width="578"/>
  <unicode hex="0030"/>
  <outline>
    <contour>
      <point x="515" y="316" type="qcurve"/>
      <point x="515" y="137"/>
      <point x="415" y="-7"/>
      <point x="290" y="-7" type="qcurve"/>
      <point x="208" y="-7"/>
      <point x="118" y="37"/>
      <point x="95" y="87" type="qcurve" smooth="yes"/>
      <point x="79" y="123"/>
      <point x="64" y="233"/>
      <point x="64" y="316" type="qcurve"/>
      <point x="64" y="495"/>
      <point x="163" y="637"/>
      <point x="290" y="637" type="qcurve"/>
      <point x="372" y="637"/>
      <point x="461" y="593"/>
      <point x="484" y="544" type="qcurve" smooth="yes"/>
      <point x="500" y="508"/>
      <point x="515" y="399"/>
    </contour>
    <contour>
      <point x="454" y="516" type="qcurve" smooth="yes"/>
      <point x="436" y="562"/>
      <point x="361" y="602"/>
      <point x="290" y="602" type="qcurve"/>
      <point x="183" y="602"/>
      <point x="102" y="479"/>
      <point x="102" y="316" type="qcurve"/>
      <point x="102" y="243"/>
      <point x="113" y="147"/>
      <point x="125" y="116" type="qcurve" smooth="yes"/>
      <point x="143" y="69"/>
      <point x="219" y="29"/>
      <point x="290" y="29" type="qcurve"/>
      <point x="397" y="29"/>
      <point x="477" y="152"/>
      <point x="477" y="316" type="qcurve"/>
      <point x="477" y="389"/>
      <point x="466" y="484"/>
    </contour>
  </outline>
</glyph>
<glyph name="one" format="1">
  <advance width="364"/>
  <unicode hex="0031"/>
  <outline>
    <contour>
      <point x="266" y="0" type="line"/>
      <point x="229" y="0" type="line"/>
      <point x="229" y="598" type="line"/>
      <point x="19" y="569" type="line"/>
      <point x="19" y="604" type="line"/>
      <point x="266" y="637" type="line"/>
    </contour>
  </outline>
</glyph>
<glyph name="two" format="1">
  <advance width="449"/>
  <unicode hex="0032"/>
  <outline>
    <contour>
      <point x="403" y="35" type="line"/>
      <point x="403" y="0" type="line"/>
      <point x="32" y="0" type="line"/>
      <point x="32" y="35" type="line"/>
      <point x="268" y="308" type="line" smooth="yes"/>
      <point x="312" y="357"/>
      <point x="350" y="440"/>
      <point x="350" y="483" type="qcurve"/>
      <point x="350" y="541"/>
      <point x="286" y="602"/>
      <point x="225" y="602" type="qcurve"/>
      <point x="182" y="602"/>
      <point x="93" y="590"/>
      <point x="63" y="580" type="qcurve"/>
      <point x="63" y="615" type="line"/>
      <point x="105" y="626"/>
      <point x="185" y="637"/>
      <point x="227" y="637" type="qcurve"/>
      <point x="305" y="637"/>
      <point x="388" y="559"/>
      <point x="388" y="486" type="qcurve"/>
      <point x="388" y="438"/>
      <point x="348" y="349"/>
      <point x="299" y="291" type="qcurve"/>
      <point x="77" y="35" type="line"/>
    </contour>
  </outline>
</glyph>
<glyph name="three" format="1">
  <advance width="467"/>
  <unicode hex="0033"/>
  <outline>
    <contour>
      <point x="380" y="482" type="qcurve"/>
      <point x="380" y="423"/>
      <point x="322" y="344"/>
      <point x="270" y="329" type="qcurve"/>
      <point x="270" y="327" type="line"/>
      <point x="338" y="323"/>
      <point x="410" y="243"/>
      <point x="410" y="171" type="qcurve"/>
      <point x="410" y="85"/>
      <point x="304" y="-7"/>
      <point x="205" y="-7" type="qcurve"/>
      <point x="149" y="-7"/>
      <point x="72" y="2"/>
      <point x="40" y="12" type="qcurve"/>
      <point x="40" y="47" type="line"/>
      <point x="75" y="37"/>
      <point x="149" y="29"/>
      <point x="202" y="29" type="qcurve"/>
      <point x="286" y="29"/>
      <point x="373" y="101"/>
      <point x="373" y="172" type="qcurve"/>
      <point x="373" y="242"/>
      <point x="297" y="306"/>
      <point x="214" y="306" type="qcurve"/>
      <point x="121" y="306" type="line"/>
      <point x="121" y="339" type="line"/>
      <point x="196" y="339" type="line"/>
      <point x="263" y="339"/>
      <point x="344" y="413"/>
      <point x="344" y="478" type="qcurve"/>
      <point x="344" y="541"/>
      <point x="280" y="602"/>
      <point x="213" y="602" type="qcurve"/>
      <point x="172" y="602"/>
      <point x="93" y="591"/>
      <point x="63" y="582" type="qcurve"/>
      <point x="63" y="615" type="line"/>
      <point x="96" y="626"/>
      <point x="174" y="637"/>
      <point x="219" y="637" type="qcurve"/>
      <point x="299" y="637"/>
      <point x="380" y="559"/>
    </contour>
  </outline>
</glyph>
<glyph name="four" format="1">
  <advance width="519"/>
  <unicode hex="0034"/>
  <outline>
    <contour>
      <point x="487" y="216" type="line"/>
      <point x="487" y="182" type="line"/>
      <point x="388" y="182" type="line"/>
      <point x="388" y="0" type="line"/>
      <point x="351" y="0" type="line"/>
      <point x="351" y="182" type="line"/>
      <point x="45" y="182" type="line"/>
      <point x="45" y="215" type="line"/>
      <point x="124" y="627" type="line"/>
      <point x="161" y="627" type="line"/>
      <point x="82" y="216" type="line"/>
      <point x="351" y="216" type="line"/>
      <point x="351" y="517" type="line"/>
      <point x="388" y="517" type="line"/>
      <point x="388" y="216" type="line"/>
    </contour>
  </outline>
</glyph>
<glyph name="five" format="1">
  <advance width="465"/>
  <unicode hex="0035"/>
  <outline>
    <contour>
      <point x="417" y="183" type="qcurve" smooth="yes"/>
      <point x="417" y="83"/>
      <point x="320" y="-7"/>
      <point x="213" y="-7" type="qcurve"/>
      <point x="160" y="-7"/>
      <point x="77" y="3"/>
      <point x="50" y="13" type="qcurve"/>
      <point x="50" y="48" type="line"/>
      <point x="81" y="39"/>
      <point x="160" y="29"/>
      <point x="207" y="29" type="qcurve"/>
      <point x="301" y="29"/>
      <point x="379" y="100"/>
      <point x="379" y="183" type="qcurve" smooth="yes"/>
      <point x="379" y="254"/>
      <point x="302" y="316"/>
      <point x="203" y="316" type="qcurve" smooth="yes"/>
      <point x="169" y="316"/>
      <point x="110" y="310"/>
      <point x="80" y="304" type="qcurve"/>
      <point x="80" y="627" type="line"/>
      <point x="377" y="627" type="line"/>
      <point x="377" y="592" type="line"/>
      <point x="118" y="592" type="line"/>
      <point x="118" y="341" type="line"/>
      <point x="139" y="345"/>
      <point x="188" y="350"/>
      <point x="214" y="350" type="qcurve" smooth="yes"/>
      <point x="323" y="350"/>
      <point x="417" y="270"/>
    </contour>
  </outline>
</glyph>
<glyph name="six" format="1">
  <advance width="527"/>
  <unicode hex="0036"/>
  <outline>
    <contour>
      <point x="271" y="-7" type="qcurve"/>
      <point x="159" y="-7"/>
      <point x="63" y="135"/>
      <point x="63" y="297" type="qcurve"/>
      <point x="63" y="483"/>
      <point x="183" y="637"/>
      <point x="323" y="637" type="qcurve"/>
      <point x="345" y="637"/>
      <point x="391" y="633"/>
      <point x="403" y="631" type="qcurve"/>
      <point x="403" y="597" type="line"/>
      <point x="376" y="600"/>
      <point x="341" y="602"/>
      <point x="323" y="602" type="qcurve"/>
      <point x="205" y="602"/>
      <point x="105" y="483"/>
      <point x="101" y="332" type="qcurve"/>
      <point x="154" y="364"/>
      <point x="252" y="392"/>
      <point x="307" y="392" type="qcurve"/>
      <point x="397" y="392"/>
      <point x="481" y="303"/>
      <point x="481" y="208" type="qcurve"/>
      <point x="481" y="106"/>
      <point x="371" y="-7"/>
    </contour>
    <contour>
      <point x="100" y="300" type="qcurve"/>
      <point x="100" y="295" type="line"/>
      <point x="100" y="151"/>
      <point x="178" y="29"/>
      <point x="270" y="29" type="qcurve"/>
      <point x="355" y="29"/>
      <point x="444" y="121"/>
      <point x="444" y="207" type="qcurve"/>
      <point x="444" y="288"/>
      <point x="374" y="359"/>
      <point x="292" y="359" type="qcurve"/>
      <point x="245" y="359"/>
      <point x="148" y="329"/>
    </contour>
  </outline>
</glyph>
<glyph name="seven" format="1">
  <advance width="443"/>
  <unicode hex="0037"/>
  <outline>
    <contour>
      <point x="415" y="627" type="line"/>
      <point x="415" y="593" type="line"/>
      <point x="92" y="0" type="line"/>
      <point x="51" y="0" type="line"/>
      <point x="375" y="592" type="line"/>
      <point x="34" y="592" type="line"/>
      <point x="34" y="627" type="line"/>
    </contour>
  </outline>
</glyph>
<glyph name="eight" format="1">
  <advance width="536"/>
  <unicode hex="0038"/>
  <outline>
    <contour>
      <point x="475" y="166" type="qcurve"/>
      <point x="475" y="77"/>
      <point x="373" y="-7"/>
      <point x="266" y="-7" type="qcurve"/>
      <point x="160" y="-7"/>
      <point x="61" y="72"/>
      <point x="61" y="157" type="qcurve"/>
      <point x="61" y="228"/>
      <point x="132" y="314"/>
      <point x="199" y="321" type="qcurve"/>
      <point x="137" y="328"/>
      <point x="73" y="407"/>
      <point x="73" y="475" type="qcurve"/>
      <point x="73" y="557"/>
      <point x="168" y="637"/>
      <point x="266" y="637" type="qcurve"/>
      <point x="367" y="637"/>
      <point x="463" y="561"/>
      <point x="463" y="480" type="qcurve"/>
      <point x="463" y="410"/>
      <point x="398" y="329"/>
      <point x="334" y="321" type="qcurve"/>
      <point x="402" y="315"/>
      <point x="475" y="235"/>
    </contour>
    <contour>
      <point x="429" y="475" type="qcurve"/>
      <point x="429" y="542"/>
      <point x="351" y="603"/>
      <point x="266" y="603" type="qcurve"/>
      <point x="183" y="603"/>
      <point x="107" y="541"/>
      <point x="107" y="473" type="qcurve"/>
      <point x="107" y="402"/>
      <point x="185" y="336"/>
      <point x="265" y="336" type="qcurve"/>
      <point x="348" y="336"/>
      <point x="429" y="403"/>
    </contour>
    <contour>
      <point x="440" y="168" type="qcurve"/>
      <point x="440" y="238"/>
      <point x="355" y="304"/>
      <point x="265" y="304" type="qcurve"/>
      <point x="179" y="304"/>
      <point x="97" y="234"/>
      <point x="97" y="160" type="qcurve"/>
      <point x="97" y="92"/>
      <point x="179" y="28"/>
      <point x="266" y="28" type="qcurve"/>
      <point x="356" y="28"/>
      <point x="440" y="96"/>
    </contour>
  </outline>
</glyph>
<glyph name="nine" format="1">
  <advance width="520"/>
  <unicode hex="0039"/>
  <outline>
    <contour>
      <point x="254" y="637" type="qcurve"/>
      <point x="366" y="637"/>
      <point x="457" y="500"/>
      <point x="457" y="333" type="qcurve"/>
      <point x="457" y="147"/>
      <point x="337" y="-7"/>
      <point x="196" y="-7" type="qcurve"/>
      <point x="176" y="-7"/>
      <point x="130" y="-3"/>
      <point x="116" y="0" type="qcurve"/>
      <point x="116" y="35" type="line"/>
      <point x="134" y="32"/>
      <point x="174" y="29"/>
      <point x="196" y="29" type="qcurve"/>
      <point x="315" y="29"/>
      <point x="416" y="150"/>
      <point x="420" y="303" type="qcurve"/>
      <point x="376" y="273"/>
      <point x="281" y="243"/>
      <point x="228" y="243" type="qcurve"/>
      <point x="134" y="243"/>
      <point x="46" y="334"/>
      <point x="46" y="431" type="qcurve"/>
      <point x="46" y="528"/>
      <point x="156" y="637"/>
    </contour>
    <contour>
      <point x="254" y="602" type="qcurve"/>
      <point x="171" y="602"/>
      <point x="83" y="515"/>
      <point x="83" y="432" type="qcurve"/>
      <point x="83" y="348"/>
      <point x="156" y="276"/>
      <point x="242" y="276" type="qcurve"/>
      <point x="286" y="276"/>
      <point x="376" y="306"/>
      <point x="420" y="335" type="qcurve"/>
      <point x="420" y="484"/>
      <point x="347" y="602"/>
    </contour>
  </outline>
</glyph>
<glyph name="less" format="1">
  <advance width="500"/>
  <unicode hex="003C"/>
  <outline>
    <contour>
      <point x="463" y="122" type="line"/>
      <point x="463" y="86" type="line"/>
      <point x="37" y="293" type="line"/>
      <point x="37" y="332" type="line"/>
      <point x="463" y="538" type="line"/>
      <point x="463" y="502" type="line"/>
      <point x="67" y="312" type="line"/>
    </contour>
  </outline>
</glyph>
<glyph name="question" format="1">
  <advance width="395"/>
  <unicode hex="003F"/>
  <outline>
    <contour>
      <point x="186" y="637" type="qcurve"/>
      <point x="268" y="637"/>
      <point x="358" y="568"/>
      <point x="358" y="503" type="qcurve" smooth="yes"/>
      <point x="358" y="444"/>
      <point x="273" y="344"/>
      <point x="179" y="296" type="qcurve"/>
      <point x="179" y="152" type="line"/>
      <point x="145" y="152" type="line"/>
      <point x="145" y="314" type="line"/>
      <point x="239" y="358"/>
      <point x="323" y="446"/>
      <point x="323" y="499" type="qcurve" smooth="yes"/>
      <point x="323" y="549"/>
      <point x="249" y="603"/>
      <point x="183" y="603" type="qcurve"/>
      <point x="142" y="603"/>
      <point x="61" y="588"/>
      <point x="26" y="574" type="qcurve"/>
      <point x="26" y="608" type="line"/>
      <point x="63" y="622"/>
      <point x="144" y="637"/>
    </contour>
    <contour>
      <point x="181" y="45" type="line"/>
      <point x="181" y="0" type="line"/>
      <point x="140" y="0" type="line"/>
      <point x="140" y="45" type="line"/>
    </contour>
  </outline>
</glyph>
<glyph name="at" format="1">
  <advance width="680"/>
  <unicode hex="0040"/>
  <outline>
    <contour>
      <point x="313" y="69" type="qcurve"/>
      <point x="264" y="69"/>
      <point x="216" y="119"/>
      <point x="216" y="172" type="qcurve"/>
      <point x="216" y="224"/>
      <point x="273" y="269"/>
      <point x="341" y="269" type="qcurve"/>
      <point x="363" y="269"/>
      <point x="406" y="265"/>
      <point x="441" y="259" type="qcurve"/>
      <point x="441" y="293" type="line" smooth="yes"/>
      <point x="441" y="345"/>
      <point x="397" y="388"/>
      <point x="351" y="388" type="qcurve" smooth="yes"/>
      <point x="326" y="388"/>
      <point x="280" y="382"/>
      <point x="251" y="375" type="qcurve"/>
      <point x="251" y="404" type="line"/>
      <point x="277" y="411"/>
      <point x="321" y="416"/>
      <point x="354" y="416" type="qcurve"/>
      <point x="415" y="416"/>
      <point x="471" y="361"/>
      <point x="471" y="295" type="qcurve"/>
      <point x="471" y="144" type="line" smooth="yes"/>
      <point x="471" y="120"/>
      <point x="486" y="98"/>
      <point x="502" y="98" type="qcurve"/>
      <point x="544" y="98"/>
      <point x="592" y="198"/>
      <point x="592" y="284" type="qcurve"/>
      <point x="592" y="406"/>
      <point x="475" y="527"/>
      <point x="358" y="527" type="qcurve"/>
      <point x="216" y="527"/>
      <point x="88" y="389"/>
      <point x="89" y="236" type="qcurve" smooth="yes"/>
      <point x="89" y="90"/>
      <point x="221" y="-46"/>
      <point x="366" y="-46" type="qcurve"/>
      <point x="419" y="-46"/>
      <point x="507" y="-26"/>
      <point x="546" y="-5" type="qcurve"/>
      <point x="546" y="-36" type="line"/>
      <point x="512" y="-55"/>
      <point x="416" y="-76"/>
      <point x="363" y="-76" type="qcurve"/>
      <point x="204" y="-76"/>
      <point x="57" y="75"/>
      <point x="57" y="236" type="qcurve" smooth="yes"/>
      <point x="57" y="401"/>
      <point x="203" y="557"/>
      <point x="358" y="557" type="qcurve"/>
      <point x="489" y="557"/>
      <point x="624" y="419"/>
      <point x="624" y="286" type="qcurve"/>
      <point x="624" y="184"/>
      <point x="558" y="69"/>
      <point x="499" y="69" type="qcurve"/>
      <point x="477" y="69"/>
      <point x="449" y="92"/>
      <point x="445" y="114" type="qcurve"/>
      <point x="421" y="92"/>
      <point x="353" y="69"/>
    </contour>
    <contour>
      <point x="344" y="243" type="qcurve"/>
      <point x="289" y="243"/>
      <point x="246" y="212"/>
      <point x="246" y="174" type="qcurve"/>
      <point x="246" y="134"/>
      <point x="282" y="97"/>
      <point x="321" y="97" type="qcurve"/>
      <point x="358" y="97"/>
      <point x="420" y="117"/>
      <point x="441" y="136" type="qcurve"/>
      <point x="441" y="234" type="line"/>
      <point x="399" y="240"/>
      <point x="363" y="243"/>
    </contour>
  </outline>
</glyph>
<glyph name="A" format="1">
  <advance width="594"/>
  <unicode hex="0041"/>
  <outline>
    <contour>
      <point x="59" y="0" type="line"/>
      <point x="19" y="0" type="line"/>
      <point x="278" y="627" type="line"/>
      <point x="317" y="627" type="line"/>
      <point x="574" y="0" type="line"/>
      <point x="534" y="0" type="line"/>
      <point x="460" y="182" type="line"/>
      <point x="133" y="182" type="line"/>
    </contour>
    <contour>
      <point x="297" y="593" type="qcurve"/>
      <point x="288" y="566"/>
      <point x="265" y="506"/>
      <point x="244" y="456" type="qcurve"/>
      <point x="147" y="216" type="line"/>
      <point x="446" y="216" type="line"/>
      <point x="349" y="456" type="line" smooth="yes"/>
      <point x="327" y="511"/>
      <point x="301" y="580"/>
    </contour>
    <contour>
      <point x="297" y="645" type="move" name="top"/>
    </contour>
    <contour>
      <point x="574" y="0" type="move" name="ogonek"/>
    </contour>
  </outline>
</glyph>
<glyph name="B" format="1">
  <advance width="565"/>
  <unicode hex="0042"/>
  <outline>
    <contour>
      <point x="512" y="177" type="qcurve"/>
      <point x="512" y="80"/>
      <point x="413" y="0"/>
      <point x="299" y="0" type="qcurve"/>
      <point x="88" y="0" type="line"/>
      <point x="88" y="627" type="line"/>
      <point x="298" y="627" type="line" smooth="yes"/>
      <point x="400" y="627"/>
      <point x="485" y="560"/>
      <point x="485" y="477" type="qcurve"/>
      <point x="485" y="413"/>
      <point x="433" y="342"/>
      <point x="379" y="333" type="qcurve"/>
      <point x="444" y="328"/>
      <point x="512" y="249"/>
    </contour>
    <contour>
      <point x="449" y="473" type="qcurve"/>
      <point x="449" y="541"/>
      <point x="382" y="593"/>
      <point x="299" y="593" type="qcurve"/>
      <point x="125" y="593" type="line"/>
      <point x="125" y="344" type="line"/>
      <point x="299" y="344" type="line" smooth="yes"/>
      <point x="378" y="344"/>
      <point x="449" y="404"/>
    </contour>
    <contour>
      <point x="475" y="178" type="qcurve"/>
      <point x="475" y="253"/>
      <point x="396" y="310"/>
      <point x="299" y="310" type="qcurve"/>
      <point x="125" y="310" type="line"/>
      <point x="125" y="34" type="line"/>
      <point x="299" y="34" type="line" smooth="yes"/>
      <point x="395" y="34"/>
      <point x="475" y="98"/>
    </contour>
  </outline>
</glyph>
<glyph name="C" format="1">
  <advance width="531"/>
  <unicode hex="0043"/>
  <outline>
    <contour>
      <point x="325" y="29" type="qcurve" smooth="yes"/>
      <point x="367" y="29"/>
      <point x="456" y="49"/>
      <point x="496" y="67" type="qcurve"/>
      <point x="496" y="32" type="line"/>
      <point x="442" y="10"/>
      <point x="358" y="-7"/>
      <point x="314" y="-7" type="qcurve" smooth="yes"/>
      <point x="176" y="-7"/>
      <point x="59" y="143"/>
      <point x="59" y="316" type="qcurve" smooth="yes"/>
      <point x="59" y="482"/>
      <point x="191" y="637"/>
      <point x="335" y="637" type="qcurve"/>
      <point x="381" y="637"/>
      <point x="453" y="633"/>
      <point x="482" y="628" type="qcurve"/>
      <point x="482" y="593" type="line"/>
      <point x="449" y="598"/>
      <point x="380" y="602"/>
      <point x="335" y="602" type="qcurve"/>
      <point x="207" y="602"/>
      <point x="97" y="468"/>
      <point x="97" y="316" type="qcurve" smooth="yes"/>
      <point x="97" y="157"/>
      <point x="196" y="29"/>
    </contour>
    <contour>
      <point x="325" y="655" type="move" name="top"/>
    </contour>
    <contour>
      <point x="307" y="0" type="move" name="bottom"/>
    </contour>
  </outline>
</glyph>
<glyph name="D" format="1">
  <advance width="613"/>
  <unicode hex="0044"/>
  <outline>
    <contour>
      <point x="245" y="0" type="qcurve"/>
      <point x="88" y="0" type="line"/>
      <point x="88" y="627" type="line"/>
      <point x="245" y="627" type="line" smooth="yes"/>
      <point x="342" y="627"/>
      <point x="456" y="596"/>
      <point x="489" y="561" type="qcurve" smooth="yes"/>
      <point x="522" y="526"/>
      <point x="553" y="408"/>
      <point x="553" y="314" type="qcurve"/>
      <point x="553" y="151"/>
      <point x="407" y="0"/>
    </contour>
    <contour>
      <point x="461" y="533" type="qcurve" smooth="yes"/>
      <point x="432" y="564"/>
      <point x="332" y="592"/>
      <point x="245" y="592" type="qcurve"/>
      <point x="125" y="592" type="line"/>
      <point x="125" y="35" type="line"/>
      <point x="245" y="35" type="line" smooth="yes"/>
      <point x="389" y="35"/>
      <point x="515" y="166"/>
      <point x="515" y="314" type="qcurve"/>
      <point x="515" y="398"/>
      <point x="489" y="503"/>
    </contour>
    <contour>
      <point x="292" y="645" type="move" name="top"/>
    </contour>
  </outline>
</glyph>
<glyph name="E" format="1">
  <advance width="534"/>
  <unicode hex="0045"/>
  <outline>
    <contour>
      <point x="493" y="35" type="line"/>
      <point x="493" y="0" type="line"/>
      <point x="88" y="0" type="line"/>
      <point x="88" y="627" type="line"/>
      <point x="484" y="627" type="line"/>
      <point x="484" y="592" type="line"/>
      <point x="125" y="592" type="line"/>
      <point x="125" y="339" type="line"/>
      <point x="447" y="339" type="line"/>
      <point x="447" y="305" type="line"/>
      <point x="125" y="305" type="line"/>
      <point x="125" y="35" type="line"/>
    </contour>
    <contour>
      <point x="292" y="645" type="move" name="top"/>
    </contour>
    <contour>
      <point x="429" y="0" type="move" name="ogonek"/>
    </contour>
  </outline>
</glyph>
<glyph name="F" format="1">
  <advance width="506"/>
  <unicode hex="0046"/>
  <outline>
    <contour>
      <point x="125" y="280" type="line"/>
      <point x="125" y="0" type="line"/>
      <point x="88" y="0" type="line"/>
      <point x="88" y="627" type="line"/>
      <point x="475" y="627" type="line"/>
      <point x="475" y="592" type="line"/>
      <point x="125" y="592" type="line"/>
      <point x="125" y="314" type="line"/>
      <point x="438" y="314" type="line"/>
      <point x="438" y="280" type="line"/>
    </contour>
  </outline>
</glyph>
<glyph name="G" format="1">
  <advance width="612"/>
  <unicode hex="0047"/>
  <outline>
    <contour>
      <point x="518" y="278" type="line"/>
      <point x="319" y="278" type="line"/>
      <point x="319" y="312" type="line"/>
      <point x="554" y="312" type="line"/>
      <point x="554" y="31" type="line"/>
      <point x="526" y="18"/>
      <point x="382" y="-7"/>
      <point x="323" y="-7" type="qcurve"/>
      <point x="173" y="-7"/>
      <point x="60" y="135"/>
      <point x="60" y="314" type="qcurve" smooth="yes"/>
      <point x="60" y="479"/>
      <point x="198" y="637"/>
      <point x="343" y="637" type="qcurve"/>
      <point x="389" y="637"/>
      <point x="483" y="632"/>
      <point x="520" y="627" type="qcurve"/>
      <point x="520" y="593" type="line"/>
      <point x="486" y="597"/>
      <point x="390" y="602"/>
      <point x="343" y="602" type="qcurve" smooth="yes"/>
      <point x="215" y="602"/>
      <point x="98" y="465"/>
      <point x="98" y="314" type="qcurve" smooth="yes"/>
      <point x="98" y="236"/>
      <point x="117" y="133"/>
      <point x="138" y="101" type="qcurve" smooth="yes"/>
      <point x="162" y="62"/>
      <point x="252" y="28"/>
      <point x="333" y="28" type="qcurve"/>
      <point x="374" y="28"/>
      <point x="485" y="44"/>
      <point x="518" y="55" type="qcurve"/>
    </contour>
    <contour>
      <point x="343" y="655" type="move" name="top"/>
    </contour>
    <contour>
      <point x="333" y="0" type="move" name="bottom"/>
    </contour>
  </outline>
</glyph>
<glyph name="H" format="1">
  <advance width="652"/>
  <unicode hex="0048"/>
  <outline>
    <contour>
      <point x="125" y="0" type="line"/>
      <point x="88" y="0" type="line"/>
      <point x="88" y="627" type="line"/>
      <point x="125" y="627" type="line"/>
      <point x="125" y="335" type="line"/>
      <point x="527" y="335" type="line"/>
      <point x="527" y="627" type="line"/>
      <point x="565" y="627" type="line"/>
      <point x="565" y="0" type="line"/>
      <point x="527" y="0" type="line"/>
      <point x="527" y="301" type="line"/>
      <point x="125" y="301" type="line"/>
    </contour>
    <contour>
      <point x="326" y="645" type="move" name="top"/>
    </contour>
  </outline>
</glyph>
<glyph name="I" format="1">
  <advance width="213"/>
  <unicode hex="0049"/>
  <outline>
    <contour>
      <point x="125" y="627" type="line"/>
      <point x="125" y="0" type="line"/>
      <point x="88" y="0" type="line"/>
      <point x="88" y="627" type="line"/>
    </contour>
    <contour>
      <point x="107" y="645" type="move" name="top"/>
    </contour>
    <contour>
      <point x="125" y="0" type="move" name="ogonek"/>
    </contour>
  </outline>
</glyph>
<glyph name="J" format="1">
  <advance width="441"/>
  <unicode hex="004A"/>
  <outline>
    <contour>
      <point x="321" y="227" type="qcurve"/>
      <point x="321" y="627" type="line"/>
      <point x="358" y="627" type="line"/>
      <point x="358" y="225" type="line" smooth="yes"/>
      <point x="358" y="105"/>
      <point x="254" y="-7"/>
      <point x="141" y="-7" type="qcurve"/>
      <point x="109" y="-7"/>
      <point x="55" y="0"/>
      <point x="24" y="8" type="qcurve"/>
      <point x="24" y="43" type="line"/>
      <point x="54" y="35"/>
      <point x="106" y="29"/>
      <point x="135" y="29" type="qcurve"/>
      <point x="235" y="29"/>
      <point x="321" y="121"/>
    </contour>
    <contour>
      <point x="339" y="645" type="move" name="top"/>
    </contour>
  </outline>
</glyph>
<glyph name="K" format="1">
  <advance width="569"/>
  <unicode hex="004B"/>
  <outline>
    <contour>
      <point x="267" y="320" type="line"/>
      <point x="555" y="0" type="line"/>
      <point x="504" y="0" type="line"/>
      <point x="234" y="301" type="line"/>
      <point x="125" y="301" type="line"/>
      <point x="125" y="0" type="line"/>
      <point x="88" y="0" type="line"/>
      <point x="88" y="627" type="line"/>
      <point x="125" y="627" type="line"/>
      <point x="125" y="335" type="line"/>
      <point x="234" y="335" type="line"/>
      <point x="494" y="627" type="line"/>
      <point x="544" y="627" type="line"/>
    </contour>
    <contour>
      <point x="277" y="0" type="move" name="bottom"/>
    </contour>
  </outline>
</glyph>
<glyph name="L" format="1">
  <advance width="483"/>
  <unicode hex="004C"/>
  <outline>
    <contour>
      <point x="461" y="35" type="line"/>
      <point x="461" y="0" type="line"/>
      <point x="88" y="0" type="line"/>
      <point x="88" y="627" type="line"/>
      <point x="125" y="627" type="line"/>
      <point x="125" y="35" type="line"/>
    </contour>
    <contour>
      <point x="107" y="645" type="move" name="top"/>
    </contour>
    <contour>
      <point x="357" y="627" type="move" name="caronalt"/>
    </contour>
    <contour>
      <point x="282" y="0" type="move" name="bottom"/>
    </contour>
  </outline>
</glyph>
<glyph name="M" format="1">
  <advance width="741"/>
  <unicode hex="004D"/>
  <outline>
    <contour>
      <point x="653" y="627" type="line"/>
      <point x="653" y="0" type="line"/>
      <point x="617" y="0" type="line"/>
      <point x="617" y="574" type="line"/>
      <point x="389" y="129" type="line"/>
      <point x="352" y="129" type="line"/>
      <point x="124" y="575" type="line"/>
      <point x="124" y="0" type="line"/>
      <point x="88" y="0" type="line"/>
      <point x="88" y="627" type="line"/>
      <point x="138" y="627" type="line"/>
      <point x="371" y="172" type="line"/>
      <point x="604" y="627" type="line"/>
    </contour>
  </outline>
</glyph>
<glyph name="N" format="1">
  <advance width="669"/>
  <unicode hex="004E"/>
  <outline>
    <contour>
      <point x="581" y="627" type="line"/>
      <point x="581" y="0" type="line"/>
      <point x="537" y="0" type="line"/>
      <point x="124" y="573" type="line"/>
      <point x="124" y="0" type="line"/>
      <point x="88" y="0" type="line"/>
      <point x="88" y="627" type="line"/>
      <point x="132" y="627" type="line"/>
      <point x="545" y="52" type="line"/>
      <point x="545" y="627" type="line"/>
    </contour>
    <contour>
      <point x="339" y="645" type="move" name="top"/>
    </contour>
    <contour>
      <point x="338" y="0" type="move" name="bottom"/>
    </contour>
  </outline>
</glyph>
<glyph name="O" format="1">
  <advance width="659"/>
  <unicode hex="004F"/>
  <outline>
    <contour>
      <point x="599" y="316" type="qcurve"/>
      <point x="599" y="146"/>
      <point x="473" y="-7"/>
      <point x="330" y="-7" type="qcurve"/>
      <point x="241" y="-7"/>
      <point x="136" y="32"/>
      <point x="107" y="75" type="qcurve" smooth="yes"/>
      <point x="83" y="112"/>
      <point x="60" y="228"/>
      <point x="60" y="316" type="qcurve"/>
      <point x="60" y="485"/>
      <point x="187" y="637"/>
      <point x="330" y="637" type="qcurve"/>
      <point x="419" y="637"/>
      <point x="522" y="598"/>
      <point x="551" y="555" type="qcurve" smooth="yes"/>
      <point x="576" y="519"/>
      <point x="599" y="403"/>
    </contour>
    <contour>
      <point x="135" y="102" type="qcurve" smooth="yes"/>
      <point x="159" y="63"/>
      <point x="248" y="29"/>
      <point x="330" y="29" type="qcurve" smooth="yes"/>
      <point x="456" y="29"/>
      <point x="561" y="161"/>
      <point x="561" y="316" type="qcurve"/>
      <point x="561" y="395"/>
      <point x="543" y="498"/>
      <point x="524" y="530" type="qcurve" smooth="yes"/>
      <point x="501" y="568"/>
      <point x="413" y="602"/>
      <point x="330" y="602" type="qcurve"/>
      <point x="202" y="602"/>
      <point x="98" y="471"/>
      <point x="98" y="316" type="qcurve"/>
      <point x="98" y="237"/>
      <point x="116" y="134"/>
    </contour>
    <contour>
      <point x="330" y="655" type="move" name="top"/>
    </contour>
  </outline>
</glyph>
<glyph name="P" format="1">
  <advance width="569"/>
  <unicode hex="0050"/>
  <outline>
    <contour>
      <point x="125" y="222" type="line"/>
      <point x="125" y="0" type="line"/>
      <point x="88" y="0" type="line"/>
      <point x="88" y="627" type="line"/>
      <point x="290" y="627" type="line" smooth="yes"/>
      <point x="415" y="627"/>
      <point x="526" y="535"/>
      <point x="526" y="432" type="qcurve"/>
      <point x="526" y="325"/>
      <point x="411" y="222"/>
      <point x="293" y="222" type="qcurve"/>
    </contour>
    <contour>
      <point x="488" y="432" type="qcurve"/>
      <point x="488" y="517"/>
      <point x="395" y="592"/>
      <point x="290" y="592" type="qcurve"/>
      <point x="125" y="592" type="line"/>
      <point x="125" y="255" type="line"/>
      <point x="290" y="255" type="line" smooth="yes"/>
      <point x="393" y="255"/>
      <point x="488" y="341"/>
    </contour>
  </outline>
</glyph>
<glyph name="Q" format="1">
  <advance width="659"/>
  <unicode hex="0051"/>
  <outline>
    <contour>
      <point x="330" y="-7" type="qcurve"/>
      <point x="241" y="-7"/>
      <point x="136" y="32"/>
      <point x="107" y="75" type="qcurve" smooth="yes"/>
      <point x="83" y="112"/>
      <point x="60" y="228"/>
      <point x="60" y="316" type="qcurve"/>
      <point x="60" y="485"/>
      <point x="187" y="637"/>
      <point x="330" y="637" type="qcurve"/>
      <point x="419" y="637"/>
      <point x="522" y="598"/>
      <point x="551" y="555" type="qcurve" smooth="yes"/>
      <point x="576" y="519"/>
      <point x="599" y="403"/>
      <point x="599" y="316" type="qcurve"/>
      <point x="599" y="188"/>
      <point x="529" y="41"/>
      <point x="455" y="12" type="qcurve"/>
      <point x="564" y="-128" type="line"/>
      <point x="518" y="-128" type="line"/>
      <point x="419" y="2" type="line"/>
      <point x="400" y="-2"/>
      <point x="355" y="-7"/>
    </contour>
    <contour>
      <point x="135" y="102" type="qcurve" smooth="yes"/>
      <point x="159" y="63"/>
      <point x="248" y="29"/>
      <point x="330" y="29" type="qcurve" smooth="yes"/>
      <point x="456" y="29"/>
      <point x="561" y="161"/>
      <point x="561" y="316" type="qcurve"/>
      <point x="561" y="395"/>
      <point x="543" y="498"/>
      <point x="524" y="530" type="qcurve" smooth="yes"/>
      <point x="501" y="568"/>
      <point x="413" y="602"/>
      <point x="330" y="602" type="qcurve"/>
      <point x="202" y="602"/>
      <point x="98" y="471"/>
      <point x="98" y="316" type="qcurve"/>
      <point x="98" y="237"/>
      <point x="116" y="134"/>
    </contour>
  </outline>
</glyph>
<glyph name="R" format="1">
  <advance width="580"/>
  <unicode hex="0052"/>
  <outline>
    <contour>
      <point x="125" y="242" type="line"/>
      <point x="125" y="0" type="line"/>
      <point x="88" y="0" type="line"/>
      <point x="88" y="627" type="line"/>
      <point x="290" y="627" type="line" smooth="yes"/>
      <point x="415" y="627"/>
      <point x="526" y="539"/>
      <point x="526" y="441" type="qcurve"/>
      <point x="526" y="357"/>
      <point x="447" y="261"/>
      <point x="365" y="247" type="qcurve"/>
      <point x="539" y="0" type="line"/>
      <point x="494" y="0" type="line"/>
      <point x="326" y="243" type="line"/>
      <point x="320" y="242"/>
      <point x="307" y="242"/>
      <point x="293" y="242" type="qcurve"/>
    </contour>
    <contour>
      <point x="488" y="441" type="qcurve"/>
      <point x="488" y="521"/>
      <point x="396" y="592"/>
      <point x="290" y="592" type="qcurve"/>
      <point x="125" y="592" type="line"/>
      <point x="125" y="276" type="line"/>
      <point x="290" y="276" type="line" smooth="yes"/>
      <point x="393" y="276"/>
      <point x="488" y="356"/>
    </contour>
    <contour>
      <point x="291" y="645" type="move" name="top"/>
    </contour>
    <contour>
      <point x="285" y="0" type="move" name="bottom"/>
    </contour>
  </outline>
</glyph>
<glyph name="S" format="1">
  <advance width="517"/>
  <unicode hex="0053"/>
  <outline>
    <contour>
      <point x="335" y="284" type="qcurve"/>
      <point x="166" y="324" type="line" smooth="yes"/>
      <point x="107" y="338"/>
      <point x="54" y="406"/>
      <point x="54" y="467" type="qcurve"/>
      <point x="54" y="556"/>
      <point x="158" y="637"/>
      <point x="271" y="637" type="qcurve" smooth="yes"/>
      <point x="317" y="637"/>
      <point x="394" y="628"/>
      <point x="426" y="619" type="qcurve"/>
      <point x="426" y="584" type="line"/>
      <point x="392" y="593"/>
      <point x="312" y="602"/>
      <point x="270" y="602" type="qcurve" smooth="yes"/>
      <point x="173" y="602"/>
      <point x="91" y="541"/>
      <point x="91" y="469" type="qcurve"/>
      <point x="91" y="421"/>
      <point x="132" y="372"/>
      <point x="179" y="360" type="qcurve"/>
      <point x="348" y="319" type="line" smooth="yes"/>
      <point x="421" y="301"/>
      <point x="474" y="238"/>
      <point x="474" y="171" type="qcurve"/>
      <point x="474" y="72"/>
      <point x="374" y="-7"/>
      <point x="262" y="-7" type="qcurve"/>
      <point x="201" y="-7"/>
      <point x="87" y="11"/>
      <point x="53" y="24" type="qcurve"/>
      <point x="53" y="59" type="line"/>
      <point x="102" y="44"/>
      <point x="207" y="29"/>
      <point x="262" y="29" type="qcurve"/>
      <point x="358" y="29"/>
      <point x="435" y="88"/>
      <point x="435" y="172" type="qcurve"/>
      <point x="435" y="223"/>
      <point x="394" y="270"/>
    </contour>
    <contour>
      <point x="263" y="655" type="move" name="top"/>
    </contour>
    <contour>
      <point x="247" y="0" type="move" name="bottom"/>
    </contour>
  </outline>
</glyph>
<glyph name="T" format="1">
  <advance width="546"/>
  <unicode hex="0054"/>
  <outline>
    <contour>
      <point x="525" y="627" type="line"/>
      <point x="525" y="592" type="line"/>
      <point x="292" y="592" type="line"/>
      <point x="292" y="0" type="line"/>
      <point x="254" y="0" type="line"/>
      <point x="254" y="592" type="line"/>
      <point x="21" y="592" type="line"/>
      <point x="21" y="627" type="line"/>
    </contour>
    <contour>
      <point x="273" y="645" type="move" name="top"/>
    </contour>
    <contour>
      <point x="273" y="0" type="move" name="bottom"/>
    </contour>
  </outline>
</glyph>
<glyph name="U" format="1">
  <advance width="641"/>
  <unicode hex="0055"/>
  <outline>
    <contour>
      <point x="521" y="241" type="qcurve"/>
      <point x="521" y="627" type="line"/>
      <point x="559" y="627" type="line"/>
      <point x="559" y="241" type="line" smooth="yes"/>
      <point x="559" y="112"/>
      <point x="442" y="-7"/>
      <point x="317" y="-7" type="qcurve"/>
      <point x="195" y="-7"/>
      <point x="82" y="112"/>
      <point x="82" y="241" type="qcurve"/>
      <point x="82" y="627" type="line"/>
      <point x="120" y="627" type="line"/>
      <point x="120" y="241" type="line" smooth="yes"/>
      <point x="120" y="125"/>
      <point x="211" y="29"/>
      <point x="317" y="29" type="qcurve"/>
      <point x="427" y="29"/>
      <point x="521" y="126"/>
    </contour>
    <contour>
      <point x="316" y="645" type="move" name="top"/>
    </contour>
    <contour>
      <point x="447" y="17" type="move" name="ogonekalt"/>
    </contour>
  </outline>
</glyph>
<glyph name="V" format="1">
  <advance width="576"/>
  <unicode hex="0056"/>
  <outline>
    <contour>
      <point x="267" y="0" type="line"/>
      <point x="19" y="627" type="line"/>
      <point x="60" y="627" type="line"/>
      <point x="238" y="171" type="line" smooth="yes"/>
      <point x="256" y="125"/>
      <point x="279" y="59"/>
      <point x="288" y="30" type="qcurve"/>
      <point x="295" y="52"/>
      <point x="313" y="104"/>
      <point x="339" y="171" type="qcurve"/>
      <point x="516" y="627" type="line"/>
      <point x="556" y="627" type="line"/>
      <point x="309" y="0" type="line"/>
    </contour>
  </outline>
</glyph>
<glyph name="W" format="1">
  <advance width="863"/>
  <unicode hex="0057"/>
  <outline>
    <contour>
      <point x="205" y="0" type="line"/>
      <point x="25" y="627" type="line"/>
      <point x="65" y="627" type="line"/>
      <point x="194" y="171" type="line" smooth="yes"/>
      <point x="203" y="142"/>
      <point x="225" y="43"/>
      <point x="227" y="36" type="qcurve"/>
      <point x="241" y="91"/>
      <point x="260" y="159"/>
      <point x="264" y="171" type="qcurve"/>
      <point x="412" y="627" type="line"/>
      <point x="451" y="627" type="line"/>
      <point x="600" y="171" type="line" smooth="yes"/>
      <point x="605" y="156"/>
      <point x="623" y="88"/>
      <point x="637" y="35" type="qcurve"/>
      <point x="656" y="118"/>
      <point x="666" y="155"/>
      <point x="671" y="171" type="qcurve"/>
      <point x="799" y="627" type="line"/>
      <point x="838" y="627" type="line"/>
      <point x="658" y="0" type="line"/>
      <point x="617" y="0" type="line"/>
      <point x="472" y="435" type="line" smooth="yes"/>
      <point x="462" y="465"/>
      <point x="443" y="535"/>
      <point x="431" y="581" type="qcurve"/>
      <point x="422" y="541"/>
      <point x="402" y="469"/>
      <point x="391" y="435" type="qcurve"/>
      <point x="246" y="0" type="line"/>
    </contour>
    <contour>
      <point x="432" y="645" type="move" name="top"/>
    </contour>
  </outline>
</glyph>
<glyph name="X" format="1">
  <advance width="537"/>
  <unicode hex="0058"/>
  <outline>
    <contour>
      <point x="287" y="324" type="line"/>
      <point x="524" y="0" type="line"/>
      <point x="478" y="0" type="line"/>
      <point x="264" y="295" type="line"/>
      <point x="61" y="0" type="line"/>
      <point x="18" y="0" type="line"/>
      <point x="243" y="323" type="line"/>
      <point x="26" y="627" type="line"/>
      <point x="71" y="627" type="line"/>
      <point x="265" y="351" type="line"/>
      <point x="461" y="627" type="line"/>
      <point x="503" y="627" type="line"/>
    </contour>
    <contour>
      <point x="265" y="645" type="move" name="top"/>
    </contour>
  </outline>
</glyph>
<glyph name="Y" format="1">
  <advance width="566"/>
  <unicode hex="0059"/>
  <outline>
    <contour>
      <point x="506" y="627" type="line"/>
      <point x="545" y="627" type="line"/>
      <point x="303" y="245" type="line"/>
      <point x="303" y="0" type="line"/>
      <point x="265" y="0" type="line"/>
      <point x="265" y="245" type="line"/>
      <point x="17" y="627" type="line"/>
      <point x="58" y="627" type="line"/>
      <point x="285" y="280" type="line"/>
    </contour>
    <contour>
      <point x="285" y="645" type="move" name="top"/>
    </contour>
  </outline>
</glyph>
<glyph name="Z" format="1">
  <advance width="508"/>
  <unicode hex="005A"/>
  <outline>
    <contour>
      <point x="484" y="35" type="line"/>
      <point x="484" y="0" type="line"/>
      <point x="27" y="0" type="line"/>
      <point x="27" y="35" type="line"/>
      <point x="422" y="592" type="line"/>
      <point x="56" y="592" type="line"/>
      <point x="56" y="627" type="line"/>
      <point x="465" y="627" type="line"/>
      <point x="465" y="592" type="line"/>
      <point x="71" y="35" type="line"/>
    </contour>
    <contour>
      <point x="261" y="645" type="move" name="top"/>
    </contour>
  </outline>
</glyph>
<glyph name="bracketleft" format="1">
  <advance width="280"/>
  <unicode hex="005B"/>
  <outline>
    <contour>
      <point x="251" y="-51" type="line"/>
      <point x="251" y="-82" type="line"/>
      <point x="86" y="-82" type="line"/>
      <point x="86" y="707" type="line"/>
      <point x="251" y="707" type="line"/>
      <point x="251" y="676" type="line"/>
      <point x="118" y="676" type="line"/>
      <point x="118" y="-51" type="line"/>
    </contour>
  </outline>
</glyph>
<glyph name="backslash" format="1">
  <advance width="295"/>
  <unicode hex="005C"/>
  <outline>
    <contour>
      <point x="64" y="707" type="line"/>
      <point x="265" y="-80" type="line"/>
      <point x="231" y="-80" type="line"/>
      <point x="30" y="707" type="line"/>
    </contour>
  </outline>
</glyph>
<glyph name="bracketright" format="1">
  <advance width="280"/>
  <unicode hex="005D"/>
  <outline>
    <contour>
      <point x="194" y="-82" type="line"/>
      <point x="29" y="-82" type="line"/>
      <point x="29" y="-51" type="line"/>
      <point x="162" y="-51" type="line"/>
      <point x="162" y="676" type="line"/>
      <point x="29" y="676" type="line"/>
      <point x="29" y="707" type="line"/>
      <point x="194" y="707" type="line"/>
    </contour>
  </outline>
</glyph>
<glyph name="asciicircum" format="1">
  <advance width="500"/>
  <unicode hex="005E"/>
  <outline>
    <contour>
      <point x="128" y="365" type="line"/>
      <point x="91" y="365" type="line"/>
      <point x="232" y="627" type="line"/>
      <point x="268" y="627" type="line"/>
      <point x="408" y="365" type="line"/>
      <point x="372" y="365" type="line"/>
      <point x="250" y="596" type="line"/>
    </contour>
  </outline>
</glyph>
<glyph name="a" format="1">
  <advance width="498"/>
  <unicode hex="0061"/>
  <outline>
    <contour>
      <point x="191" y="-7" type="qcurve"/>
      <point x="115" y="-7"/>
      <point x="44" y="65"/>
      <point x="44" y="142" type="qcurve"/>
      <point x="44" y="218"/>
      <point x="130" y="282"/>
      <point x="233" y="282" type="qcurve"/>
      <point x="271" y="282"/>
      <point x="344" y="276"/>
      <point x="386" y="269" type="qcurve"/>
      <point x="386" y="327" type="line" smooth="yes"/>
      <point x="386" y="406"/>
      <point x="319" y="471"/>
      <point x="244" y="471" type="qcurve" smooth="yes"/>
      <point x="200" y="471"/>
      <point x="132" y="463"/>
      <point x="95" y="453" type="qcurve"/>
      <point x="95" y="486" type="line"/>
      <point x="138" y="496"/>
      <point x="207" y="504"/>
      <point x="255" y="504" type="qcurve" smooth="yes"/>
      <point x="342" y="504"/>
      <point x="422" y="421"/>
      <point x="422" y="329" type="qcurve"/>
      <point x="422" y="0" type="line"/>
      <point x="391" y="0" type="line"/>
      <point x="388" y="53" type="line"/>
      <point x="387" y="53" type="line"/>
      <point x="356" y="26"/>
      <point x="248" y="-7"/>
    </contour>
    <contour>
      <point x="235" y="251" type="qcurve"/>
      <point x="148" y="251"/>
      <point x="78" y="203"/>
      <point x="78" y="144" type="qcurve"/>
      <point x="78" y="82"/>
      <point x="136" y="27"/>
      <point x="201" y="27" type="qcurve"/>
      <point x="253" y="27"/>
      <point x="357" y="59"/>
      <point x="386" y="83" type="qcurve"/>
      <point x="386" y="238" type="line"/>
      <point x="351" y="244"/>
      <point x="276" y="251"/>
    </contour>
    <contour>
      <point x="247" y="530" type="move" name="top"/>
    </contour>
    <contour>
      <point x="422" y="0" type="move" name="ogonek"/>
    </contour>
  </outline>
</glyph>
<glyph name="b" format="1">
  <advance width="543"/>
  <unicode hex="0062"/>
  <outline>
    <contour>
      <point x="292" y="504" type="qcurve"/>
      <point x="396" y="504"/>
      <point x="486" y="383"/>
      <point x="486" y="249" type="qcurve" smooth="yes"/>
      <point x="486" y="111"/>
      <point x="379" y="-7"/>
      <point x="250" y="-7" type="qcurve"/>
      <point x="202" y="-7"/>
      <point x="115" y="6"/>
      <point x="79" y="18" type="qcurve"/>
      <point x="79" y="665" type="line"/>
      <point x="115" y="665" type="line"/>
      <point x="115" y="453" type="line"/>
      <point x="153" y="478"/>
      <point x="242" y="504"/>
    </contour>
    <contour>
      <point x="450" y="249" type="qcurve" smooth="yes"/>
      <point x="450" y="370"/>
      <point x="375" y="471"/>
      <point x="281" y="471" type="qcurve"/>
      <point x="234" y="471"/>
      <point x="147" y="444"/>
      <point x="115" y="419" type="qcurve"/>
      <point x="115" y="45" type="line"/>
      <point x="141" y="36"/>
      <point x="210" y="27"/>
      <point x="248" y="27" type="qcurve"/>
      <point x="363" y="27"/>
      <point x="450" y="127"/>
    </contour>
  </outline>
</glyph>
<glyph name="c" format="1">
  <advance width="450"/>
  <unicode hex="0063"/>
  <outline>
    <contour>
      <point x="415" y="62" type="qcurve"/>
      <point x="415" y="30" type="line"/>
      <point x="389" y="14"/>
      <point x="296" y="-7"/>
      <point x="244" y="-7" type="qcurve"/>
      <point x="140" y="-7"/>
      <point x="57" y="107"/>
      <point x="57" y="249" type="qcurve" smooth="yes"/>
      <point x="57" y="386"/>
      <point x="165" y="504"/>
      <point x="292" y="504" type="qcurve"/>
      <point x="317" y="504"/>
      <point x="358" y="502"/>
      <point x="402" y="495" type="qcurve"/>
      <point x="402" y="462" type="line"/>
      <point x="368" y="468"/>
      <point x="322" y="471"/>
      <point x="292" y="471" type="qcurve"/>
      <point x="182" y="471"/>
      <point x="93" y="371"/>
      <point x="93" y="249" type="qcurve" smooth="yes"/>
      <point x="93" y="123"/>
      <point x="162" y="27"/>
      <point x="252" y="27" type="qcurve"/>
      <point x="296" y="27"/>
      <point x="387" y="47"/>
    </contour>
    <contour>
      <point x="270" y="530" type="move" name="top"/>
    </contour>
    <contour>
      <point x="250" y="0" type="move" name="bottom"/>
    </contour>
  </outline>
</glyph>
<glyph name="d" format="1">
  <advance width="544"/>
  <unicode hex="0064"/>
  <outline>
    <contour>
      <point x="428" y="665" type="line"/>
      <point x="464" y="665" type="line"/>
      <point x="464" y="0" type="line"/>
      <point x="434" y="0" type="line"/>
      <point x="431" y="49" type="line"/>
      <point x="428" y="49" type="line"/>
      <point x="428" y="49" type="line"/>
      <point x="394" y="21"/>
      <point x="306" y="-7"/>
      <point x="251" y="-7" type="qcurve"/>
      <point x="147" y="-7"/>
      <point x="57" y="114"/>
      <point x="57" y="249" type="qcurve" smooth="yes"/>
      <point x="57" y="386"/>
      <point x="164" y="504"/>
      <point x="292" y="504" type="qcurve"/>
      <point x="332" y="504"/>
      <point x="398" y="492"/>
      <point x="428" y="480" type="qcurve"/>
    </contour>
    <contour>
      <point x="295" y="471" type="qcurve"/>
      <point x="180" y="471"/>
      <point x="93" y="371"/>
      <point x="93" y="249" type="qcurve" smooth="yes"/>
      <point x="93" y="128"/>
      <point x="168" y="27"/>
      <point x="262" y="27" type="qcurve"/>
      <point x="311" y="27"/>
      <point x="396" y="53"/>
      <point x="428" y="79" type="qcurve"/>
      <point x="428" y="447" type="line"/>
      <point x="399" y="459"/>
      <point x="334" y="471"/>
    </contour>
    <contour>
      <point x="549" y="665" type="move" name="caronalt"/>
    </contour>
  </outline>
</glyph>
<glyph name="e" format="1">
  <advance width="502"/>
  <unicode hex="0065"/>
  <outline>
    <contour>
      <point x="430" y="60" type="qcurve"/>
      <point x="430" y="27" type="line"/>
      <point x="402" y="13"/>
      <point x="310" y="-7"/>
      <point x="265" y="-7" type="qcurve" smooth="yes"/>
      <point x="153" y="-7"/>
      <point x="57" y="113"/>
      <point x="57" y="251" type="qcurve" smooth="yes"/>
      <point x="57" y="384"/>
      <point x="154" y="504"/>
      <point x="264" y="504" type="qcurve"/>
      <point x="362" y="504"/>
      <point x="451" y="407"/>
      <point x="451" y="301" type="qcurve"/>
      <point x="451" y="286"/>
      <point x="449" y="255"/>
      <point x="446" y="239" type="qcurve"/>
      <point x="93" y="239" type="line"/>
      <point x="93" y="126"/>
      <point x="174" y="27"/>
      <point x="272" y="27" type="qcurve" smooth="yes"/>
      <point x="312" y="27"/>
      <point x="402" y="46"/>
    </contour>
    <contour>
      <point x="416" y="304" type="qcurve"/>
      <point x="416" y="393"/>
      <point x="344" y="471"/>
      <point x="264" y="471" type="qcurve"/>
      <point x="172" y="471"/>
      <point x="93" y="378"/>
      <point x="93" y="271" type="qcurve"/>
      <point x="415" y="271" type="line"/>
      <point x="415" y="273"/>
      <point x="415" y="278"/>
      <point x="415" y="283" type="qcurve" smooth="yes"/>
      <point x="416" y="291"/>
      <point x="416" y="300"/>
    </contour>
    <contour>
      <point x="265" y="530" type="move" name="top"/>
    </contour>
    <contour>
      <point x="392" y="14" type="move" name="ogonekalt"/>
    </contour>
  </outline>
</glyph>
<glyph name="f" format="1">
  <advance width="349"/>
  <unicode hex="0066"/>
  <outline>
    <contour>
      <point x="109" y="462" type="line"/>
      <point x="25" y="462" type="line"/>
      <point x="25" y="494" type="line"/>
      <point x="109" y="494" type="line"/>
      <point x="109" y="515" type="line"/>
      <point x="109" y="599"/>
      <point x="185" y="675"/>
      <point x="266" y="675" type="qcurve"/>
      <point x="288" y="675"/>
      <point x="326" y="672"/>
      <point x="344" y="668" type="qcurve"/>
      <point x="344" y="636" type="line"/>
      <point x="332" y="639"/>
      <point x="289" y="642"/>
      <point x="266" y="642" type="qcurve"/>
      <point x="200" y="642"/>
      <point x="145" y="585"/>
      <point x="145" y="515" type="qcurve"/>
      <point x="145" y="494" type="line"/>
      <point x="329" y="494" type="line"/>
      <point x="329" y="462" type="line"/>
      <point x="145" y="462" type="line"/>
      <point x="145" y="0" type="line"/>
      <point x="109" y="0" type="line"/>
    </contour>
  </outline>
</glyph>
<glyph name="g" format="1">
  <advance width="539"/>
  <unicode hex="0067"/>
  <outline>
    <contour>
      <point x="271" y="-162" type="qcurve"/>
      <point x="225" y="-162"/>
      <point x="145" y="-150"/>
      <point x="116" y="-139" type="qcurve"/>
      <point x="116" y="-105" type="line"/>
      <point x="137" y="-114"/>
      <point x="222" y="-128"/>
      <point x="264" y="-128" type="qcurve"/>
      <point x="353" y="-128"/>
      <point x="423" y="-52"/>
      <point x="423" y="48" type="qcurve"/>
      <point x="423" y="86" type="line"/>
      <point x="386" y="60"/>
      <point x="299" y="34"/>
      <point x="249" y="34" type="qcurve"/>
      <point x="146" y="34"/>
      <point x="57" y="145"/>
      <point x="57" y="269" type="qcurve" smooth="yes"/>
      <point x="57" y="396"/>
      <point x="163" y="504"/>
      <point x="293" y="504" type="qcurve"/>
      <point x="334" y="504"/>
      <point x="418" y="494"/>
      <point x="459" y="485" type="qcurve"/>
      <point x="459" y="55" type="line" smooth="yes"/>
      <point x="459" y="-66"/>
      <point x="374" y="-162"/>
    </contour>
    <contour>
      <point x="293" y="471" type="qcurve"/>
      <point x="179" y="471"/>
      <point x="93" y="381"/>
      <point x="93" y="269" type="qcurve" smooth="yes"/>
      <point x="93" y="160"/>
      <point x="166" y="68"/>
      <point x="259" y="68" type="qcurve"/>
      <point x="305" y="68"/>
      <point x="389" y="93"/>
      <point x="423" y="118" type="qcurve"/>
      <point x="423" y="457" type="line"/>
      <point x="393" y="464"/>
      <point x="326" y="471"/>
    </contour>
    <contour>
      <point x="274" y="530" type="move" name="top"/>
    </contour>
  </outline>
</glyph>
<glyph name="h" format="1">
  <advance width="552"/>
  <unicode hex="0068"/>
  <outline>
    <contour>
      <point x="116" y="0" type="line"/>
      <point x="80" y="0" type="line"/>
      <point x="80" y="665" type="line"/>
      <point x="116" y="665" type="line"/>
      <point x="116" y="448" type="line"/>
      <point x="170" y="478"/>
      <point x="263" y="504"/>
      <point x="312" y="504" type="qcurve" smooth="yes"/>
      <point x="392" y="504"/>
      <point x="476" y="422"/>
      <point x="476" y="342" type="qcurve"/>
      <point x="476" y="0" type="line"/>
      <point x="440" y="0" type="line"/>
      <point x="440" y="339" type="line" smooth="yes"/>
      <point x="440" y="407"/>
      <point x="372" y="471"/>
      <point x="300" y="471" type="qcurve" smooth="yes"/>
      <point x="257" y="471"/>
      <point x="164" y="444"/>
      <point x="116" y="418" type="qcurve"/>
    </contour>
    <contour>
      <point x="99" y="680" type="move" name="top"/>
    </contour>
  </outline>
</glyph>
<glyph name="i" format="1">
  <advance width="196"/>
  <unicode hex="0069"/>
  <outline>
    <contour>
      <point x="118" y="618" type="line"/>
      <point x="78" y="618" type="line"/>
      <point x="78" y="664" type="line"/>
      <point x="118" y="664" type="line"/>
    </contour>
    <contour>
      <point x="116" y="0" type="line"/>
      <point x="80" y="0" type="line"/>
      <point x="80" y="494" type="line"/>
      <point x="116" y="494" type="line"/>
    </contour>
    <contour>
      <point x="116" y="0" type="move" name="ogonek"/>
    </contour>
  </outline>
</glyph>
<glyph name="k" format="1">
  <advance width="479"/>
  <unicode hex="006B"/>
  <outline>
    <contour>
      <point x="116" y="233" type="line"/>
      <point x="116" y="0" type="line"/>
      <point x="80" y="0" type="line"/>
      <point x="80" y="665" type="line"/>
      <point x="116" y="665" type="line"/>
      <point x="116" y="266" type="line"/>
      <point x="193" y="266" type="line"/>
      <point x="404" y="494" type="line"/>
      <point x="451" y="494" type="line"/>
      <point x="224" y="253" type="line"/>
      <point x="461" y="0" type="line"/>
      <point x="412" y="0" type="line"/>
      <point x="196" y="233" type="line"/>
    </contour>
    <contour>
      <point x="247" y="0" type="move" name="bottom"/>
    </contour>
  </outline>
</glyph>
<glyph name="l" format="1">
  <advance width="196"/>
  <unicode hex="006C"/>
  <outline>
    <contour>
      <point x="116" y="665" type="line"/>
      <point x="116" y="0" type="line"/>
      <point x="80" y="0" type="line"/>
      <point x="80" y="665" type="line"/>
    </contour>
    <contour>
      <point x="98" y="680" type="move" name="top"/>
    </contour>
    <contour>
      <point x="201" y="665" type="move" name="caronalt"/>
    </contour>
    <contour>
      <point x="98" y="0" type="move" name="bottom"/>
    </contour>
  </outline>
</glyph>
<glyph name="m" format="1">
  <advance width="809"/>
  <unicode hex="006D"/>
  <outline>
    <contour>
      <point x="116" y="0" type="line"/>
      <point x="80" y="0" type="line"/>
      <point x="80" y="494" type="line"/>
      <point x="111" y="494" type="line"/>
      <point x="114" y="450" type="line"/>
      <point x="117" y="450" type="line"/>
      <point x="173" y="482"/>
      <point x="244" y="504"/>
      <point x="281" y="504" type="qcurve" smooth="yes"/>
      <point x="324" y="504"/>
      <point x="386" y="476"/>
      <point x="404" y="449" type="qcurve"/>
      <point x="406" y="449" type="line"/>
      <point x="457" y="479"/>
      <point x="543" y="504"/>
      <point x="589" y="504" type="qcurve" smooth="yes"/>
      <point x="659" y="504"/>
      <point x="733" y="433"/>
      <point x="733" y="365" type="qcurve"/>
      <point x="733" y="0" type="line"/>
      <point x="697" y="0" type="line"/>
      <point x="697" y="362" type="line" smooth="yes"/>
      <point x="697" y="418"/>
      <point x="638" y="471"/>
      <point x="575" y="471" type="qcurve" smooth="yes"/>
      <point x="538" y="471"/>
      <point x="458" y="446"/>
      <point x="416" y="422" type="qcurve"/>
      <point x="421" y="410"/>
      <point x="425" y="382"/>
      <point x="425" y="365" type="qcurve"/>
      <point x="425" y="0" type="line"/>
      <point x="389" y="0" type="line"/>
      <point x="389" y="362" type="line" smooth="yes"/>
      <point x="389" y="418"/>
      <point x="330" y="471"/>
      <point x="267" y="471" type="qcurve" smooth="yes"/>
      <point x="236" y="471"/>
      <point x="168" y="448"/>
      <point x="116" y="419" type="qcurve"/>
    </contour>
  </outline>
</glyph>
<glyph name="n" format="1">
  <advance width="553"/>
  <unicode hex="006E"/>
  <outline>
    <contour>
      <point x="116" y="0" type="line"/>
      <point x="80" y="0" type="line"/>
      <point x="80" y="494" type="line"/>
      <point x="110" y="494" type="line"/>
      <point x="113" y="446" type="line"/>
      <point x="116" y="446" type="line"/>
      <point x="116" y="446" type="line"/>
      <point x="170" y="477"/>
      <point x="262" y="504"/>
      <point x="312" y="504" type="qcurve" smooth="yes"/>
      <point x="393" y="504"/>
      <point x="476" y="422"/>
      <point x="476" y="342" type="qcurve"/>
      <point x="476" y="0" type="line"/>
      <point x="440" y="0" type="line"/>
      <point x="440" y="339" type="line" smooth="yes"/>
      <point x="440" y="406"/>
      <point x="371" y="471"/>
      <point x="299" y="471" type="qcurve" smooth="yes"/>
      <point x="257" y="471"/>
      <point x="167" y="444"/>
      <point x="116" y="416" type="qcurve"/>
    </contour>
    <contour>
      <point x="278" y="530" type="move" name="top"/>
    </contour>
    <contour>
      <point x="4" y="665" type="move" name="caronalt"/>
    </contour>
    <contour>
      <point x="277" y="0" type="move" name="bottom"/>
    </contour>
  </outline>
</glyph>
<glyph name="o" format="1">
  <advance width="551"/>
  <unicode hex="006F"/>
  <outline>
    <contour>
      <point x="493" y="249" type="qcurve" smooth="yes"/>
      <point x="493" y="107"/>
      <point x="396" y="-7"/>
      <point x="276" y="-7" type="qcurve" smooth="yes"/>
      <point x="149" y="-7"/>
      <point x="58" y="100"/>
      <point x="58" y="249" type="qcurve" smooth="yes"/>
      <point x="58" y="390"/>
      <point x="155" y="504"/>
      <point x="276" y="504" type="qcurve" smooth="yes"/>
      <point x="402" y="504"/>
      <point x="493" y="397"/>
    </contour>
    <contour>
      <point x="94" y="249" type="qcurve" smooth="yes"/>
      <point x="94" y="116"/>
      <point x="167" y="27"/>
      <point x="276" y="27" type="qcurve" smooth="yes"/>
      <point x="380" y="27"/>
      <point x="457" y="122"/>
      <point x="457" y="249" type="qcurve" smooth="yes"/>
      <point x="457" y="382"/>
      <point x="384" y="471"/>
      <point x="276" y="471" type="qcurve" smooth="yes"/>
      <point x="172" y="471"/>
      <point x="94" y="376"/>
    </contour>
    <contour>
      <point x="276" y="530" type="move" name="top"/>
    </contour>
  </outline>
</glyph>
<glyph name="q" format="1">
  <advance width="544"/>
  <unicode hex="0071"/>
  <outline>
    <contour>
      <point x="464" y="485" type="qcurve"/>
      <point x="464" y="-152" type="line"/>
      <point x="428" y="-152" type="line"/>
      <point x="428" y="45" type="line"/>
      <point x="392" y="19"/>
      <point x="303" y="-7"/>
      <point x="250" y="-7" type="qcurve"/>
      <point x="147" y="-7"/>
      <point x="57" y="114"/>
      <point x="57" y="249" type="qcurve" smooth="yes"/>
      <point x="57" y="387"/>
      <point x="164" y="504"/>
      <point x="295" y="504" type="qcurve"/>
      <point x="340" y="504"/>
      <point x="426" y="494"/>
    </contour>
    <contour>
      <point x="295" y="471" type="qcurve"/>
      <point x="180" y="471"/>
      <point x="93" y="372"/>
      <point x="93" y="249" type="qcurve" smooth="yes"/>
      <point x="93" y="128"/>
      <point x="167" y="27"/>
      <point x="261" y="27" type="qcurve"/>
      <point x="309" y="27"/>
      <point x="395" y="53"/>
      <point x="428" y="77" type="qcurve"/>
      <point x="428" y="457" type="line"/>
      <point x="397" y="464"/>
      <point x="329" y="471"/>
    </contour>
  </outline>
</glyph>
<glyph name="r" format="1">
  <advance width="350"/>
  <unicode hex="0072"/>
  <outline>
    <contour>
      <point x="116" y="0" type="line"/>
      <point x="80" y="0" type="line"/>
      <point x="80" y="494" type="line"/>
      <point x="111" y="494" type="line"/>
      <point x="114" y="448" type="line"/>
      <point x="117" y="448" type="line"/>
      <point x="160" y="472"/>
      <point x="248" y="497"/>
      <point x="289" y="497" type="qcurve"/>
      <point x="299" y="497"/>
      <point x="321" y="496"/>
      <point x="327" y="495" type="qcurve"/>
      <point x="327" y="460" type="line"/>
      <point x="320" y="462"/>
      <point x="298" y="463"/>
      <point x="279" y="463" type="qcurve"/>
      <point x="241" y="463"/>
      <point x="154" y="438"/>
      <point x="116" y="416" type="qcurve"/>
    </contour>
    <contour>
      <point x="204" y="529" type="move" name="top"/>
    </contour>
    <contour>
      <point x="98" y="0" type="move" name="bottom"/>
    </contour>
  </outline>
</glyph>
<glyph name="s" format="1">
  <advance width="446"/>
  <unicode hex="0073"/>
  <outline>
    <contour>
      <point x="235" y="471" type="qcurve" smooth="yes"/>
      <point x="158" y="471"/>
      <point x="93" y="424"/>
      <point x="93" y="360" type="qcurve" smooth="yes"/>
      <point x="93" y="326"/>
      <point x="124" y="291"/>
      <point x="159" y="285" type="qcurve"/>
      <point x="291" y="264" type="line" smooth="yes"/>
      <point x="354" y="254"/>
      <point x="402" y="201"/>
      <point x="402" y="142" type="qcurve" smooth="yes"/>
      <point x="402" y="64"/>
      <point x="323" y="-7"/>
      <point x="236" y="-7" type="qcurve" smooth="yes"/>
      <point x="179" y="-7"/>
      <point x="79" y="7"/>
      <point x="49" y="18" type="qcurve"/>
      <point x="49" y="53" type="line"/>
      <point x="79" y="41"/>
      <point x="177" y="27"/>
      <point x="232" y="27" type="qcurve" smooth="yes"/>
      <point x="305" y="27"/>
      <point x="366" y="80"/>
      <point x="366" y="141" type="qcurve" smooth="yes"/>
      <point x="366" y="184"/>
      <point x="329" y="222"/>
      <point x="278" y="231" type="qcurve"/>
      <point x="147" y="252" type="line" smooth="yes"/>
      <point x="100" y="260"/>
      <point x="57" y="311"/>
      <point x="57" y="359" type="qcurve" smooth="yes"/>
      <point x="57" y="437"/>
      <point x="141" y="504"/>
      <point x="233" y="504" type="qcurve" smooth="yes"/>
      <point x="261" y="504"/>
      <point x="309" y="502"/>
      <point x="368" y="494" type="qcurve"/>
      <point x="368" y="461" type="line"/>
      <point x="332" y="466"/>
      <point x="268" y="471"/>
    </contour>
    <contour>
      <point x="231" y="530" type="move" name="top"/>
    </contour>
    <contour>
      <point x="216" y="0" type="move" name="bottom"/>
    </contour>
  </outline>
</glyph>
<glyph name="t" format="1">
  <advance width="367"/>
  <unicode hex="0074"/>
  <outline>
    <contour>
      <point x="351" y="38" type="qcurve"/>
      <point x="351" y="7" type="line"/>
      <point x="333" y="0"/>
      <point x="286" y="-7"/>
      <point x="261" y="-7" type="qcurve" smooth="yes"/>
      <point x="177" y="-7"/>
      <point x="108" y="70"/>
      <point x="108" y="170" type="qcurve"/>
      <point x="108" y="462" type="line"/>
      <point x="23" y="462" type="line"/>
      <point x="23" y="494" type="line"/>
      <point x="108" y="494" type="line"/>
      <point x="115" y="618" type="line"/>
      <point x="144" y="618" type="line"/>
      <point x="144" y="494" type="line"/>
      <point x="345" y="494" type="line"/>
      <point x="345" y="462" type="line"/>
      <point x="144" y="462" type="line"/>
      <point x="144" y="171" type="line" smooth="yes"/>
      <point x="144" y="88"/>
      <point x="199" y="27"/>
      <point x="268" y="27" type="qcurve" smooth="yes"/>
      <point x="289" y="27"/>
      <point x="337" y="33"/>
    </contour>
    <contour>
      <point x="229" y="716" type="move" name="caronalt"/>
    </contour>
    <contour>
      <point x="237" y="0" type="move" name="bottom"/>
    </contour>
  </outline>
</glyph>
<glyph name="u" format="1">
  <advance width="541"/>
  <unicode hex="0075"/>
  <outline>
    <contour>
      <point x="239" y="-7" type="qcurve" smooth="yes"/>
      <point x="158" y="-7"/>
      <point x="76" y="75"/>
      <point x="76" y="156" type="qcurve"/>
      <point x="76" y="494" type="line"/>
      <point x="112" y="494" type="line"/>
      <point x="112" y="159" type="line" smooth="yes"/>
      <point x="112" y="91"/>
      <point x="179" y="27"/>
      <point x="251" y="27" type="qcurve" smooth="yes"/>
      <point x="293" y="27"/>
      <point x="380" y="53"/>
      <point x="425" y="80" type="qcurve"/>
      <point x="425" y="494" type="line"/>
      <point x="461" y="494" type="line"/>
      <point x="461" y="0" type="line"/>
      <point x="430" y="0" type="line"/>
      <point x="427" y="50" type="line"/>
      <point x="426" y="50" type="line"/>
      <point x="376" y="21"/>
      <point x="284" y="-7"/>
    </contour>
    <contour>
      <point x="268" y="520" type="move" name="top"/>
    </contour>
    <contour>
      <point x="461" y="0" type="move" name="ogonek"/>
    </contour>
  </outline>
</glyph>
<glyph name="v" format="1">
  <advance width="489"/>
  <unicode hex="0076"/>
  <outline>
    <contour>
      <point x="428" y="494" type="line"/>
      <point x="468" y="494" type="line"/>
      <point x="265" y="0" type="line"/>
      <point x="224" y="0" type="line"/>
      <point x="20" y="494" type="line"/>
      <point x="61" y="494" type="line"/>
      <point x="245" y="34" type="line"/>
    </contour>
  </outline>
</glyph>
<glyph name="w" format="1">
  <advance width="690"/>
  <unicode hex="0077"/>
  <outline>
    <contour>
      <point x="622" y="494" type="line"/>
      <point x="661" y="494" type="line"/>
      <point x="521" y="0" type="line"/>
      <point x="477" y="0" type="line"/>
      <point x="339" y="452" type="line"/>
      <point x="212" y="0" type="line"/>
      <point x="168" y="0" type="line"/>
      <point x="29" y="494" type="line"/>
      <point x="68" y="494" type="line"/>
      <point x="190" y="38" type="line"/>
      <point x="317" y="494" type="line"/>
      <point x="360" y="494" type="line"/>
      <point x="499" y="38" type="line"/>
    </contour>
    <contour>
      <point x="339" y="520" type="move" name="top"/>
    </contour>
  </outline>
</glyph>
<glyph name="x" format="1">
  <advance width="435"/>
  <unicode hex="0078"/>
  <outline>
    <contour>
      <point x="239" y="257" type="line"/>
      <point x="413" y="0" type="line"/>
      <point x="371" y="0" type="line"/>
      <point x="216" y="231" type="line"/>
      <point x="63" y="0" type="line"/>
      <point x="22" y="0" type="line"/>
      <point x="195" y="256" type="line"/>
      <point x="33" y="494" type="line"/>
      <point x="76" y="494" type="line"/>
      <point x="218" y="282" type="line"/>
      <point x="361" y="494" type="line"/>
      <point x="402" y="494" type="line"/>
    </contour>
    <contour>
      <point x="218" y="520" type="move" name="top"/>
    </contour>
  </outline>
</glyph>
<glyph name="y" format="1">
  <advance width="491"/>
  <unicode hex="0079"/>
  <outline>
    <contour>
      <point x="193" y="-84" type="qcurve" smooth="yes"/>
      <point x="200" y="-74"/>
      <point x="213" y="-43"/>
      <point x="232" y="5" type="qcurve"/>
      <point x="18" y="494" type="line"/>
      <point x="59" y="494" type="line"/>
      <point x="251" y="43" type="line"/>
      <point x="431" y="494" type="line"/>
      <point x="470" y="494" type="line"/>
      <point x="249" y="-49" type="line" smooth="yes"/>
      <point x="223" y="-116"/>
      <point x="165" y="-162"/>
      <point x="119" y="-162" type="qcurve"/>
      <point x="101" y="-162"/>
      <point x="70" y="-159"/>
      <point x="55" y="-155" type="qcurve"/>
      <point x="55" y="-122" type="line"/>
      <point x="69" y="-126"/>
      <point x="99" y="-129"/>
      <point x="115" y="-129" type="qcurve"/>
      <point x="143" y="-129"/>
      <point x="179" y="-109"/>
    </contour>
    <contour>
      <point x="251" y="520" type="move" name="top"/>
    </contour>
  </outline>
</glyph>
<glyph name="z" format="1">
  <advance width="425"/>
  <unicode hex="007A"/>
  <outline>
    <contour>
      <point x="396" y="33" type="line"/>
      <point x="396" y="0" type="line"/>
      <point x="34" y="0" type="line"/>
      <point x="34" y="33" type="line"/>
      <point x="338" y="462" type="line"/>
      <point x="52" y="462" type="line"/>
      <point x="52" y="494" type="line"/>
      <point x="379" y="494" type="line"/>
      <point x="379" y="462" type="line"/>
      <point x="75" y="33" type="line"/>
    </contour>
    <contour>
      <point x="215" y="520" type="move" name="top"/>
    </contour>
  </outline>
</glyph>
<glyph name="braceleft" format="1">
  <advance width="292"/>
  <unicode hex="007B"/>
  <outline>
    <contour>
      <point x="68" y="317" type="qcurve"/>
      <point x="68" y="315" type="line"/>
      <point x="106" y="308"/>
      <point x="150" y="225"/>
      <point x="150" y="157" type="qcurve"/>
      <point x="150" y="45" type="line"/>
      <point x="150" y="-7"/>
      <point x="208" y="-61"/>
      <point x="265" y="-61" type="qcurve"/>
      <point x="265" y="-92" type="line"/>
      <point x="194" y="-92"/>
      <point x="117" y="-20"/>
      <point x="117" y="45" type="qcurve"/>
      <point x="117" y="157" type="line" smooth="yes"/>
      <point x="117" y="224"/>
      <point x="67" y="300"/>
      <point x="29" y="300" type="qcurve"/>
      <point x="19" y="300" type="line"/>
      <point x="19" y="330" type="line"/>
      <point x="29" y="330" type="line"/>
      <point x="67" y="330"/>
      <point x="117" y="406"/>
      <point x="117" y="473" type="qcurve"/>
      <point x="117" y="581" type="line"/>
      <point x="117" y="646"/>
      <point x="194" y="718"/>
      <point x="265" y="718" type="qcurve"/>
      <point x="265" y="687" type="line"/>
      <point x="208" y="687"/>
      <point x="150" y="633"/>
      <point x="150" y="581" type="qcurve"/>
      <point x="150" y="473" type="line" smooth="yes"/>
      <point x="150" y="405"/>
      <point x="107" y="324"/>
    </contour>
  </outline>
</glyph>
<glyph name="braceright" format="1">
  <advance width="292"/>
  <unicode hex="007D"/>
  <outline>
    <contour>
      <point x="224" y="315" type="qcurve"/>
      <point x="224" y="317" type="line"/>
      <point x="185" y="324"/>
      <point x="142" y="405"/>
      <point x="142" y="473" type="qcurve"/>
      <point x="142" y="581" type="line"/>
      <point x="142" y="633"/>
      <point x="84" y="687"/>
      <point x="27" y="687" type="qcurve"/>
      <point x="27" y="718" type="line"/>
      <point x="98" y="718"/>
      <point x="175" y="646"/>
      <point x="175" y="581" type="qcurve"/>
      <point x="175" y="473" type="line" smooth="yes"/>
      <point x="175" y="406"/>
      <point x="225" y="330"/>
      <point x="263" y="330" type="qcurve"/>
      <point x="273" y="330" type="line"/>
      <point x="273" y="300" type="line"/>
      <point x="263" y="300" type="line"/>
      <point x="225" y="300"/>
      <point x="175" y="224"/>
      <point x="175" y="157" type="qcurve"/>
      <point x="175" y="45" type="line"/>
      <point x="175" y="-20"/>
      <point x="98" y="-92"/>
      <point x="27" y="-92" type="qcurve"/>
      <point x="27" y="-61" type="line"/>
      <point x="84" y="-61"/>
      <point x="142" y="-7"/>
      <point x="142" y="45" type="qcurve"/>
      <point x="142" y="157" type="line"/>
      <point x="142" y="225"/>
      <point x="186" y="308"/>
    </contour>
  </outline>
</glyph>
<glyph name="asciitilde" format="1">
  <advance width="657"/>
  <unicode hex="007E"/>
  <outline>
    <contour>
      <point x="565" y="457" type="qcurve"/>
      <point x="599" y="457" type="line"/>
      <point x="599" y="355"/>
      <point x="530" y="241"/>
      <point x="464" y="241" type="qcurve"/>
      <point x="432" y="241"/>
      <point x="371" y="280"/>
      <point x="320" y="342" type="qcurve" smooth="yes"/>
      <point x="275" y="397"/>
      <point x="226" y="430"/>
      <point x="201" y="430" type="qcurve"/>
      <point x="147" y="430"/>
      <point x="92" y="338"/>
      <point x="92" y="249" type="qcurve"/>
      <point x="58" y="249" type="line"/>
      <point x="58" y="350"/>
      <point x="133" y="465"/>
      <point x="202" y="465" type="qcurve"/>
      <point x="234" y="465"/>
      <point x="295" y="426"/>
      <point x="347" y="364" type="qcurve" smooth="yes"/>
      <point x="392" y="309"/>
      <point x="441" y="276"/>
      <point x="465" y="276" type="qcurve"/>
      <point x="513" y="276"/>
      <point x="565" y="372"/>
    </contour>
  </outline>
</glyph>
<glyph name="exclamdown" format="1">
  <advance width="194"/>
  <unicode hex="00A1"/>
  <outline>
    <contour>
      <point x="78" y="494" type="line"/>
      <point x="118" y="494" type="line"/>
      <point x="118" y="449" type="line"/>
      <point x="78" y="449" type="line"/>
    </contour>
    <contour>
      <point x="113" y="342" type="line"/>
      <point x="118" y="-133" type="line"/>
      <point x="77" y="-133" type="line"/>
      <point x="82" y="342" type="line"/>
    </contour>
  </outline>
</glyph>
<glyph name="cent" format="1">
  <advance width="450"/>
  <unicode hex="00A2"/>
  <outline>
    <contour>
      <point x="281" y="71" type="qcurve"/>
      <point x="281" y="-23" type="line"/>
      <point x="247" y="-23" type="line"/>
      <point x="247" y="69" type="line"/>
      <point x="245" y="69"/>
      <point x="240" y="69"/>
      <point x="238" y="69" type="qcurve"/>
      <point x="134" y="69"/>
      <point x="51" y="183"/>
      <point x="51" y="325" type="qcurve" smooth="yes"/>
      <point x="51" y="452"/>
      <point x="142" y="571"/>
      <point x="247" y="579" type="qcurve"/>
      <point x="247" y="669" type="line"/>
      <point x="281" y="669" type="line"/>
      <point x="281" y="580" type="line"/>
      <point x="286" y="580" type="line"/>
      <point x="311" y="580"/>
      <point x="352" y="578"/>
      <point x="396" y="571" type="qcurve"/>
      <point x="396" y="538" type="line"/>
      <point x="362" y="544"/>
      <point x="316" y="547"/>
      <point x="286" y="547" type="qcurve"/>
      <point x="176" y="547"/>
      <point x="87" y="447"/>
      <point x="87" y="325" type="qcurve" smooth="yes"/>
      <point x="87" y="199"/>
      <point x="156" y="103"/>
      <point x="246" y="103" type="qcurve"/>
      <point x="290" y="103"/>
      <point x="381" y="123"/>
      <point x="409" y="138" type="qcurve"/>
      <point x="409" y="106" type="line"/>
      <point x="388" y="93"/>
      <point x="320" y="74"/>
    </contour>
  </outline>
</glyph>
<glyph name="sterling" format="1">
  <advance width="507"/>
  <unicode hex="00A3"/>
  <outline>
    <contour>
      <point x="42" y="283" type="line"/>
      <point x="42" y="316" type="line"/>
      <point x="128" y="316" type="line"/>
      <point x="128" y="455" type="line" smooth="yes"/>
      <point x="128" y="547"/>
      <point x="217" y="637"/>
      <point x="309" y="637" type="qcurve" smooth="yes"/>
      <point x="344" y="637"/>
      <point x="409" y="629"/>
      <point x="452" y="618" type="qcurve"/>
      <point x="452" y="584" type="line"/>
      <point x="405" y="595"/>
      <point x="345" y="602"/>
      <point x="313" y="602" type="qcurve" smooth="yes"/>
      <point x="235" y="602"/>
      <point x="165" y="531"/>
      <point x="165" y="453" type="qcurve"/>
      <point x="165" y="316" type="line"/>
      <point x="418" y="316" type="line"/>
      <point x="418" y="283" type="line"/>
      <point x="165" y="283" type="line"/>
      <point x="165" y="203" type="line"/>
      <point x="165" y="140"/>
      <point x="130" y="62"/>
      <point x="89" y="38" type="qcurve"/>
      <point x="89" y="35" type="line"/>
      <point x="468" y="35" type="line"/>
      <point x="468" y="0" type="line"/>
      <point x="42" y="0" type="line"/>
      <point x="42" y="36" type="line"/>
      <point x="88" y="62"/>
      <point x="128" y="140"/>
      <point x="128" y="203" type="qcurve"/>
      <point x="128" y="283" type="line"/>
    </contour>
  </outline>
</glyph>
<glyph name="currency" format="1">
  <advance width="661"/>
  <unicode hex="00A4"/>
  <outline>
    <contour>
      <point x="88" y="49" type="line"/>
      <point x="65" y="73" type="line"/>
      <point x="133" y="141" type="line"/>
      <point x="102" y="176"/>
      <point x="69" y="266"/>
      <point x="69" y="316" type="qcurve" smooth="yes"/>
      <point x="69" y="366"/>
      <point x="102" y="456"/>
      <point x="133" y="491" type="qcurve"/>
      <point x="66" y="558" type="line"/>
      <point x="90" y="582" type="line"/>
      <point x="157" y="514" type="line"/>
      <point x="191" y="544"/>
      <point x="279" y="575"/>
      <point x="328" y="575" type="qcurve" smooth="yes"/>
      <point x="377" y="575"/>
      <point x="467" y="543"/>
      <point x="502" y="514" type="qcurve"/>
      <point x="570" y="582" type="line"/>
      <point x="594" y="557" type="line"/>
      <point x="526" y="490" type="line"/>
      <point x="558" y="455"/>
      <point x="591" y="365"/>
      <point x="591" y="315" type="qcurve" smooth="yes"/>
      <point x="591" y="265"/>
      <point x="559" y="177"/>
      <point x="528" y="143" type="qcurve"/>
      <point x="596" y="75" type="line"/>
      <point x="573" y="51" type="line"/>
      <point x="505" y="119" type="line"/>
      <point x="469" y="88"/>
      <point x="380" y="56"/>
      <point x="330" y="56" type="qcurve" smooth="yes"/>
      <point x="280" y="56"/>
      <point x="192" y="88"/>
      <point x="157" y="118" type="qcurve"/>
    </contour>
    <contour>
      <point x="328" y="542" type="qcurve" smooth="yes"/>
      <point x="232" y="542"/>
      <point x="104" y="413"/>
      <point x="104" y="316" type="qcurve" smooth="yes"/>
      <point x="104" y="218"/>
      <point x="233" y="89"/>
      <point x="330" y="89" type="qcurve" smooth="yes"/>
      <point x="428" y="89"/>
      <point x="557" y="218"/>
      <point x="557" y="316" type="qcurve" smooth="yes"/>
      <point x="557" y="414"/>
      <point x="427" y="542"/>
    </contour>
  </outline>
</glyph>
<glyph name="yen" format="1">
  <advance width="555"/>
  <unicode hex="00A5"/>
  <outline>
    <contour>
      <point x="65" y="118" type="line"/>
      <point x="65" y="149" type="line"/>
      <point x="260" y="149" type="line"/>
      <point x="260" y="246" type="line"/>
      <point x="65" y="246" type="line"/>
      <point x="65" y="277" type="line"/>
      <point x="246" y="277" type="line"/>
      <point x="34" y="627" type="line"/>
      <point x="76" y="627" type="line"/>
      <point x="279" y="289" type="line"/>
      <point x="477" y="627" type="line"/>
      <point x="517" y="627" type="line"/>
      <point x="311" y="277" type="line"/>
      <point x="492" y="277" type="line"/>
      <point x="492" y="246" type="line"/>
      <point x="297" y="246" type="line"/>
      <point x="297" y="149" type="line"/>
      <point x="492" y="149" type="line"/>
      <point x="492" y="118" type="line"/>
      <point x="297" y="118" type="line"/>
      <point x="297" y="0" type="line"/>
      <point x="260" y="0" type="line"/>
      <point x="260" y="118" type="line"/>
    </contour>
  </outline>
</glyph>
<glyph name="brokenbar" format="1">
  <advance width="204"/>
  <unicode hex="00A6"/>
  <outline>
    <contour>
      <point x="118" y="707" type="line"/>
      <point x="118" y="380" type="line"/>
      <point x="86" y="380" type="line"/>
      <point x="86" y="707" type="line"/>
    </contour>
    <contour>
      <point x="118" y="247" type="line"/>
      <point x="118" y="-80" type="line"/>
      <point x="86" y="-80" type="line"/>
      <point x="86" y="247" type="line"/>
    </contour>
  </outline>
</glyph>
<glyph name="section" format="1">
  <advance width="503"/>
  <unicode hex="00A7"/>
  <outline>
    <contour>
      <point x="256" y="607" type="qcurve"/>
      <point x="181" y="607"/>
      <point x="114" y="572"/>
      <point x="114" y="534" type="qcurve"/>
      <point x="114" y="511"/>
      <point x="146" y="480"/>
      <point x="188" y="464" type="qcurve"/>
      <point x="386" y="391" type="line" smooth="yes"/>
      <point x="429" y="374"/>
      <point x="462" y="331"/>
      <point x="462" y="294" type="qcurve"/>
      <point x="462" y="258"/>
      <point x="419" y="196"/>
      <point x="377" y="170" type="qcurve"/>
      <point x="402" y="156"/>
      <point x="424" y="120"/>
      <point x="424" y="94" type="qcurve"/>
      <point x="424" y="41"/>
      <point x="338" y="-10"/>
      <point x="250" y="-10" type="qcurve"/>
      <point x="205" y="-10"/>
      <point x="126" y="0"/>
      <point x="92" y="10" type="qcurve"/>
      <point x="92" y="42" type="line"/>
      <point x="123" y="31"/>
      <point x="204" y="19"/>
      <point x="246" y="20" type="qcurve"/>
      <point x="321" y="20"/>
      <point x="389" y="55"/>
      <point x="389" y="93" type="qcurve"/>
      <point x="389" y="117"/>
      <point x="357" y="147"/>
      <point x="315" y="163" type="qcurve"/>
      <point x="119" y="235" type="line" smooth="yes"/>
      <point x="76" y="252"/>
      <point x="41" y="296"/>
      <point x="41" y="333" type="qcurve"/>
      <point x="41" y="369"/>
      <point x="84" y="431"/>
      <point x="126" y="457" type="qcurve"/>
      <point x="102" y="471"/>
      <point x="80" y="507"/>
      <point x="80" y="533" type="qcurve"/>
      <point x="80" y="586"/>
      <point x="165" y="637"/>
      <point x="253" y="637" type="qcurve"/>
      <point x="298" y="637"/>
      <point x="377" y="627"/>
      <point x="411" y="617" type="qcurve"/>
      <point x="411" y="585" type="line"/>
      <point x="380" y="596"/>
      <point x="298" y="608"/>
    </contour>
    <contour>
      <point x="137" y="263" type="qcurve"/>
      <point x="335" y="189" type="line" smooth="yes"/>
      <point x="341" y="187"/>
      <point x="347" y="185"/>
      <point x="349" y="184" type="qcurve"/>
      <point x="389" y="207"/>
      <point x="429" y="259"/>
      <point x="429" y="288" type="qcurve"/>
      <point x="429" y="318"/>
      <point x="403" y="351"/>
      <point x="366" y="365" type="qcurve"/>
      <point x="168" y="438" type="line" smooth="yes"/>
      <point x="167" y="438"/>
      <point x="158" y="442"/>
      <point x="155" y="443" type="qcurve"/>
      <point x="115" y="420"/>
      <point x="75" y="368"/>
      <point x="75" y="339" type="qcurve"/>
      <point x="75" y="308"/>
      <point x="101" y="276"/>
    </contour>
  </outline>
</glyph>
<glyph name="dieresis" format="1">
  <advance width="313"/>
  <unicode hex="00A8"/>
  <outline>
    <contour>
      <point x="263" y="612" type="line"/>
      <point x="263" y="569" type="line"/>
      <point x="221" y="569" type="line"/>
      <point x="221" y="612" type="line"/>
    </contour>
    <contour>
      <point x="92" y="612" type="line"/>
      <point x="92" y="569" type="line"/>
      <point x="50" y="569" type="line"/>
      <point x="50" y="612" type="line"/>
    </contour>
    <contour>
      <point x="156" y="530" type="move" name="_top"/>
    </contour>
  </outline>
</glyph>
<glyph name="copyright" format="1">
  <advance width="727"/>
  <unicode hex="00A9"/>
  <outline>
    <contour>
      <point x="670" y="314" type="qcurve"/>
      <point x="670" y="152"/>
      <point x="517" y="-10"/>
      <point x="365" y="-10" type="qcurve"/>
      <point x="210" y="-10"/>
      <point x="57" y="151"/>
      <point x="57" y="314" type="qcurve"/>
      <point x="57" y="476"/>
      <point x="211" y="637"/>
      <point x="365" y="637" type="qcurve"/>
      <point x="518" y="637"/>
      <point x="670" y="476"/>
    </contour>
    <contour>
      <point x="641" y="314" type="qcurve"/>
      <point x="641" y="462"/>
      <point x="504" y="608"/>
      <point x="365" y="608" type="qcurve"/>
      <point x="225" y="608"/>
      <point x="87" y="462"/>
      <point x="87" y="314" type="qcurve"/>
      <point x="87" y="166"/>
      <point x="225" y="20"/>
      <point x="365" y="20" type="qcurve"/>
      <point x="504" y="20"/>
      <point x="641" y="166"/>
    </contour>
    <contour>
      <point x="380" y="168" type="qcurve"/>
      <point x="405" y="168"/>
      <point x="454" y="178"/>
      <point x="476" y="188" type="qcurve"/>
      <point x="476" y="158" type="line"/>
      <point x="458" y="148"/>
      <point x="404" y="137"/>
      <point x="373" y="137" type="qcurve"/>
      <point x="278" y="137"/>
      <point x="202" y="218"/>
      <point x="202" y="316" type="qcurve" smooth="yes"/>
      <point x="202" y="407"/>
      <point x="289" y="494"/>
      <point x="382" y="494" type="qcurve"/>
      <point x="404" y="494"/>
      <point x="443" y="489"/>
      <point x="467" y="484" type="qcurve"/>
      <point x="467" y="454" type="line"/>
      <point x="446" y="459"/>
      <point x="407" y="464"/>
      <point x="382" y="464" type="qcurve"/>
      <point x="305" y="464"/>
      <point x="237" y="395"/>
      <point x="237" y="316" type="qcurve" smooth="yes"/>
      <point x="237" y="233"/>
      <point x="299" y="168"/>
    </contour>
  </outline>
</glyph>
<glyph name="ordfeminine" format="1">
  <advance width="367"/>
  <unicode hex="00AA"/>
  <outline>
    <contour>
      <point x="154" y="351" type="qcurve"/>
      <point x="109" y="351"/>
      <point x="66" y="392"/>
      <point x="66" y="435" type="qcurve"/>
      <point x="66" y="478"/>
      <point x="117" y="515"/>
      <point x="177" y="515" type="qcurve"/>
      <point x="203" y="515"/>
      <point x="247" y="511"/>
      <point x="262" y="508" type="qcurve"/>
      <point x="262" y="537" type="line" smooth="yes"/>
      <point x="262" y="577"/>
      <point x="223" y="610"/>
      <point x="181" y="610" type="qcurve" smooth="yes"/>
      <point x="153" y="610"/>
      <point x="114" y="606"/>
      <point x="94" y="600" type="qcurve"/>
      <point x="94" y="628" type="line"/>
      <point x="117" y="633"/>
      <point x="160" y="637"/>
      <point x="187" y="637" type="qcurve"/>
      <point x="240" y="637"/>
      <point x="291" y="590"/>
      <point x="291" y="540" type="qcurve"/>
      <point x="291" y="355" type="line"/>
      <point x="265" y="355" type="line"/>
      <point x="264" y="385" type="line"/>
      <point x="264" y="385" type="line"/>
      <point x="240" y="369"/>
      <point x="182" y="351"/>
    </contour>
    <contour>
      <point x="179" y="491" type="qcurve"/>
      <point x="132" y="491"/>
      <point x="94" y="466"/>
      <point x="94" y="437" type="qcurve"/>
      <point x="94" y="405"/>
      <point x="126" y="377"/>
      <point x="161" y="377" type="qcurve"/>
      <point x="188" y="377"/>
      <point x="246" y="395"/>
      <point x="262" y="408" type="qcurve"/>
      <point x="262" y="484" type="line"/>
      <point x="244" y="488"/>
      <point x="202" y="491"/>
    </contour>
    <contour>
      <point x="293" y="271" type="line"/>
      <point x="68" y="271" type="line"/>
      <point x="68" y="298" type="line"/>
      <point x="293" y="298" type="line"/>
    </contour>
  </outline>
</glyph>
<glyph name="guillemotleft" format="1">
  <advance width="459"/>
  <unicode hex="00AB"/>
  <outline>
    <contour>
      <point x="218" y="64" type="line"/>
      <point x="182" y="64" type="line"/>
      <point x="33" y="281" type="line"/>
      <point x="182" y="494" type="line"/>
      <point x="218" y="494" type="line"/>
      <point x="70" y="282" type="line"/>
    </contour>
    <contour>
      <point x="415" y="64" type="line"/>
      <point x="379" y="64" type="line"/>
      <point x="230" y="281" type="line"/>
      <point x="379" y="494" type="line"/>
      <point x="415" y="494" type="line"/>
      <point x="267" y="282" type="line"/>
    </contour>
  </outline>
</glyph>
<glyph name="registered" format="1">
  <advance width="462"/>
  <unicode hex="00AE"/>
  <outline>
    <contour>
      <point x="409" y="454" type="qcurve"/>
      <point x="409" y="361"/>
      <point x="321" y="270"/>
      <point x="232" y="270" type="qcurve"/>
      <point x="142" y="270"/>
      <point x="54" y="361"/>
      <point x="54" y="454" type="qcurve"/>
      <point x="54" y="546"/>
      <point x="143" y="637"/>
      <point x="232" y="637" type="qcurve"/>
      <point x="322" y="637"/>
      <point x="409" y="547"/>
    </contour>
    <contour>
      <point x="382" y="454" type="qcurve"/>
      <point x="382" y="534"/>
      <point x="308" y="612"/>
      <point x="232" y="612" type="qcurve"/>
      <point x="156" y="612"/>
      <point x="82" y="534"/>
      <point x="82" y="454" type="qcurve"/>
      <point x="82" y="373"/>
      <point x="155" y="296"/>
      <point x="232" y="296" type="qcurve"/>
      <point x="309" y="296"/>
      <point x="382" y="373"/>
    </contour>
    <contour>
      <point x="189" y="427" type="line"/>
      <point x="189" y="354" type="line"/>
      <point x="164" y="354" type="line"/>
      <point x="164" y="556" type="line"/>
      <point x="232" y="556" type="line" smooth="yes"/>
      <point x="275" y="556"/>
      <point x="311" y="526"/>
      <point x="311" y="493" type="qcurve"/>
      <point x="311" y="467"/>
      <point x="288" y="436"/>
      <point x="264" y="430" type="qcurve"/>
      <point x="316" y="354" type="line"/>
      <point x="284" y="354" type="line"/>
      <point x="236" y="427" type="line"/>
      <point x="233" y="427" type="line"/>
    </contour>
    <contour>
      <point x="285" y="493" type="qcurve"/>
      <point x="285" y="513"/>
      <point x="260" y="532"/>
      <point x="232" y="532" type="qcurve"/>
      <point x="189" y="532" type="line"/>
      <point x="189" y="449" type="line"/>
      <point x="232" y="449" type="line" smooth="yes"/>
      <point x="259" y="449"/>
      <point x="285" y="471"/>
    </contour>
  </outline>
</glyph>
<glyph name="macron" format="1">
  <advance width="336"/>
  <unicode hex="00AF"/>
  <outline>
    <contour>
      <point x="286" y="605" type="line"/>
      <point x="286" y="574" type="line"/>
      <point x="50" y="574" type="line"/>
      <point x="50" y="605" type="line"/>
    </contour>
    <contour>
      <point x="169" y="530" type="move" name="_top"/>
    </contour>
  </outline>
</glyph>
<glyph name="degree" format="1">
  <advance width="366"/>
  <unicode hex="00B0"/>
  <outline>
    <contour>
      <point x="316" y="500" type="qcurve" smooth="yes"/>
      <point x="316" y="439"/>
      <point x="243" y="366"/>
      <point x="183" y="366" type="qcurve" smooth="yes"/>
      <point x="123" y="366"/>
      <point x="51" y="439"/>
      <point x="51" y="500" type="qcurve" smooth="yes"/>
      <point x="51" y="560"/>
      <point x="123" y="634"/>
      <point x="183" y="634" type="qcurve" smooth="yes"/>
      <point x="243" y="634"/>
      <point x="316" y="560"/>
    </contour>
    <contour>
      <point x="80" y="500" type="qcurve" smooth="yes"/>
      <point x="80" y="452"/>
      <point x="136" y="394"/>
      <point x="183" y="394" type="qcurve" smooth="yes"/>
      <point x="230" y="394"/>
      <point x="287" y="452"/>
      <point x="287" y="500" type="qcurve" smooth="yes"/>
      <point x="287" y="547"/>
      <point x="229" y="606"/>
      <point x="183" y="606" type="qcurve" smooth="yes"/>
      <point x="137" y="606"/>
      <point x="80" y="548"/>
    </contour>
  </outline>
</glyph>
<glyph name="plusminus" format="1">
  <advance width="500"/>
  <unicode hex="00B1"/>
  <outline>
    <contour>
      <point x="463" y="428" type="line"/>
      <point x="463" y="394" type="line"/>
      <point x="268" y="394" type="line"/>
      <point x="268" y="219" type="line"/>
      <point x="232" y="219" type="line"/>
      <point x="232" y="394" type="line"/>
      <point x="37" y="394" type="line"/>
      <point x="37" y="428" type="line"/>
      <point x="232" y="428" type="line"/>
      <point x="232" y="601" type="line"/>
      <point x="268" y="601" type="line"/>
      <point x="268" y="428" type="line"/>
    </contour>
    <contour>
      <point x="463" y="117" type="line"/>
      <point x="463" y="83" type="line"/>
      <point x="37" y="83" type="line"/>
      <point x="37" y="117" type="line"/>
    </contour>
  </outline>
</glyph>
<glyph name="uni00B2" format="1">
  <advance width="296"/>
  <unicode hex="00B2"/>
  <outline>
    <contour>
      <point x="259" y="300" type="line"/>
      <point x="259" y="270" type="line"/>
      <point x="29" y="270" type="line"/>
      <point x="29" y="300" type="line"/>
      <point x="172" y="451" type="line" smooth="yes"/>
      <point x="197" y="477"/>
      <point x="218" y="520"/>
      <point x="218" y="543" type="qcurve"/>
      <point x="218" y="572"/>
      <point x="182" y="604"/>
      <point x="148" y="604" type="qcurve"/>
      <point x="123" y="604"/>
      <point x="66" y="596"/>
      <point x="48" y="591" type="qcurve"/>
      <point x="48" y="620" type="line"/>
      <point x="71" y="626"/>
      <point x="123" y="633"/>
      <point x="151" y="633" type="qcurve"/>
      <point x="199" y="633"/>
      <point x="250" y="587"/>
      <point x="250" y="545" type="qcurve"/>
      <point x="250" y="517"/>
      <point x="226" y="466"/>
      <point x="199" y="438" type="qcurve"/>
      <point x="69" y="300" type="line"/>
    </contour>
  </outline>
</glyph>
<glyph name="uni00B3" format="1">
  <advance width="303"/>
  <unicode hex="00B3"/>
  <outline>
    <contour>
      <point x="244" y="544" type="qcurve"/>
      <point x="244" y="511"/>
      <point x="208" y="466"/>
      <point x="178" y="459" type="qcurve"/>
      <point x="178" y="457" type="line"/>
      <point x="218" y="455"/>
      <point x="261" y="409"/>
      <point x="261" y="369" type="qcurve"/>
      <point x="261" y="318"/>
      <point x="197" y="266"/>
      <point x="135" y="266" type="qcurve"/>
      <point x="103" y="266"/>
      <point x="55" y="271"/>
      <point x="34" y="277" type="qcurve"/>
      <point x="34" y="305" type="line"/>
      <point x="54" y="300"/>
      <point x="99" y="295"/>
      <point x="132" y="295" type="qcurve"/>
      <point x="181" y="295"/>
      <point x="231" y="333"/>
      <point x="231" y="370" type="qcurve"/>
      <point x="231" y="406"/>
      <point x="187" y="440"/>
      <point x="140" y="440" type="qcurve"/>
      <point x="83" y="440" type="line"/>
      <point x="83" y="467" type="line"/>
      <point x="128" y="467" type="line"/>
      <point x="167" y="467"/>
      <point x="214" y="506"/>
      <point x="214" y="540" type="qcurve"/>
      <point x="214" y="573"/>
      <point x="177" y="605"/>
      <point x="138" y="605" type="qcurve"/>
      <point x="115" y="605"/>
      <point x="64" y="598"/>
      <point x="47" y="593" type="qcurve"/>
      <point x="47" y="620" type="line"/>
      <point x="68" y="627"/>
      <point x="116" y="633"/>
      <point x="145" y="633" type="qcurve"/>
      <point x="194" y="633"/>
      <point x="244" y="588"/>
    </contour>
  </outline>
</glyph>
<glyph name="acute" format="1">
  <advance width="253"/>
  <unicode hex="00B4"/>
  <outline>
    <contour>
      <point x="151" y="683" type="line"/>
      <point x="203" y="683" type="line"/>
      <point x="86" y="569" type="line"/>
      <point x="50" y="569" type="line"/>
    </contour>
    <contour>
      <point x="99" y="530" type="move" name="_top"/>
    </contour>
  </outline>
</glyph>
<glyph name="paragraph" format="1">
  <advance width="489"/>
  <unicode hex="00B6"/>
  <outline>
    <contour>
      <point x="405" y="627" type="qcurve"/>
      <point x="405" y="-1" type="line" smooth="yes"/>
      <point x="405" y="-81"/>
      <point x="333" y="-162"/>
      <point x="261" y="-162" type="qcurve"/>
      <point x="239" y="-162"/>
      <point x="203" y="-159"/>
      <point x="186" y="-156" type="qcurve"/>
      <point x="186" y="-123" type="line"/>
      <point x="204" y="-126"/>
      <point x="236" y="-129"/>
      <point x="252" y="-129" type="qcurve"/>
      <point x="313" y="-129"/>
      <point x="369" y="-68"/>
      <point x="369" y="-1" type="qcurve"/>
      <point x="369" y="152" type="line"/>
      <point x="339" y="141"/>
      <point x="267" y="128"/>
      <point x="229" y="128" type="qcurve"/>
      <point x="125" y="128"/>
      <point x="42" y="242"/>
      <point x="42" y="384" type="qcurve" smooth="yes"/>
      <point x="42" y="521"/>
      <point x="150" y="639"/>
      <point x="277" y="639" type="qcurve"/>
      <point x="312" y="639"/>
      <point x="371" y="634"/>
    </contour>
    <contour>
      <point x="277" y="605" type="qcurve"/>
      <point x="167" y="605"/>
      <point x="78" y="505"/>
      <point x="78" y="384" type="qcurve" smooth="yes"/>
      <point x="78" y="258"/>
      <point x="147" y="162"/>
      <point x="237" y="162" type="qcurve"/>
      <point x="270" y="162"/>
      <point x="340" y="175"/>
      <point x="369" y="186" type="qcurve"/>
      <point x="369" y="598" type="line"/>
      <point x="342" y="602"/>
      <point x="302" y="605"/>
    </contour>
  </outline>
</glyph>
<glyph name="cedilla" format="1">
  <advance width="320"/>
  <unicode hex="00B8"/>
  <outline>
    <contour>
      <point x="276" y="-120" type="qcurve"/>
      <point x="276" y="-160"/>
      <point x="226" y="-195"/>
      <point x="170" y="-195" type="qcurve" smooth="yes"/>
      <point x="137" y="-195"/>
      <point x="81" y="-189"/>
      <point x="60" y="-183" type="qcurve"/>
      <point x="60" y="-156" type="line"/>
      <point x="79" y="-161"/>
      <point x="135" y="-167"/>
      <point x="169" y="-167" type="qcurve" smooth="yes"/>
      <point x="210" y="-167"/>
      <point x="242" y="-147"/>
      <point x="242" y="-120" type="qcurve"/>
      <point x="242" y="-98"/>
      <point x="203" y="-77"/>
      <point x="161" y="-77" type="qcurve"/>
      <point x="152" y="-77"/>
      <point x="131" y="-78"/>
      <point x="112" y="-79" type="qcurve"/>
      <point x="132" y="11" type="line"/>
      <point x="164" y="8" type="line"/>
      <point x="149" y="-55" type="line"/>
      <point x="213" y="-51"/>
      <point x="275" y="-83"/>
    </contour>
    <contour>
      <point x="149" y="0" type="move" name="_bottom"/>
    </contour>
  </outline>
</glyph>
<glyph name="ordmasculine" format="1">
  <advance width="398"/>
  <unicode hex="00BA"/>
  <outline>
    <contour>
      <point x="330" y="494" type="qcurve" smooth="yes"/>
      <point x="330" y="420"/>
      <point x="267" y="351"/>
      <point x="200" y="351" type="qcurve" smooth="yes"/>
      <point x="129" y="351"/>
      <point x="69" y="416"/>
      <point x="69" y="494" type="qcurve" smooth="yes"/>
      <point x="69" y="569"/>
      <point x="132" y="637"/>
      <point x="200" y="637" type="qcurve" smooth="yes"/>
      <point x="270" y="637"/>
      <point x="330" y="571"/>
    </contour>
    <contour>
      <point x="99" y="494" type="qcurve" smooth="yes"/>
      <point x="99" y="429"/>
      <point x="144" y="378"/>
      <point x="200" y="378" type="qcurve" smooth="yes"/>
      <point x="254" y="378"/>
      <point x="300" y="431"/>
      <point x="300" y="494" type="qcurve" smooth="yes"/>
      <point x="300" y="559"/>
      <point x="256" y="610"/>
      <point x="200" y="610" type="qcurve" smooth="yes"/>
      <point x="145" y="610"/>
      <point x="99" y="557"/>
    </contour>
    <contour>
      <point x="322" y="271" type="line"/>
      <point x="75" y="271" type="line"/>
      <point x="75" y="298" type="line"/>
      <point x="322" y="298" type="line"/>
    </contour>
  </outline>
</glyph>
<glyph name="guillemotright" format="1">
  <advance width="459"/>
  <unicode hex="00BB"/>
  <outline>
    <contour>
      <point x="426" y="281" type="line"/>
      <point x="277" y="64" type="line"/>
      <point x="241" y="64" type="line"/>
      <point x="389" y="282" type="line"/>
      <point x="241" y="494" type="line"/>
      <point x="277" y="494" type="line"/>
    </contour>
    <contour>
      <point x="229" y="281" type="line"/>
      <point x="80" y="64" type="line"/>
      <point x="44" y="64" type="line"/>
      <point x="192" y="282" type="line"/>
      <point x="44" y="494" type="line"/>
      <point x="80" y="494" type="line"/>
    </contour>
  </outline>
</glyph>
<glyph name="questiondown" format="1">
  <advance width="392"/>
  <unicode hex="00BF"/>
  <outline>
    <contour>
      <point x="213" y="449" type="line"/>
      <point x="213" y="494" type="line"/>
      <point x="254" y="494" type="line"/>
      <point x="254" y="449" type="line"/>
    </contour>
    <contour>
      <point x="208" y="-143" type="qcurve"/>
      <point x="126" y="-143"/>
      <point x="36" y="-74"/>
      <point x="36" y="-9" type="qcurve" smooth="yes"/>
      <point x="36" y="50"/>
      <point x="121" y="150"/>
      <point x="215" y="198" type="qcurve"/>
      <point x="215" y="342" type="line"/>
      <point x="249" y="342" type="line"/>
      <point x="249" y="180" type="line"/>
      <point x="155" y="136"/>
      <point x="71" y="48"/>
      <point x="71" y="-5" type="qcurve" smooth="yes"/>
      <point x="71" y="-55"/>
      <point x="145" y="-109"/>
      <point x="211" y="-109" type="qcurve"/>
      <point x="252" y="-109"/>
      <point x="333" y="-94"/>
      <point x="368" y="-80" type="qcurve"/>
      <point x="368" y="-114" type="line"/>
      <point x="331" y="-128"/>
      <point x="250" y="-143"/>
    </contour>
  </outline>
</glyph>
<glyph name="AE" format="1">
  <advance width="744"/>
  <unicode hex="00C6"/>
  <outline>
    <contour>
      <point x="59" y="0" type="line"/>
      <point x="19" y="0" type="line"/>
      <point x="268" y="627" type="line"/>
      <point x="694" y="627" type="line"/>
      <point x="694" y="592" type="line"/>
      <point x="321" y="592" type="line"/>
      <point x="420" y="340" type="line"/>
      <point x="657" y="340" type="line"/>
      <point x="657" y="306" type="line"/>
      <point x="433" y="306" type="line"/>
      <point x="539" y="35" type="line"/>
      <point x="703" y="35" type="line"/>
      <point x="703" y="0" type="line"/>
      <point x="514" y="0" type="line"/>
      <point x="442" y="182" type="line"/>
      <point x="131" y="182" type="line"/>
    </contour>
    <contour>
      <point x="286" y="592" type="qcurve"/>
      <point x="279" y="569"/>
      <point x="261" y="516"/>
      <point x="239" y="456" type="qcurve"/>
      <point x="144" y="216" type="line"/>
      <point x="429" y="216" type="line"/>
      <point x="334" y="456" type="line" smooth="yes"/>
      <point x="311" y="518"/>
      <point x="293" y="569"/>
    </contour>
    <contour>
      <point x="477" y="645" type="move" name="top"/>
    </contour>
  </outline>
</glyph>
<glyph name="Ccedilla" format="1">
  <advance width="531"/>
  <unicode hex="00C7"/>
  <outline>
    <contour>
      <point x="434" y="-120" type="qcurve"/>
      <point x="434" y="-160"/>
      <point x="384" y="-195"/>
      <point x="328" y="-195" type="qcurve" smooth="yes"/>
      <point x="295" y="-195"/>
      <point x="239" y="-189"/>
      <point x="218" y="-183" type="qcurve"/>
      <point x="218" y="-156" type="line"/>
      <point x="237" y="-161"/>
      <point x="293" y="-167"/>
      <point x="327" y="-167" type="qcurve" smooth="yes"/>
      <point x="368" y="-167"/>
      <point x="400" y="-147"/>
      <point x="400" y="-120" type="qcurve"/>
      <point x="400" y="-98"/>
      <point x="361" y="-77"/>
      <point x="319" y="-77" type="qcurve"/>
      <point x="310" y="-77"/>
      <point x="289" y="-78"/>
      <point x="270" y="-79" type="qcurve"/>
      <point x="286" y="-6" type="line"/>
      <point x="164" y="0"/>
      <point x="59" y="151"/>
      <point x="59" y="316" type="qcurve" smooth="yes"/>
      <point x="59" y="482"/>
      <point x="191" y="637"/>
      <point x="335" y="637" type="qcurve"/>
      <point x="381" y="637"/>
      <point x="453" y="633"/>
      <point x="482" y="628" type="qcurve"/>
      <point x="482" y="593" type="line"/>
      <point x="449" y="598"/>
      <point x="380" y="602"/>
      <point x="335" y="602" type="qcurve"/>
      <point x="207" y="602"/>
      <point x="97" y="468"/>
      <point x="97" y="316" type="qcurve" smooth="yes"/>
      <point x="97" y="157"/>
      <point x="196" y="29"/>
      <point x="325" y="29" type="qcurve" smooth="yes"/>
      <point x="367" y="29"/>
      <point x="456" y="49"/>
      <point x="496" y="67" type="qcurve"/>
      <point x="496" y="32" type="line"/>
      <point x="442" y="10"/>
      <point x="359" y="-7"/>
      <point x="318" y="-7" type="qcurve"/>
      <point x="307" y="-55" type="line"/>
      <point x="371" y="-51"/>
      <point x="433" y="-83"/>
    </contour>
  </outline>
</glyph>
<glyph name="multiply" format="1">
  <advance width="500"/>
  <unicode hex="00D7"/>
  <outline>
    <contour>
      <point x="51" y="497" type="line"/>
      <point x="76" y="522" type="line"/>
      <point x="251" y="348" type="line"/>
      <point x="427" y="524" type="line"/>
      <point x="452" y="498" type="line"/>
      <point x="276" y="322" type="line"/>
      <point x="452" y="146" type="line"/>
      <point x="427" y="121" type="line"/>
      <point x="251" y="297" type="line"/>
      <point x="74" y="120" type="line"/>
      <point x="48" y="145" type="line"/>
      <point x="226" y="323" type="line"/>
    </contour>
  </outline>
</glyph>
<glyph name="Oslash" format="1">
  <advance width="659"/>
  <unicode hex="00D8"/>
  <outline>
    <contour>
      <point x="88" y="-46" type="line"/>
      <point x="63" y="-30" type="line"/>
      <point x="122" y="56" type="line"/>
      <point x="90" y="91"/>
      <point x="60" y="216"/>
      <point x="60" y="316" type="qcurve"/>
      <point x="60" y="485"/>
      <point x="187" y="637"/>
      <point x="330" y="637" type="qcurve"/>
      <point x="389" y="637"/>
      <point x="472" y="620"/>
      <point x="501" y="603" type="qcurve"/>
      <point x="559" y="688" type="line"/>
      <point x="584" y="672" type="line"/>
      <point x="524" y="586" type="line"/>
      <point x="563" y="552"/>
      <point x="599" y="423"/>
      <point x="599" y="316" type="qcurve"/>
      <point x="599" y="146"/>
      <point x="473" y="-7"/>
      <point x="330" y="-7" type="qcurve"/>
      <point x="263" y="-7"/>
      <point x="174" y="14"/>
      <point x="145" y="36" type="qcurve"/>
    </contour>
    <contour>
      <point x="330" y="602" type="qcurve"/>
      <point x="202" y="602"/>
      <point x="98" y="471"/>
      <point x="98" y="316" type="qcurve"/>
      <point x="98" y="227"/>
      <point x="120" y="119"/>
      <point x="145" y="88" type="qcurve"/>
      <point x="480" y="574" type="line"/>
      <point x="456" y="589"/>
      <point x="384" y="602"/>
    </contour>
    <contour>
      <point x="330" y="29" type="qcurve" smooth="yes"/>
      <point x="456" y="29"/>
      <point x="561" y="161"/>
      <point x="561" y="316" type="qcurve"/>
      <point x="561" y="414"/>
      <point x="534" y="527"/>
      <point x="503" y="556" type="qcurve"/>
      <point x="166" y="67" type="line"/>
      <point x="191" y="47"/>
      <point x="269" y="29"/>
    </contour>
    <contour>
      <point x="330" y="655" type="move" name="top"/>
    </contour>
  </outline>
</glyph>
<glyph name="Thorn" format="1">
  <advance width="579"/>
  <unicode hex="00DE"/>
  <outline>
    <contour>
      <point x="125" y="115" type="line"/>
      <point x="125" y="0" type="line"/>
      <point x="88" y="0" type="line"/>
      <point x="88" y="627" type="line"/>
      <point x="125" y="627" type="line"/>
      <point x="125" y="520" type="line"/>
      <point x="290" y="520" type="line" smooth="yes"/>
      <point x="415" y="520"/>
      <point x="526" y="427"/>
      <point x="526" y="324" type="qcurve"/>
      <point x="526" y="218"/>
      <point x="411" y="115"/>
      <point x="293" y="115" type="qcurve"/>
    </contour>
    <contour>
      <point x="488" y="324" type="qcurve"/>
      <point x="488" y="409"/>
      <point x="396" y="485"/>
      <point x="290" y="485" type="qcurve"/>
      <point x="125" y="485" type="line"/>
      <point x="125" y="148" type="line"/>
      <point x="290" y="148" type="line" smooth="yes"/>
      <point x="392" y="148"/>
      <point x="488" y="234"/>
    </contour>
  </outline>
</glyph>
<glyph name="germandbls" format="1">
  <advance width="590"/>
  <unicode hex="00DF"/>
  <outline>
    <contour>
      <point x="268" y="677" type="qcurve"/>
      <point x="359" y="677"/>
      <point x="444" y="613"/>
      <point x="444" y="544" type="qcurve" smooth="yes"/>
      <point x="444" y="522"/>
      <point x="434" y="471"/>
      <point x="423" y="439" type="qcurve"/>
      <point x="388" y="337" type="line"/>
      <point x="452" y="315" type="line" smooth="yes"/>
      <point x="503" y="297"/>
      <point x="540" y="234"/>
      <point x="540" y="174" type="qcurve" smooth="yes"/>
      <point x="540" y="79"/>
      <point x="461" y="-10"/>
      <point x="371" y="-10" type="qcurve" smooth="yes"/>
      <point x="336" y="-10"/>
      <point x="276" y="-3"/>
      <point x="254" y="3" type="qcurve"/>
      <point x="254" y="37" type="line"/>
      <point x="282" y="30"/>
      <point x="335" y="24"/>
      <point x="368" y="24" type="qcurve" smooth="yes"/>
      <point x="443" y="24"/>
      <point x="505" y="95"/>
      <point x="505" y="174" type="qcurve" smooth="yes"/>
      <point x="505" y="222"/>
      <point x="476" y="271"/>
      <point x="436" y="285" type="qcurve"/>
      <point x="346" y="314" type="line"/>
      <point x="388" y="443" type="line" smooth="yes"/>
      <point x="399" y="474"/>
      <point x="408" y="519"/>
      <point x="408" y="539" type="qcurve" smooth="yes"/>
      <point x="408" y="594"/>
      <point x="341" y="644"/>
      <point x="268" y="644" type="qcurve"/>
      <point x="185" y="644"/>
      <point x="116" y="576"/>
      <point x="116" y="492" type="qcurve"/>
      <point x="116" y="0" type="line"/>
      <point x="80" y="0" type="line"/>
      <point x="80" y="492" type="line" smooth="yes"/>
      <point x="80" y="591"/>
      <point x="168" y="677"/>
    </contour>
  </outline>
</glyph>
<glyph name="ae" format="1">
  <advance width="790"/>
  <unicode hex="00E6"/>
  <outline>
    <contour>
      <point x="190" y="-7" type="qcurve"/>
      <point x="115" y="-7"/>
      <point x="43" y="63"/>
      <point x="43" y="136" type="qcurve"/>
      <point x="43" y="208"/>
      <point x="125" y="270"/>
      <point x="224" y="270" type="qcurve"/>
      <point x="366" y="270" type="line"/>
      <point x="366" y="327" type="line" smooth="yes"/>
      <point x="366" y="406"/>
      <point x="304" y="471"/>
      <point x="234" y="471" type="qcurve" smooth="yes"/>
      <point x="197" y="471"/>
      <point x="134" y="463"/>
      <point x="94" y="453" type="qcurve"/>
      <point x="94" y="486" type="line"/>
      <point x="141" y="497"/>
      <point x="204" y="504"/>
      <point x="245" y="504" type="qcurve" smooth="yes"/>
      <point x="308" y="504"/>
      <point x="378" y="455"/>
      <point x="390" y="401" type="qcurve"/>
      <point x="411" y="454"/>
      <point x="496" y="504"/>
      <point x="563" y="504" type="qcurve"/>
      <point x="654" y="504"/>
      <point x="739" y="406"/>
      <point x="739" y="301" type="qcurve"/>
      <point x="739" y="288"/>
      <point x="737" y="261"/>
      <point x="735" y="239" type="qcurve"/>
      <point x="402" y="239" type="line"/>
      <point x="402" y="125"/>
      <point x="479" y="27"/>
      <point x="571" y="27" type="qcurve" smooth="yes"/>
      <point x="608" y="27"/>
      <point x="692" y="46"/>
      <point x="718" y="60" type="qcurve"/>
      <point x="718" y="27" type="line"/>
      <point x="689" y="12"/>
      <point x="604" y="-7"/>
      <point x="564" y="-7" type="qcurve" smooth="yes"/>
      <point x="501" y="-7"/>
      <point x="421" y="32"/>
      <point x="398" y="74" type="qcurve"/>
      <point x="354" y="34"/>
      <point x="249" y="-7"/>
    </contour>
    <contour>
      <point x="705" y="304" type="qcurve"/>
      <point x="705" y="392"/>
      <point x="637" y="471"/>
      <point x="563" y="471" type="qcurve"/>
      <point x="477" y="471"/>
      <point x="402" y="378"/>
      <point x="402" y="270" type="qcurve"/>
      <point x="703" y="270" type="line"/>
      <point x="704" y="280"/>
      <point x="705" y="296"/>
    </contour>
    <contour>
      <point x="78" y="138" type="qcurve"/>
      <point x="78" y="79"/>
      <point x="135" y="27"/>
      <point x="199" y="27" type="qcurve"/>
      <point x="251" y="27"/>
      <point x="347" y="65"/>
      <point x="387" y="100" type="qcurve"/>
      <point x="377" y="127"/>
      <point x="367" y="196"/>
      <point x="366" y="239" type="qcurve"/>
      <point x="225" y="239" type="line" smooth="yes"/>
      <point x="142" y="239"/>
      <point x="78" y="194"/>
    </contour>
    <contour>
      <point x="392" y="530" type="move" name="top"/>
    </contour>
  </outline>
</glyph>
<glyph name="ccedilla" format="1">
  <advance width="450"/>
  <unicode hex="00E7"/>
  <outline>
    <contour>
      <point x="376" y="-120" type="qcurve"/>
      <point x="376" y="-160"/>
      <point x="326" y="-195"/>
      <point x="270" y="-195" type="qcurve" smooth="yes"/>
      <point x="237" y="-195"/>
      <point x="181" y="-189"/>
      <point x="160" y="-183" type="qcurve"/>
      <point x="160" y="-156" type="line"/>
      <point x="179" y="-161"/>
      <point x="235" y="-167"/>
      <point x="269" y="-167" type="qcurve" smooth="yes"/>
      <point x="310" y="-167"/>
      <point x="342" y="-147"/>
      <point x="342" y="-120" type="qcurve"/>
      <point x="342" y="-98"/>
      <point x="303" y="-77"/>
      <point x="261" y="-77" type="qcurve"/>
      <point x="252" y="-77"/>
      <point x="231" y="-78"/>
      <point x="212" y="-79" type="qcurve"/>
      <point x="228" y="-7" type="line"/>
      <point x="134" y="-3"/>
      <point x="57" y="111"/>
      <point x="57" y="249" type="qcurve" smooth="yes"/>
      <point x="57" y="386"/>
      <point x="165" y="504"/>
      <point x="292" y="504" type="qcurve"/>
      <point x="317" y="504"/>
      <point x="358" y="502"/>
      <point x="402" y="495" type="qcurve"/>
      <point x="402" y="462" type="line"/>
      <point x="368" y="468"/>
      <point x="322" y="471"/>
      <point x="292" y="471" type="qcurve"/>
      <point x="182" y="471"/>
      <point x="93" y="371"/>
      <point x="93" y="249" type="qcurve" smooth="yes"/>
      <point x="93" y="123"/>
      <point x="162" y="27"/>
      <point x="252" y="27" type="qcurve"/>
      <point x="296" y="27"/>
      <point x="387" y="47"/>
      <point x="415" y="62" type="qcurve"/>
      <point x="415" y="30" type="line"/>
      <point x="392" y="15"/>
      <point x="308" y="-5"/>
      <point x="260" y="-7" type="qcurve"/>
      <point x="249" y="-55" type="line"/>
      <point x="313" y="-51"/>
      <point x="375" y="-83"/>
    </contour>
  </outline>
</glyph>
<glyph name="eth" format="1">
  <advance width="556"/>
  <unicode hex="00F0"/>
  <outline>
    <contour>
      <point x="493" y="247" type="qcurve" smooth="yes"/>
      <point x="493" y="106"/>
      <point x="396" y="-7"/>
      <point x="276" y="-7" type="qcurve" smooth="yes"/>
      <point x="149" y="-7"/>
      <point x="58" y="99"/>
      <point x="58" y="247" type="qcurve" smooth="yes"/>
      <point x="58" y="387"/>
      <point x="155" y="500"/>
      <point x="276" y="500" type="qcurve" smooth="yes"/>
      <point x="330" y="500"/>
      <point x="404" y="483"/>
      <point x="428" y="464" type="qcurve"/>
      <point x="416" y="495"/>
      <point x="382" y="556"/>
      <point x="358" y="587" type="qcurve"/>
      <point x="169" y="542" type="line"/>
      <point x="169" y="569" type="line"/>
      <point x="339" y="609" type="line"/>
      <point x="328" y="622"/>
      <point x="300" y="650"/>
      <point x="282" y="665" type="qcurve"/>
      <point x="329" y="665" type="line"/>
      <point x="341" y="653"/>
      <point x="364" y="629"/>
      <point x="374" y="617" type="qcurve"/>
      <point x="474" y="641" type="line"/>
      <point x="474" y="614" type="line"/>
      <point x="392" y="595" type="line"/>
      <point x="446" y="525"/>
      <point x="493" y="362"/>
    </contour>
    <contour>
      <point x="94" y="247" type="qcurve" smooth="yes"/>
      <point x="94" y="116"/>
      <point x="167" y="27"/>
      <point x="276" y="27" type="qcurve" smooth="yes"/>
      <point x="380" y="27"/>
      <point x="457" y="121"/>
      <point x="457" y="247" type="qcurve" smooth="yes"/>
      <point x="457" y="379"/>
      <point x="384" y="467"/>
      <point x="276" y="467" type="qcurve" smooth="yes"/>
      <point x="171" y="467"/>
      <point x="94" y="373"/>
    </contour>
  </outline>
</glyph>
<glyph name="oslash" format="1">
  <advance width="551"/>
  <unicode hex="00F8"/>
  <outline>
    <contour>
      <point x="85" y="-56" type="line"/>
      <point x="61" y="-39" type="line"/>
      <point x="114" y="36" type="line"/>
      <point x="85" y="63"/>
      <point x="58" y="164"/>
      <point x="58" y="249" type="qcurve" smooth="yes"/>
      <point x="58" y="390"/>
      <point x="155" y="504"/>
      <point x="276" y="504" type="qcurve" smooth="yes"/>
      <point x="325" y="504"/>
      <point x="393" y="490"/>
      <point x="417" y="476" type="qcurve"/>
      <point x="468" y="548" type="line"/>
      <point x="492" y="532" type="line"/>
      <point x="440" y="458" type="line"/>
      <point x="468" y="431"/>
      <point x="493" y="333"/>
      <point x="493" y="249" type="qcurve" smooth="yes"/>
      <point x="493" y="107"/>
      <point x="396" y="-7"/>
      <point x="276" y="-7" type="qcurve" smooth="yes"/>
      <point x="227" y="-7"/>
      <point x="160" y="6"/>
      <point x="138" y="19" type="qcurve"/>
    </contour>
    <contour>
      <point x="276" y="471" type="qcurve" smooth="yes"/>
      <point x="172" y="471"/>
      <point x="94" y="376"/>
      <point x="94" y="249" type="qcurve" smooth="yes"/>
      <point x="94" y="174"/>
      <point x="113" y="89"/>
      <point x="135" y="67" type="qcurve"/>
      <point x="398" y="447" type="line"/>
      <point x="379" y="460"/>
      <point x="321" y="471"/>
    </contour>
    <contour>
      <point x="276" y="27" type="qcurve" smooth="yes"/>
      <point x="380" y="27"/>
      <point x="457" y="122"/>
      <point x="457" y="249" type="qcurve" smooth="yes"/>
      <point x="457" y="320"/>
      <point x="439" y="404"/>
      <point x="419" y="428" type="qcurve"/>
      <point x="158" y="49" type="line"/>
      <point x="177" y="38"/>
      <point x="234" y="27"/>
    </contour>
    <contour>
      <point x="276" y="530" type="move" name="top"/>
    </contour>
  </outline>
</glyph>
<glyph name="thorn" format="1">
  <advance width="544"/>
  <unicode hex="00FE"/>
  <outline>
    <contour>
      <point x="116" y="-152" type="line"/>
      <point x="80" y="-152" type="line"/>
      <point x="80" y="665" type="line"/>
      <point x="116" y="665" type="line"/>
      <point x="116" y="450" type="line"/>
      <point x="151" y="477"/>
      <point x="240" y="504"/>
      <point x="293" y="504" type="qcurve"/>
      <point x="397" y="504"/>
      <point x="487" y="383"/>
      <point x="487" y="249" type="qcurve" smooth="yes"/>
      <point x="487" y="111"/>
      <point x="381" y="-7"/>
      <point x="252" y="-7" type="qcurve"/>
      <point x="212" y="-7"/>
      <point x="145" y="5"/>
      <point x="116" y="17" type="qcurve"/>
    </contour>
    <contour>
      <point x="451" y="249" type="qcurve" smooth="yes"/>
      <point x="451" y="369"/>
      <point x="376" y="471"/>
      <point x="282" y="471" type="qcurve"/>
      <point x="234" y="471"/>
      <point x="149" y="444"/>
      <point x="116" y="419" type="qcurve"/>
      <point x="116" y="51" type="line"/>
      <point x="145" y="39"/>
      <point x="210" y="27"/>
      <point x="249" y="27" type="qcurve"/>
      <point x="364" y="27"/>
      <point x="451" y="126"/>
    </contour>
  </outline>
</glyph>
<glyph name="Aogonek" format="1">
  <advance width="594"/>
  <unicode hex="0104"/>
  <outline>
    <contour>
      <point x="59" y="0" type="line"/>
      <point x="19" y="0" type="line"/>
      <point x="278" y="627" type="line"/>
      <point x="317" y="627" type="line"/>
      <point x="574" y="0" type="line"/>
      <point x="500" y="-16"/>
      <point x="423" y="-75"/>
      <point x="423" y="-117" type="qcurve"/>
      <point x="423" y="-144"/>
      <point x="460" y="-174"/>
      <point x="494" y="-174" type="qcurve"/>
      <point x="511" y="-174"/>
      <point x="542" y="-169"/>
      <point x="564" y="-163" type="qcurve"/>
      <point x="564" y="-193" type="line"/>
      <point x="540" y="-200"/>
      <point x="507" y="-204"/>
      <point x="489" y="-204" type="qcurve"/>
      <point x="442" y="-204"/>
      <point x="390" y="-160"/>
      <point x="390" y="-122" type="qcurve"/>
      <point x="390" y="-75"/>
      <point x="458" y="-10"/>
      <point x="530" y="10" type="qcurve"/>
      <point x="460" y="182" type="line"/>
      <point x="133" y="182" type="line"/>
    </contour>
    <contour>
      <point x="297" y="593" type="qcurve"/>
      <point x="288" y="566"/>
      <point x="265" y="506"/>
      <point x="244" y="456" type="qcurve"/>
      <point x="147" y="216" type="line"/>
      <point x="446" y="216" type="line"/>
      <point x="349" y="456" type="line" smooth="yes"/>
      <point x="327" y="511"/>
      <point x="301" y="580"/>
    </contour>
  </outline>
</glyph>
<glyph name="aogonek" format="1">
  <advance width="498"/>
  <unicode hex="0105"/>
  <outline>
    <contour>
      <point x="191" y="-7" type="qcurve"/>
      <point x="115" y="-7"/>
      <point x="44" y="65"/>
      <point x="44" y="142" type="qcurve"/>
      <point x="44" y="218"/>
      <point x="130" y="282"/>
      <point x="233" y="282" type="qcurve"/>
      <point x="271" y="282"/>
      <point x="344" y="276"/>
      <point x="386" y="269" type="qcurve"/>
      <point x="386" y="327" type="line" smooth="yes"/>
      <point x="386" y="406"/>
      <point x="319" y="471"/>
      <point x="244" y="471" type="qcurve" smooth="yes"/>
      <point x="200" y="471"/>
      <point x="132" y="463"/>
      <point x="95" y="453" type="qcurve"/>
      <point x="95" y="486" type="line"/>
      <point x="138" y="496"/>
      <point x="207" y="504"/>
      <point x="255" y="504" type="qcurve" smooth="yes"/>
      <point x="342" y="504"/>
      <point x="422" y="421"/>
      <point x="422" y="329" type="qcurve"/>
      <point x="422" y="0" type="line"/>
      <point x="348" y="-16"/>
      <point x="271" y="-75"/>
      <point x="271" y="-117" type="qcurve"/>
      <point x="271" y="-144"/>
      <point x="308" y="-174"/>
      <point x="342" y="-174" type="qcurve"/>
      <point x="359" y="-174"/>
      <point x="390" y="-169"/>
      <point x="412" y="-163" type="qcurve"/>
      <point x="412" y="-193" type="line"/>
      <point x="388" y="-200"/>
      <point x="355" y="-204"/>
      <point x="337" y="-204" type="qcurve"/>
      <point x="290" y="-204"/>
      <point x="238" y="-160"/>
      <point x="238" y="-122" type="qcurve"/>
      <point x="238" y="-74"/>
      <point x="311" y="-7"/>
      <point x="390" y="14" type="qcurve"/>
      <point x="388" y="53" type="line"/>
      <point x="387" y="53" type="line"/>
      <point x="356" y="26"/>
      <point x="248" y="-7"/>
    </contour>
    <contour>
      <point x="235" y="251" type="qcurve"/>
      <point x="148" y="251"/>
      <point x="78" y="203"/>
      <point x="78" y="144" type="qcurve"/>
      <point x="78" y="82"/>
      <point x="136" y="27"/>
      <point x="201" y="27" type="qcurve"/>
      <point x="253" y="27"/>
      <point x="357" y="59"/>
      <point x="386" y="83" type="qcurve"/>
      <point x="386" y="238" type="line"/>
      <point x="351" y="244"/>
      <point x="276" y="251"/>
    </contour>
  </outline>
</glyph>
<glyph name="Dcroat" format="1">
  <advance width="621"/>
  <unicode hex="0110"/>
  <outline>
    <contour>
      <point x="26" y="306" type="line"/>
      <point x="26" y="336" type="line"/>
      <point x="96" y="336" type="line"/>
      <point x="96" y="627" type="line"/>
      <point x="253" y="627" type="line" smooth="yes"/>
      <point x="350" y="627"/>
      <point x="464" y="596"/>
      <point x="497" y="561" type="qcurve" smooth="yes"/>
      <point x="530" y="526"/>
      <point x="561" y="408"/>
      <point x="561" y="314" type="qcurve"/>
      <point x="561" y="151"/>
      <point x="415" y="0"/>
      <point x="253" y="0" type="qcurve"/>
      <point x="96" y="0" type="line"/>
      <point x="96" y="306" type="line"/>
    </contour>
    <contour>
      <point x="328" y="336" type="line"/>
      <point x="328" y="306" type="line"/>
      <point x="133" y="306" type="line"/>
      <point x="133" y="35" type="line"/>
      <point x="253" y="35" type="line" smooth="yes"/>
      <point x="397" y="35"/>
      <point x="523" y="166"/>
      <point x="523" y="314" type="qcurve"/>
      <point x="523" y="398"/>
      <point x="497" y="503"/>
      <point x="469" y="533" type="qcurve" smooth="yes"/>
      <point x="440" y="564"/>
      <point x="340" y="592"/>
      <point x="253" y="592" type="qcurve"/>
      <point x="133" y="592" type="line"/>
      <point x="133" y="336" type="line"/>
    </contour>
  </outline>
</glyph>
<glyph name="dcroat" format="1">
  <advance width="544"/>
  <unicode hex="0111"/>
  <outline>
    <contour>
      <point x="534" y="611" type="line"/>
      <point x="534" y="584" type="line"/>
      <point x="464" y="584" type="line"/>
      <point x="464" y="0" type="line"/>
      <point x="434" y="0" type="line"/>
      <point x="431" y="49" type="line"/>
      <point x="428" y="49" type="line"/>
      <point x="428" y="50" type="line"/>
      <point x="393" y="21"/>
      <point x="306" y="-7"/>
      <point x="251" y="-7" type="qcurve"/>
      <point x="148" y="-7"/>
      <point x="57" y="112"/>
      <point x="57" y="243" type="qcurve" smooth="yes"/>
      <point x="57" y="377"/>
      <point x="164" y="493"/>
      <point x="292" y="493" type="qcurve"/>
      <point x="334" y="493"/>
      <point x="401" y="481"/>
      <point x="428" y="469" type="qcurve"/>
      <point x="428" y="584" type="line"/>
      <point x="230" y="584" type="line"/>
      <point x="230" y="611" type="line"/>
      <point x="428" y="611" type="line"/>
      <point x="428" y="665" type="line"/>
      <point x="464" y="665" type="line"/>
      <point x="464" y="611" type="line"/>
    </contour>
    <contour>
      <point x="295" y="459" type="qcurve"/>
      <point x="180" y="459"/>
      <point x="93" y="362"/>
      <point x="93" y="243" type="qcurve" smooth="yes"/>
      <point x="93" y="126"/>
      <point x="168" y="27"/>
      <point x="262" y="27" type="qcurve"/>
      <point x="311" y="27"/>
      <point x="396" y="53"/>
      <point x="428" y="79" type="qcurve"/>
      <point x="428" y="436" type="line"/>
      <point x="400" y="448"/>
      <point x="335" y="459"/>
    </contour>
  </outline>
</glyph>
<glyph name="Eogonek" format="1">
  <advance width="534"/>
  <unicode hex="0118"/>
  <outline>
    <contour>
      <point x="493" y="0" type="line"/>
      <point x="429" y="0" type="line"/>
      <point x="355" y="-16"/>
      <point x="278" y="-75"/>
      <point x="278" y="-117" type="qcurve"/>
      <point x="278" y="-144"/>
      <point x="315" y="-174"/>
      <point x="349" y="-174" type="qcurve"/>
      <point x="366" y="-174"/>
      <point x="397" y="-169"/>
      <point x="419" y="-163" type="qcurve"/>
      <point x="419" y="-193" type="line"/>
      <point x="395" y="-200"/>
      <point x="362" y="-204"/>
      <point x="344" y="-204" type="qcurve"/>
      <point x="297" y="-204"/>
      <point x="245" y="-160"/>
      <point x="245" y="-122" type="qcurve"/>
      <point x="245" y="-81"/>
      <point x="299" y="-20"/>
      <point x="353" y="0" type="qcurve"/>
      <point x="88" y="0" type="line"/>
      <point x="88" y="627" type="line"/>
      <point x="484" y="627" type="line"/>
      <point x="484" y="592" type="line"/>
      <point x="125" y="592" type="line"/>
      <point x="125" y="339" type="line"/>
      <point x="447" y="339" type="line"/>
      <point x="447" y="305" type="line"/>
      <point x="125" y="305" type="line"/>
      <point x="125" y="35" type="line"/>
      <point x="493" y="35" type="line"/>
    </contour>
  </outline>
</glyph>
<glyph name="eogonek" format="1">
  <advance width="502"/>
  <unicode hex="0119"/>
  <outline>
    <contour>
      <point x="430" y="60" type="qcurve"/>
      <point x="430" y="27" type="line"/>
      <point x="423" y="23"/>
      <point x="399" y="15"/>
      <point x="378" y="8" type="qcurve"/>
      <point x="311" y="-22"/>
      <point x="242" y="-95"/>
      <point x="242" y="-136" type="qcurve"/>
      <point x="242" y="-163"/>
      <point x="279" y="-194"/>
      <point x="311" y="-194" type="qcurve"/>
      <point x="327" y="-194"/>
      <point x="366" y="-188"/>
      <point x="384" y="-183" type="qcurve"/>
      <point x="384" y="-212" type="line"/>
      <point x="364" y="-217"/>
      <point x="324" y="-223"/>
      <point x="307" y="-223" type="qcurve"/>
      <point x="261" y="-223"/>
      <point x="211" y="-179"/>
      <point x="211" y="-141" type="qcurve"/>
      <point x="211" y="-102"/>
      <point x="257" y="-33"/>
      <point x="303" y="-5" type="qcurve"/>
      <point x="289" y="-6"/>
      <point x="272" y="-7"/>
      <point x="265" y="-7" type="qcurve" smooth="yes"/>
      <point x="153" y="-7"/>
      <point x="57" y="113"/>
      <point x="57" y="251" type="qcurve" smooth="yes"/>
      <point x="57" y="384"/>
      <point x="154" y="504"/>
      <point x="264" y="504" type="qcurve"/>
      <point x="362" y="504"/>
      <point x="451" y="407"/>
      <point x="451" y="301" type="qcurve"/>
      <point x="451" y="286"/>
      <point x="449" y="255"/>
      <point x="446" y="239" type="qcurve"/>
      <point x="93" y="239" type="line"/>
      <point x="93" y="126"/>
      <point x="174" y="27"/>
      <point x="272" y="27" type="qcurve" smooth="yes"/>
      <point x="312" y="27"/>
      <point x="402" y="46"/>
    </contour>
    <contour>
      <point x="416" y="304" type="qcurve"/>
      <point x="416" y="393"/>
      <point x="344" y="471"/>
      <point x="264" y="471" type="qcurve"/>
      <point x="172" y="471"/>
      <point x="93" y="378"/>
      <point x="93" y="271" type="qcurve"/>
      <point x="415" y="271" type="line"/>
      <point x="415" y="273"/>
      <point x="415" y="278"/>
      <point x="415" y="283" type="qcurve" smooth="yes"/>
      <point x="416" y="291"/>
      <point x="416" y="300"/>
    </contour>
  </outline>
</glyph>
<glyph name="Hbar" format="1">
  <advance width="669"/>
  <unicode hex="0126"/>
  <outline>
    <contour>
      <point x="133" y="0" type="line"/>
      <point x="96" y="0" type="line"/>
      <point x="96" y="482" type="line"/>
      <point x="27" y="482" type="line"/>
      <point x="27" y="511" type="line"/>
      <point x="96" y="511" type="line"/>
      <point x="96" y="627" type="line"/>
      <point x="133" y="627" type="line"/>
      <point x="133" y="511" type="line"/>
      <point x="535" y="511" type="line"/>
      <point x="535" y="627" type="line"/>
      <point x="573" y="627" type="line"/>
      <point x="573" y="511" type="line"/>
      <point x="642" y="511" type="line"/>
      <point x="642" y="482" type="line"/>
      <point x="573" y="482" type="line"/>
      <point x="573" y="0" type="line"/>
      <point x="535" y="0" type="line"/>
      <point x="535" y="301" type="line"/>
      <point x="133" y="301" type="line"/>
    </contour>
    <contour>
      <point x="133" y="482" type="line"/>
      <point x="133" y="335" type="line"/>
      <point x="535" y="335" type="line"/>
      <point x="535" y="482" type="line"/>
    </contour>
  </outline>
</glyph>
<glyph name="hbar" format="1">
  <advance width="552"/>
  <unicode hex="0127"/>
  <outline>
    <contour>
      <point x="116" y="0" type="line"/>
      <point x="80" y="0" type="line"/>
      <point x="80" y="584" type="line"/>
      <point x="10" y="584" type="line"/>
      <point x="10" y="611" type="line"/>
      <point x="80" y="611" type="line"/>
      <point x="80" y="665" type="line"/>
      <point x="116" y="665" type="line"/>
      <point x="116" y="611" type="line"/>
      <point x="315" y="611" type="line"/>
      <point x="315" y="584" type="line"/>
      <point x="116" y="584" type="line"/>
      <point x="116" y="448" type="line"/>
      <point x="170" y="478"/>
      <point x="263" y="504"/>
      <point x="312" y="504" type="qcurve" smooth="yes"/>
      <point x="392" y="504"/>
      <point x="476" y="422"/>
      <point x="476" y="342" type="qcurve"/>
      <point x="476" y="0" type="line"/>
      <point x="440" y="0" type="line"/>
      <point x="440" y="339" type="line" smooth="yes"/>
      <point x="440" y="407"/>
      <point x="372" y="471"/>
      <point x="300" y="471" type="qcurve" smooth="yes"/>
      <point x="257" y="471"/>
      <point x="164" y="444"/>
      <point x="116" y="418" type="qcurve"/>
    </contour>
  </outline>
</glyph>
<glyph name="Iogonek" format="1">
  <advance width="214"/>
  <unicode hex="012E"/>
  <outline>
    <contour>
      <point x="127" y="627" type="line"/>
      <point x="127" y="0" type="line"/>
      <point x="53" y="-16"/>
      <point x="-24" y="-75"/>
      <point x="-24" y="-117" type="qcurve"/>
      <point x="-24" y="-144"/>
      <point x="13" y="-174"/>
      <point x="47" y="-174" type="qcurve"/>
      <point x="64" y="-174"/>
      <point x="95" y="-169"/>
      <point x="117" y="-163" type="qcurve"/>
      <point x="117" y="-193" type="line"/>
      <point x="93" y="-200"/>
      <point x="60" y="-204"/>
      <point x="42" y="-204" type="qcurve"/>
      <point x="-5" y="-204"/>
      <point x="-57" y="-160"/>
      <point x="-57" y="-122" type="qcurve"/>
      <point x="-57" y="-74"/>
      <point x="14" y="-9"/>
      <point x="90" y="12" type="qcurve"/>
      <point x="90" y="627" type="line"/>
    </contour>
  </outline>
</glyph>
<glyph name="iogonek" format="1">
  <advance width="199"/>
  <unicode hex="012F"/>
  <outline>
    <contour>
      <point x="121" y="618" type="line"/>
      <point x="81" y="618" type="line"/>
      <point x="81" y="664" type="line"/>
      <point x="121" y="664" type="line"/>
    </contour>
    <contour>
      <point x="119" y="494" type="line"/>
      <point x="119" y="0" type="line"/>
      <point x="45" y="-16"/>
      <point x="-32" y="-75"/>
      <point x="-32" y="-117" type="qcurve"/>
      <point x="-32" y="-144"/>
      <point x="5" y="-174"/>
      <point x="39" y="-174" type="qcurve"/>
      <point x="56" y="-174"/>
      <point x="87" y="-169"/>
      <point x="109" y="-163" type="qcurve"/>
      <point x="109" y="-193" type="line"/>
      <point x="85" y="-200"/>
      <point x="52" y="-204"/>
      <point x="34" y="-204" type="qcurve"/>
      <point x="-13" y="-204"/>
      <point x="-65" y="-160"/>
      <point x="-65" y="-122" type="qcurve"/>
      <point x="-65" y="-74"/>
      <point x="8" y="-7"/>
      <point x="83" y="12" type="qcurve"/>
      <point x="83" y="494" type="line"/>
    </contour>
  </outline>
</glyph>
<glyph name="dotlessi" format="1">
  <advance width="196"/>
  <unicode hex="0131"/>
  <outline>
    <contour>
      <point x="116" y="0" type="line"/>
      <point x="80" y="0" type="line"/>
      <point x="80" y="494" type="line"/>
      <point x="116" y="494" type="line"/>
    </contour>
    <contour>
      <point x="98" y="520" type="move" name="top"/>
    </contour>
  </outline>
</glyph>
<glyph name="Lslash" format="1">
  <advance width="505"/>
  <unicode hex="0141"/>
  <outline>
    <contour>
      <point x="483" y="35" type="line"/>
      <point x="483" y="0" type="line"/>
      <point x="110" y="0" type="line"/>
      <point x="110" y="297" type="line"/>
      <point x="39" y="277" type="line"/>
      <point x="39" y="308" type="line"/>
      <point x="110" y="328" type="line"/>
      <point x="110" y="627" type="line"/>
      <point x="147" y="627" type="line"/>
      <point x="147" y="339" type="line"/>
      <point x="356" y="399" type="line"/>
      <point x="356" y="368" type="line"/>
      <point x="147" y="308" type="line"/>
      <point x="147" y="35" type="line"/>
    </contour>
  </outline>
</glyph>
<glyph name="lslash" format="1">
  <advance width="260"/>
  <unicode hex="0142"/>
  <outline>
    <contour>
      <point x="139" y="315" type="line"/>
      <point x="139" y="0" type="line"/>
      <point x="103" y="0" type="line"/>
      <point x="103" y="305" type="line"/>
      <point x="35" y="284" type="line"/>
      <point x="35" y="315" type="line"/>
      <point x="103" y="336" type="line"/>
      <point x="103" y="665" type="line"/>
      <point x="139" y="665" type="line"/>
      <point x="139" y="346" type="line"/>
      <point x="230" y="374" type="line"/>
      <point x="230" y="343" type="line"/>
    </contour>
  </outline>
</glyph>
<glyph name="Eng" format="1">
  <advance width="669"/>
  <unicode hex="014A"/>
  <outline>
    <contour>
      <point x="581" y="627" type="line"/>
      <point x="581" y="2" type="line" smooth="yes"/>
      <point x="581" y="-79"/>
      <point x="508" y="-163"/>
      <point x="437" y="-163" type="qcurve"/>
      <point x="421" y="-163"/>
      <point x="389" y="-161"/>
      <point x="362" y="-157" type="qcurve"/>
      <point x="362" y="-124" type="line"/>
      <point x="379" y="-127"/>
      <point x="410" y="-130"/>
      <point x="427" y="-130" type="qcurve"/>
      <point x="488" y="-130"/>
      <point x="544" y="-66"/>
      <point x="545" y="4" type="qcurve"/>
      <point x="124" y="573" type="line"/>
      <point x="124" y="0" type="line"/>
      <point x="88" y="0" type="line"/>
      <point x="88" y="627" type="line"/>
      <point x="132" y="627" type="line"/>
      <point x="545" y="67" type="line"/>
      <point x="545" y="627" type="line"/>
    </contour>
  </outline>
</glyph>
<glyph name="eng" format="1">
  <advance width="553"/>
  <unicode hex="014B"/>
  <outline>
    <contour>
      <point x="116" y="0" type="line"/>
      <point x="80" y="0" type="line"/>
      <point x="80" y="494" type="line"/>
      <point x="110" y="494" type="line"/>
      <point x="113" y="447" type="line"/>
      <point x="116" y="447" type="line"/>
      <point x="116" y="447" type="line"/>
      <point x="169" y="477"/>
      <point x="261" y="504"/>
      <point x="312" y="504" type="qcurve" smooth="yes"/>
      <point x="393" y="504"/>
      <point x="476" y="422"/>
      <point x="476" y="342" type="qcurve"/>
      <point x="476" y="5" type="line" smooth="yes"/>
      <point x="476" y="-79"/>
      <point x="405" y="-162"/>
      <point x="332" y="-162" type="qcurve"/>
      <point x="311" y="-162"/>
      <point x="275" y="-159"/>
      <point x="258" y="-156" type="qcurve"/>
      <point x="258" y="-123" type="line"/>
      <point x="275" y="-126"/>
      <point x="306" y="-129"/>
      <point x="323" y="-129" type="qcurve"/>
      <point x="384" y="-129"/>
      <point x="440" y="-64"/>
      <point x="440" y="7" type="qcurve"/>
      <point x="440" y="339" type="line" smooth="yes"/>
      <point x="440" y="406"/>
      <point x="371" y="471"/>
      <point x="299" y="471" type="qcurve" smooth="yes"/>
      <point x="256" y="471"/>
      <point x="167" y="444"/>
      <point x="116" y="415" type="qcurve"/>
    </contour>
  </outline>
</glyph>
<glyph name="OE" format="1">
  <advance width="899"/>
  <unicode hex="0152"/>
  <outline>
    <contour>
      <point x="316" y="-7" type="qcurve"/>
      <point x="227" y="-7"/>
      <point x="127" y="33"/>
      <point x="101" y="78" type="qcurve" smooth="yes"/>
      <point x="80" y="114"/>
      <point x="61" y="228"/>
      <point x="61" y="316" type="qcurve"/>
      <point x="61" y="490"/>
      <point x="178" y="637"/>
      <point x="316" y="637" type="qcurve"/>
      <point x="348" y="637"/>
      <point x="401" y="632"/>
      <point x="423" y="627" type="qcurve"/>
      <point x="849" y="627" type="line"/>
      <point x="849" y="592" type="line"/>
      <point x="497" y="592" type="line"/>
      <point x="534" y="562"/>
      <point x="568" y="443"/>
      <point x="570" y="339" type="qcurve"/>
      <point x="812" y="339" type="line"/>
      <point x="812" y="306" type="line"/>
      <point x="570" y="306" type="line"/>
      <point x="569" y="201"/>
      <point x="525" y="70"/>
      <point x="478" y="35" type="qcurve"/>
      <point x="858" y="35" type="line"/>
      <point x="858" y="0" type="line"/>
      <point x="395" y="0" type="line"/>
      <point x="378" y="-4"/>
      <point x="339" y="-7"/>
    </contour>
    <contour>
      <point x="129" y="104" type="qcurve" smooth="yes"/>
      <point x="150" y="64"/>
      <point x="234" y="29"/>
      <point x="316" y="29" type="qcurve"/>
      <point x="437" y="29"/>
      <point x="532" y="156"/>
      <point x="532" y="316" type="qcurve"/>
      <point x="532" y="396"/>
      <point x="518" y="496"/>
      <point x="502" y="527" type="qcurve" smooth="yes"/>
      <point x="482" y="568"/>
      <point x="399" y="602"/>
      <point x="316" y="602" type="qcurve"/>
      <point x="193" y="602"/>
      <point x="98" y="476"/>
      <point x="98" y="316" type="qcurve"/>
      <point x="98" y="236"/>
      <point x="113" y="135"/>
    </contour>
  </outline>
</glyph>
<glyph name="oe" format="1">
  <advance width="867"/>
  <unicode hex="0153"/>
  <outline>
    <contour>
      <point x="461" y="125" type="qcurve"/>
      <point x="444" y="55"/>
      <point x="354" y="-7"/>
      <point x="269" y="-7" type="qcurve" smooth="yes"/>
      <point x="147" y="-7"/>
      <point x="59" y="100"/>
      <point x="59" y="249" type="qcurve" smooth="yes"/>
      <point x="59" y="390"/>
      <point x="153" y="504"/>
      <point x="269" y="504" type="qcurve" smooth="yes"/>
      <point x="361" y="504"/>
      <point x="447" y="447"/>
      <point x="462" y="377" type="qcurve"/>
      <point x="479" y="442"/>
      <point x="566" y="504"/>
      <point x="640" y="504" type="qcurve"/>
      <point x="733" y="504"/>
      <point x="816" y="408"/>
      <point x="816" y="301" type="qcurve"/>
      <point x="816" y="288"/>
      <point x="814" y="261"/>
      <point x="812" y="239" type="qcurve"/>
      <point x="479" y="239" type="line"/>
      <point x="479" y="126"/>
      <point x="555" y="27"/>
      <point x="647" y="27" type="qcurve" smooth="yes"/>
      <point x="685" y="27"/>
      <point x="767" y="46"/>
      <point x="795" y="60" type="qcurve"/>
      <point x="795" y="27" type="line"/>
      <point x="769" y="13"/>
      <point x="683" y="-7"/>
      <point x="641" y="-7" type="qcurve" smooth="yes"/>
      <point x="563" y="-7"/>
      <point x="478" y="56"/>
    </contour>
    <contour>
      <point x="95" y="249" type="qcurve" smooth="yes"/>
      <point x="95" y="116"/>
      <point x="165" y="27"/>
      <point x="269" y="27" type="qcurve" smooth="yes"/>
      <point x="369" y="27"/>
      <point x="443" y="122"/>
      <point x="443" y="249" type="qcurve" smooth="yes"/>
      <point x="443" y="381"/>
      <point x="373" y="471"/>
      <point x="269" y="471" type="qcurve" smooth="yes"/>
      <point x="169" y="471"/>
      <point x="95" y="376"/>
    </contour>
    <contour>
      <point x="782" y="304" type="qcurve"/>
      <point x="782" y="392"/>
      <point x="714" y="471"/>
      <point x="640" y="471" type="qcurve"/>
      <point x="554" y="471"/>
      <point x="479" y="378"/>
      <point x="479" y="271" type="qcurve"/>
      <point x="780" y="271" type="line"/>
      <point x="781" y="279"/>
      <point x="782" y="295"/>
    </contour>
  </outline>
</glyph>
<glyph name="Scedilla" format="1">
  <advance width="517"/>
  <unicode hex="015E"/>
  <outline>
    <contour>
      <point x="335" y="284" type="qcurve"/>
      <point x="166" y="324" type="line" smooth="yes"/>
      <point x="107" y="338"/>
      <point x="54" y="406"/>
      <point x="54" y="467" type="qcurve"/>
      <point x="54" y="556"/>
      <point x="158" y="637"/>
      <point x="271" y="637" type="qcurve" smooth="yes"/>
      <point x="317" y="637"/>
      <point x="394" y="628"/>
      <point x="426" y="619" type="qcurve"/>
      <point x="426" y="584" type="line"/>
      <point x="392" y="593"/>
      <point x="312" y="602"/>
      <point x="270" y="602" type="qcurve" smooth="yes"/>
      <point x="173" y="602"/>
      <point x="91" y="541"/>
      <point x="91" y="469" type="qcurve"/>
      <point x="91" y="421"/>
      <point x="132" y="372"/>
      <point x="179" y="360" type="qcurve"/>
      <point x="348" y="319" type="line" smooth="yes"/>
      <point x="421" y="301"/>
      <point x="474" y="238"/>
      <point x="474" y="171" type="qcurve"/>
      <point x="474" y="72"/>
      <point x="374" y="-7"/>
      <point x="262" y="-7" type="qcurve"/>
      <point x="258" y="-7" type="line"/>
      <point x="247" y="-55" type="line"/>
      <point x="311" y="-51"/>
      <point x="373" y="-83"/>
      <point x="374" y="-120" type="qcurve"/>
      <point x="374" y="-160"/>
      <point x="324" y="-195"/>
      <point x="268" y="-195" type="qcurve" smooth="yes"/>
      <point x="235" y="-195"/>
      <point x="179" y="-189"/>
      <point x="158" y="-183" type="qcurve"/>
      <point x="158" y="-156" type="line"/>
      <point x="177" y="-161"/>
      <point x="233" y="-167"/>
      <point x="267" y="-167" type="qcurve" smooth="yes"/>
      <point x="308" y="-167"/>
      <point x="340" y="-147"/>
      <point x="340" y="-120" type="qcurve"/>
      <point x="340" y="-98"/>
      <point x="301" y="-77"/>
      <point x="259" y="-77" type="qcurve"/>
      <point x="250" y="-77"/>
      <point x="229" y="-78"/>
      <point x="210" y="-79" type="qcurve"/>
      <point x="226" y="-6" type="line"/>
      <point x="177" y="-4"/>
      <point x="84" y="12"/>
      <point x="53" y="24" type="qcurve"/>
      <point x="53" y="59" type="line"/>
      <point x="102" y="44"/>
      <point x="207" y="29"/>
      <point x="262" y="29" type="qcurve"/>
      <point x="358" y="29"/>
      <point x="435" y="88"/>
      <point x="435" y="172" type="qcurve"/>
      <point x="435" y="223"/>
      <point x="394" y="270"/>
    </contour>
  </outline>
</glyph>
<glyph name="scedilla" format="1">
  <advance width="446"/>
  <unicode hex="015F"/>
  <outline>
    <contour>
      <point x="343" y="-120" type="qcurve"/>
      <point x="343" y="-160"/>
      <point x="293" y="-195"/>
      <point x="237" y="-195" type="qcurve" smooth="yes"/>
      <point x="204" y="-195"/>
      <point x="148" y="-189"/>
      <point x="127" y="-183" type="qcurve"/>
      <point x="127" y="-156" type="line"/>
      <point x="146" y="-161"/>
      <point x="202" y="-167"/>
      <point x="236" y="-167" type="qcurve" smooth="yes"/>
      <point x="277" y="-167"/>
      <point x="309" y="-147"/>
      <point x="309" y="-120" type="qcurve"/>
      <point x="309" y="-98"/>
      <point x="270" y="-77"/>
      <point x="228" y="-77" type="qcurve"/>
      <point x="219" y="-77"/>
      <point x="198" y="-78"/>
      <point x="179" y="-79" type="qcurve"/>
      <point x="195" y="-6" type="line"/>
      <point x="153" y="-4"/>
      <point x="76" y="9"/>
      <point x="49" y="18" type="qcurve"/>
      <point x="49" y="53" type="line"/>
      <point x="79" y="41"/>
      <point x="177" y="27"/>
      <point x="232" y="27" type="qcurve" smooth="yes"/>
      <point x="305" y="27"/>
      <point x="366" y="80"/>
      <point x="366" y="141" type="qcurve" smooth="yes"/>
      <point x="366" y="184"/>
      <point x="329" y="222"/>
      <point x="278" y="231" type="qcurve"/>
      <point x="147" y="252" type="line" smooth="yes"/>
      <point x="100" y="260"/>
      <point x="57" y="311"/>
      <point x="57" y="359" type="qcurve" smooth="yes"/>
      <point x="57" y="437"/>
      <point x="141" y="504"/>
      <point x="233" y="504" type="qcurve" smooth="yes"/>
      <point x="261" y="504"/>
      <point x="309" y="502"/>
      <point x="368" y="494" type="qcurve"/>
      <point x="368" y="461" type="line"/>
      <point x="332" y="466"/>
      <point x="268" y="471"/>
      <point x="235" y="471" type="qcurve" smooth="yes"/>
      <point x="158" y="471"/>
      <point x="93" y="424"/>
      <point x="93" y="360" type="qcurve" smooth="yes"/>
      <point x="93" y="326"/>
      <point x="124" y="291"/>
      <point x="159" y="285" type="qcurve"/>
      <point x="291" y="264" type="line" smooth="yes"/>
      <point x="354" y="254"/>
      <point x="402" y="201"/>
      <point x="402" y="142" type="qcurve" smooth="yes"/>
      <point x="402" y="64"/>
      <point x="323" y="-7"/>
      <point x="236" y="-7" type="qcurve"/>
      <point x="227" y="-7" type="line"/>
      <point x="216" y="-55" type="line"/>
      <point x="280" y="-51"/>
      <point x="342" y="-83"/>
    </contour>
  </outline>
</glyph>
<glyph name="Tbar" format="1">
  <advance width="562"/>
  <unicode hex="0166"/>
  <outline>
    <contour>
      <point x="480" y="337" type="line"/>
      <point x="480" y="307" type="line"/>
      <point x="300" y="307" type="line"/>
      <point x="300" y="0" type="line"/>
      <point x="262" y="0" type="line"/>
      <point x="262" y="307" type="line"/>
      <point x="82" y="307" type="line"/>
      <point x="82" y="337" type="line"/>
      <point x="262" y="337" type="line"/>
      <point x="262" y="592" type="line"/>
      <point x="29" y="592" type="line"/>
      <point x="29" y="627" type="line"/>
      <point x="533" y="627" type="line"/>
      <point x="533" y="592" type="line"/>
      <point x="300" y="592" type="line"/>
      <point x="300" y="337" type="line"/>
    </contour>
  </outline>
</glyph>
<glyph name="tbar" format="1">
  <advance width="381"/>
  <unicode hex="0167"/>
  <outline>
    <contour>
      <point x="360" y="38" type="qcurve"/>
      <point x="360" y="7" type="line"/>
      <point x="342" y="0"/>
      <point x="295" y="-7"/>
      <point x="270" y="-7" type="qcurve" smooth="yes"/>
      <point x="186" y="-7"/>
      <point x="117" y="70"/>
      <point x="117" y="170" type="qcurve"/>
      <point x="117" y="273" type="line"/>
      <point x="34" y="273" type="line"/>
      <point x="34" y="302" type="line"/>
      <point x="117" y="302" type="line"/>
      <point x="117" y="462" type="line"/>
      <point x="32" y="462" type="line"/>
      <point x="32" y="494" type="line"/>
      <point x="117" y="494" type="line"/>
      <point x="124" y="618" type="line"/>
      <point x="153" y="618" type="line"/>
      <point x="153" y="494" type="line"/>
      <point x="354" y="494" type="line"/>
      <point x="354" y="462" type="line"/>
      <point x="153" y="462" type="line"/>
      <point x="153" y="302" type="line"/>
      <point x="354" y="302" type="line"/>
      <point x="354" y="273" type="line"/>
      <point x="153" y="273" type="line"/>
      <point x="153" y="171" type="line" smooth="yes"/>
      <point x="153" y="88"/>
      <point x="208" y="27"/>
      <point x="277" y="27" type="qcurve" smooth="yes"/>
      <point x="298" y="27"/>
      <point x="346" y="33"/>
    </contour>
  </outline>
</glyph>
<glyph name="Uogonek" format="1">
  <advance width="641"/>
  <unicode hex="0172"/>
  <outline>
    <contour>
      <point x="521" y="241" type="qcurve"/>
      <point x="521" y="627" type="line"/>
      <point x="559" y="627" type="line"/>
      <point x="559" y="241" type="line" smooth="yes"/>
      <point x="559" y="144"/>
      <point x="495" y="31"/>
      <point x="428" y="8" type="qcurve"/>
      <point x="364" y="-22"/>
      <point x="298" y="-93"/>
      <point x="298" y="-133" type="qcurve"/>
      <point x="298" y="-160"/>
      <point x="335" y="-191"/>
      <point x="367" y="-191" type="qcurve"/>
      <point x="383" y="-191"/>
      <point x="422" y="-185"/>
      <point x="440" y="-180" type="qcurve"/>
      <point x="440" y="-209" type="line"/>
      <point x="420" y="-214"/>
      <point x="380" y="-220"/>
      <point x="363" y="-220" type="qcurve"/>
      <point x="317" y="-220"/>
      <point x="267" y="-176"/>
      <point x="267" y="-138" type="qcurve"/>
      <point x="267" y="-100"/>
      <point x="312" y="-33"/>
      <point x="354" y="-6" type="qcurve"/>
      <point x="348" y="-7"/>
      <point x="333" y="-7"/>
      <point x="317" y="-7" type="qcurve"/>
      <point x="195" y="-7"/>
      <point x="82" y="112"/>
      <point x="82" y="241" type="qcurve"/>
      <point x="82" y="627" type="line"/>
      <point x="120" y="627" type="line"/>
      <point x="120" y="241" type="line" smooth="yes"/>
      <point x="120" y="125"/>
      <point x="211" y="29"/>
      <point x="317" y="29" type="qcurve"/>
      <point x="427" y="29"/>
      <point x="521" y="126"/>
    </contour>
  </outline>
</glyph>
<glyph name="uogonek" format="1">
  <advance width="541"/>
  <unicode hex="0173"/>
  <outline>
    <contour>
      <point x="239" y="-7" type="qcurve" smooth="yes"/>
      <point x="158" y="-7"/>
      <point x="76" y="75"/>
      <point x="76" y="156" type="qcurve"/>
      <point x="76" y="494" type="line"/>
      <point x="112" y="494" type="line"/>
      <point x="112" y="159" type="line" smooth="yes"/>
      <point x="112" y="91"/>
      <point x="179" y="27"/>
      <point x="251" y="27" type="qcurve" smooth="yes"/>
      <point x="293" y="27"/>
      <point x="380" y="53"/>
      <point x="425" y="80" type="qcurve"/>
      <point x="425" y="494" type="line"/>
      <point x="461" y="494" type="line"/>
      <point x="461" y="0" type="line"/>
      <point x="387" y="-16"/>
      <point x="310" y="-75"/>
      <point x="310" y="-117" type="qcurve"/>
      <point x="310" y="-144"/>
      <point x="347" y="-174"/>
      <point x="381" y="-174" type="qcurve"/>
      <point x="398" y="-174"/>
      <point x="429" y="-169"/>
      <point x="451" y="-163" type="qcurve"/>
      <point x="451" y="-193" type="line"/>
      <point x="427" y="-200"/>
      <point x="394" y="-204"/>
      <point x="376" y="-204" type="qcurve"/>
      <point x="329" y="-204"/>
      <point x="277" y="-160"/>
      <point x="277" y="-122" type="qcurve"/>
      <point x="277" y="-74"/>
      <point x="350" y="-7"/>
      <point x="429" y="14" type="qcurve"/>
      <point x="427" y="50" type="line"/>
      <point x="426" y="50" type="line"/>
      <point x="376" y="21"/>
      <point x="284" y="-7"/>
    </contour>
  </outline>
</glyph>
<glyph name="uni018F" format="1">
  <advance width="611"/>
  <unicode hex="018F"/>
  <outline>
    <contour>
      <point x="270" y="637" type="qcurve"/>
      <point x="423" y="637"/>
      <point x="551" y="491"/>
      <point x="551" y="314" type="qcurve" smooth="yes"/>
      <point x="551" y="144"/>
      <point x="431" y="-7"/>
      <point x="293" y="-7" type="qcurve"/>
      <point x="171" y="-7"/>
      <point x="51" y="114"/>
      <point x="51" y="238" type="qcurve"/>
      <point x="51" y="254"/>
      <point x="52" y="284"/>
      <point x="56" y="335" type="qcurve"/>
      <point x="513" y="335" type="line"/>
      <point x="509" y="482"/>
      <point x="399" y="602"/>
      <point x="267" y="602" type="qcurve" smooth="yes"/>
      <point x="222" y="602"/>
      <point x="149" y="591"/>
      <point x="110" y="578" type="qcurve"/>
      <point x="110" y="612" type="line"/>
      <point x="142" y="624"/>
      <point x="222" y="637"/>
    </contour>
    <contour>
      <point x="88" y="236" type="qcurve"/>
      <point x="88" y="130"/>
      <point x="189" y="28"/>
      <point x="293" y="28" type="qcurve"/>
      <point x="412" y="28"/>
      <point x="511" y="153"/>
      <point x="513" y="301" type="qcurve"/>
      <point x="91" y="301" type="line"/>
      <point x="89" y="289"/>
      <point x="88" y="257"/>
    </contour>
  </outline>
</glyph>
<glyph name="florin" format="1">
  <advance width="409"/>
  <unicode hex="0192"/>
  <outline>
    <contour>
      <point x="123" y="326" type="line"/>
      <point x="44" y="326" type="line"/>
      <point x="44" y="359" type="line"/>
      <point x="128" y="359" type="line"/>
      <point x="147" y="477" type="line" smooth="yes"/>
      <point x="162" y="572"/>
      <point x="232" y="635"/>
      <point x="306" y="635" type="qcurve"/>
      <point x="328" y="635"/>
      <point x="366" y="632"/>
      <point x="384" y="628" type="qcurve"/>
      <point x="384" y="594" type="line"/>
      <point x="372" y="597"/>
      <point x="329" y="601"/>
      <point x="305" y="601" type="qcurve"/>
      <point x="248" y="601"/>
      <point x="197" y="555"/>
      <point x="184" y="473" type="qcurve"/>
      <point x="166" y="359" type="line"/>
      <point x="359" y="359" type="line"/>
      <point x="359" y="326" type="line"/>
      <point x="160" y="326" type="line"/>
      <point x="84" y="-152" type="line"/>
      <point x="47" y="-152" type="line"/>
    </contour>
  </outline>
</glyph>
<glyph name="uni01B5" format="1">
  <advance width="526"/>
  <unicode hex="01B5"/>
  <outline>
    <contour>
      <point x="494" y="35" type="line"/>
      <point x="494" y="0" type="line"/>
      <point x="37" y="0" type="line"/>
      <point x="37" y="35" type="line"/>
      <point x="232" y="310" type="line"/>
      <point x="61" y="310" type="line"/>
      <point x="61" y="340" type="line"/>
      <point x="253" y="340" type="line"/>
      <point x="432" y="592" type="line"/>
      <point x="66" y="592" type="line"/>
      <point x="66" y="627" type="line"/>
      <point x="475" y="627" type="line"/>
      <point x="475" y="592" type="line"/>
      <point x="297" y="340" type="line"/>
      <point x="470" y="340" type="line"/>
      <point x="470" y="310" type="line"/>
      <point x="276" y="310" type="line"/>
      <point x="81" y="35" type="line"/>
    </contour>
  </outline>
</glyph>
<glyph name="uni01B6" format="1">
  <advance width="439"/>
  <unicode hex="01B6"/>
  <outline>
    <contour>
      <point x="402" y="33" type="line"/>
      <point x="402" y="0" type="line"/>
      <point x="40" y="0" type="line"/>
      <point x="40" y="33" type="line"/>
      <point x="191" y="246" type="line"/>
      <point x="61" y="246" type="line"/>
      <point x="61" y="275" type="line"/>
      <point x="211" y="275" type="line"/>
      <point x="344" y="462" type="line"/>
      <point x="58" y="462" type="line"/>
      <point x="58" y="494" type="line"/>
      <point x="385" y="494" type="line"/>
      <point x="385" y="462" type="line"/>
      <point x="252" y="275" type="line"/>
      <point x="385" y="275" type="line"/>
      <point x="385" y="246" type="line"/>
      <point x="232" y="246" type="line"/>
      <point x="81" y="33" type="line"/>
    </contour>
  </outline>
</glyph>
<glyph name="uni0237" format="1">
  <advance width="207"/>
  <unicode hex="0237"/>
  <outline>
    <contour>
      <point x="-17" y="-162" type="qcurve"/>
      <point x="-39" y="-162"/>
      <point x="-75" y="-159"/>
      <point x="-91" y="-156" type="qcurve"/>
      <point x="-91" y="-123" type="line"/>
      <point x="-74" y="-126"/>
      <point x="-43" y="-129"/>
      <point x="-26" y="-129" type="qcurve"/>
      <point x="35" y="-129"/>
      <point x="91" y="-65"/>
      <point x="91" y="7" type="qcurve"/>
      <point x="91" y="494" type="line"/>
      <point x="127" y="494" type="line"/>
      <point x="127" y="5" type="line"/>
      <point x="127" y="-80"/>
      <point x="56" y="-162"/>
    </contour>
    <contour>
      <point x="109" y="520" type="move" name="top"/>
    </contour>
  </outline>
</glyph>
<glyph name="uni0259" format="1">
  <advance width="503"/>
  <unicode hex="0259"/>
  <outline>
    <contour>
      <point x="73" y="439" type="qcurve"/>
      <point x="73" y="470" type="line"/>
      <point x="101" y="484"/>
      <point x="193" y="504"/>
      <point x="237" y="504" type="qcurve" smooth="yes"/>
      <point x="348" y="504"/>
      <point x="446" y="388"/>
      <point x="446" y="259" type="qcurve" smooth="yes"/>
      <point x="446" y="119"/>
      <point x="348" y="-7"/>
      <point x="238" y="-7" type="qcurve"/>
      <point x="140" y="-7"/>
      <point x="52" y="90"/>
      <point x="52" y="197" type="qcurve"/>
      <point x="52" y="213"/>
      <point x="54" y="247"/>
      <point x="56" y="273" type="qcurve"/>
      <point x="410" y="273" type="line"/>
      <point x="409" y="378"/>
      <point x="326" y="471"/>
      <point x="231" y="471" type="qcurve" smooth="yes"/>
      <point x="190" y="471"/>
      <point x="100" y="452"/>
    </contour>
    <contour>
      <point x="87" y="194" type="qcurve"/>
      <point x="87" y="106"/>
      <point x="159" y="27"/>
      <point x="238" y="27" type="qcurve"/>
      <point x="330" y="27"/>
      <point x="410" y="127"/>
      <point x="410" y="241" type="qcurve"/>
      <point x="88" y="241" type="line"/>
      <point x="87" y="235"/>
      <point x="87" y="217"/>
    </contour>
  </outline>
</glyph>
<glyph name="uni02BB" format="1">
  <advance width="162"/>
  <unicode hex="02BB"/>
  <outline>
    <contour>
      <point x="56" y="468" type="line"/>
      <point x="77" y="607" type="line" smooth="yes"/>
      <point x="80" y="619"/>
      <point x="89" y="627"/>
      <point x="98" y="627" type="qcurve"/>
      <point x="104" y="627" type="line"/>
      <point x="95" y="468" type="line"/>
    </contour>
  </outline>
</glyph>
<glyph name="breve" format="1">
  <advance width="377"/>
  <unicode hex="02D8"/>
  <outline>
    <contour>
      <point x="297" y="683" type="qcurve"/>
      <point x="327" y="683" type="line"/>
      <point x="327" y="627"/>
      <point x="254" y="562"/>
      <point x="189" y="562" type="qcurve" smooth="yes"/>
      <point x="124" y="562"/>
      <point x="50" y="627"/>
      <point x="50" y="683" type="qcurve"/>
      <point x="80" y="683" type="line"/>
      <point x="80" y="641"/>
      <point x="138" y="591"/>
      <point x="189" y="591" type="qcurve" smooth="yes"/>
      <point x="238" y="591"/>
      <point x="297" y="642"/>
    </contour>
    <contour>
      <point x="188" y="530" type="move" name="_top"/>
    </contour>
  </outline>
</glyph>
<glyph name="dotaccent" format="1">
  <advance width="147"/>
  <unicode hex="02D9"/>
  <outline>
    <contour>
      <point x="97" y="569" type="line"/>
      <point x="50" y="569" type="line"/>
      <point x="50" y="612" type="line"/>
      <point x="97" y="612" type="line"/>
    </contour>
    <contour>
      <point x="74" y="530" type="move" name="_top"/>
    </contour>
  </outline>
</glyph>
<glyph name="ring" format="1">
  <advance width="320"/>
  <unicode hex="02DA"/>
  <outline>
    <contour>
      <point x="267" y="630" type="qcurve" smooth="yes"/>
      <point x="267" y="591"/>
      <point x="208" y="543"/>
      <point x="159" y="543" type="qcurve" smooth="yes"/>
      <point x="111" y="543"/>
      <point x="52" y="591"/>
      <point x="52" y="630" type="qcurve" smooth="yes"/>
      <point x="52" y="667"/>
      <point x="111" y="714"/>
      <point x="159" y="714" type="qcurve" smooth="yes"/>
      <point x="208" y="714"/>
      <point x="267" y="668"/>
    </contour>
    <contour>
      <point x="80" y="630" type="qcurve" smooth="yes"/>
      <point x="80" y="601"/>
      <point x="122" y="569"/>
      <point x="159" y="569" type="qcurve" smooth="yes"/>
      <point x="197" y="569"/>
      <point x="239" y="601"/>
      <point x="239" y="630" type="qcurve" smooth="yes"/>
      <point x="239" y="657"/>
      <point x="197" y="688"/>
      <point x="159" y="688" type="qcurve" smooth="yes"/>
      <point x="122" y="688"/>
      <point x="80" y="657"/>
    </contour>
    <contour>
      <point x="159" y="530" type="move" name="_top"/>
    </contour>
  </outline>
</glyph>
<glyph name="ogonek" format="1">
  <advance width="299"/>
  <unicode hex="02DB"/>
  <outline>
    <contour>
      <point x="227" y="25" type="qcurve"/>
      <point x="249" y="9" type="line"/>
      <point x="175" y="-7"/>
      <point x="98" y="-66"/>
      <point x="98" y="-108" type="qcurve"/>
      <point x="98" y="-135"/>
      <point x="135" y="-165"/>
      <point x="169" y="-165" type="qcurve"/>
      <point x="186" y="-165"/>
      <point x="217" y="-160"/>
      <point x="239" y="-154" type="qcurve"/>
      <point x="239" y="-184" type="line"/>
      <point x="215" y="-191"/>
      <point x="182" y="-195"/>
      <point x="164" y="-195" type="qcurve"/>
      <point x="117" y="-195"/>
      <point x="65" y="-151"/>
      <point x="65" y="-113" type="qcurve"/>
      <point x="65" y="-63"/>
      <point x="142" y="4"/>
    </contour>
    <contour>
      <point x="249" y="9" type="move" name="_ogonek"/>
    </contour>
  </outline>
</glyph>
<glyph name="tilde" format="1">
  <advance width="386"/>
  <unicode hex="02DC"/>
  <outline>
    <contour>
      <point x="307" y="680" type="qcurve"/>
      <point x="336" y="680" type="line"/>
      <point x="336" y="626"/>
      <point x="297" y="565"/>
      <point x="260" y="565" type="qcurve"/>
      <point x="243" y="565"/>
      <point x="211" y="584"/>
      <point x="185" y="615" type="qcurve" smooth="yes"/>
      <point x="164" y="639"/>
      <point x="142" y="654"/>
      <point x="131" y="654" type="qcurve"/>
      <point x="106" y="654"/>
      <point x="79" y="610"/>
      <point x="79" y="569" type="qcurve"/>
      <point x="50" y="569" type="line"/>
      <point x="50" y="622"/>
      <point x="92" y="684"/>
      <point x="130" y="684" type="qcurve"/>
      <point x="147" y="684"/>
      <point x="179" y="664"/>
      <point x="205" y="634" type="qcurve" smooth="yes"/>
      <point x="226" y="609"/>
      <point x="248" y="594"/>
      <point x="259" y="594" type="qcurve"/>
      <point x="282" y="594"/>
      <point x="307" y="640"/>
    </contour>
    <contour>
      <point x="194" y="530" type="move" name="_top"/>
    </contour>
  </outline>
</glyph>
<glyph name="uni0326" format="1">
  <advance width="149"/>
  <unicode hex="0326"/>
  <outline>
    <contour>
      <point x="97" y="-76" type="line"/>
      <point x="77" y="-207" type="line" smooth="yes"/>
      <point x="75" y="-218"/>
      <point x="66" y="-227"/>
      <point x="56" y="-227" type="qcurve"/>
      <point x="48" y="-227" type="line"/>
      <point x="57" y="-76" type="line"/>
    </contour>
    <contour>
      <point x="78" y="0" type="move" name="_bottom"/>
    </contour>
  </outline>
</glyph>
<glyph name="uni0394" format="1">
  <advance width="612"/>
  <unicode hex="0394"/>
  <outline>
    <contour>
      <point x="26" y="0" type="line"/>
      <point x="26" y="35" type="line"/>
      <point x="286" y="627" type="line"/>
      <point x="326" y="627" type="line"/>
      <point x="586" y="35" type="line"/>
      <point x="586" y="0" type="line"/>
    </contour>
    <contour>
      <point x="306" y="588" type="line"/>
      <point x="62" y="35" type="line"/>
      <point x="550" y="35" type="line"/>
    </contour>
  </outline>
</glyph>
<glyph name="uni03A9" format="1">
  <advance width="702"/>
  <unicode hex="03A9"/>
  <outline>
    <contour>
      <point x="84" y="0" type="line"/>
      <point x="84" y="36" type="line"/>
      <point x="244" y="36" type="line"/>
      <point x="244" y="121" type="line"/>
      <point x="150" y="147"/>
      <point x="52" y="277"/>
      <point x="52" y="377" type="qcurve"/>
      <point x="52" y="503"/>
      <point x="210" y="647"/>
      <point x="352" y="647" type="qcurve" smooth="yes"/>
      <point x="493" y="647"/>
      <point x="650" y="503"/>
      <point x="650" y="377" type="qcurve"/>
      <point x="650" y="278"/>
      <point x="553" y="148"/>
      <point x="459" y="121" type="qcurve"/>
      <point x="459" y="36" type="line"/>
      <point x="619" y="36" type="line"/>
      <point x="619" y="0" type="line"/>
      <point x="423" y="0" type="line"/>
      <point x="423" y="144" type="line"/>
      <point x="518" y="168"/>
      <point x="612" y="283"/>
      <point x="612" y="376" type="qcurve"/>
      <point x="612" y="486"/>
      <point x="476" y="609"/>
      <point x="352" y="609" type="qcurve" smooth="yes"/>
      <point x="227" y="609"/>
      <point x="91" y="487"/>
      <point x="91" y="376" type="qcurve"/>
      <point x="91" y="283"/>
      <point x="185" y="168"/>
      <point x="280" y="144" type="qcurve"/>
      <point x="280" y="0" type="line"/>
    </contour>
  </outline>
</glyph>
<glyph name="uni03BC" format="1">
  <advance width="552"/>
  <unicode hex="03BC"/>
  <outline>
    <contour>
      <point x="242" y="-7" type="qcurve" smooth="yes"/>
      <point x="191" y="-7"/>
      <point x="126" y="27"/>
      <point x="116" y="59" type="qcurve"/>
      <point x="116" y="-30"/>
      <point x="129" y="-117"/>
      <point x="143" y="-152" type="qcurve"/>
      <point x="106" y="-152" type="line"/>
      <point x="92" y="-117"/>
      <point x="80" y="-31"/>
      <point x="80" y="60" type="qcurve"/>
      <point x="80" y="494" type="line"/>
      <point x="116" y="494" type="line"/>
      <point x="116" y="159" type="line" smooth="yes"/>
      <point x="116" y="88"/>
      <point x="179" y="27"/>
      <point x="252" y="27" type="qcurve" smooth="yes"/>
      <point x="295" y="27"/>
      <point x="389" y="55"/>
      <point x="436" y="81" type="qcurve"/>
      <point x="436" y="494" type="line"/>
      <point x="472" y="494" type="line"/>
      <point x="472" y="0" type="line"/>
      <point x="440" y="0" type="line"/>
      <point x="437" y="50" type="line"/>
      <point x="374" y="18"/>
      <point x="286" y="-7"/>
    </contour>
  </outline>
</glyph>
<glyph name="pi" format="1">
  <advance width="600"/>
  <unicode hex="03C0"/>
  <outline>
    <contour>
      <point x="103" y="0" type="qcurve"/>
      <point x="63" y="0" type="line"/>
      <point x="109" y="96"/>
      <point x="158" y="348"/>
      <point x="152" y="459" type="qcurve"/>
      <point x="28" y="459" type="line"/>
      <point x="28" y="494" type="line"/>
      <point x="563" y="494" type="line"/>
      <point x="563" y="459" type="line"/>
      <point x="434" y="459" type="line"/>
      <point x="434" y="149" type="line" smooth="yes"/>
      <point x="434" y="95"/>
      <point x="492" y="34"/>
      <point x="544" y="34" type="qcurve"/>
      <point x="556" y="34" type="line"/>
      <point x="556" y="0" type="line"/>
      <point x="540" y="0" type="line" smooth="yes"/>
      <point x="473" y="0"/>
      <point x="398" y="76"/>
      <point x="398" y="144" type="qcurve"/>
      <point x="398" y="459" type="line"/>
      <point x="187" y="459" type="line"/>
      <point x="191" y="339"/>
      <point x="147" y="95"/>
    </contour>
  </outline>
</glyph>
<glyph name="uni1E9E" format="1">
  <advance width="646"/>
  <unicode hex="1E9E"/>
  <outline>
    <contour>
      <point x="323" y="637" type="qcurve"/>
      <point x="388" y="637"/>
      <point x="499" y="623"/>
      <point x="533" y="611" type="qcurve"/>
      <point x="447" y="344" type="line"/>
      <point x="512" y="324" type="line" smooth="yes"/>
      <point x="563" y="309"/>
      <point x="602" y="245"/>
      <point x="602" y="182" type="qcurve" smooth="yes"/>
      <point x="602" y="85"/>
      <point x="516" y="-10"/>
      <point x="427" y="-10" type="qcurve" smooth="yes"/>
      <point x="389" y="-10"/>
      <point x="321" y="-3"/>
      <point x="298" y="3" type="qcurve"/>
      <point x="298" y="38" type="line"/>
      <point x="329" y="30"/>
      <point x="387" y="24"/>
      <point x="422" y="24" type="qcurve" smooth="yes"/>
      <point x="496" y="24"/>
      <point x="565" y="101"/>
      <point x="565" y="181" type="qcurve" smooth="yes"/>
      <point x="565" y="231"/>
      <point x="535" y="281"/>
      <point x="495" y="293" type="qcurve"/>
      <point x="403" y="321" type="line"/>
      <point x="490" y="586" type="line"/>
      <point x="467" y="593"/>
      <point x="370" y="603"/>
      <point x="322" y="603" type="qcurve"/>
      <point x="214" y="603"/>
      <point x="120" y="516"/>
      <point x="120" y="415" type="qcurve"/>
      <point x="120" y="0" type="line"/>
      <point x="83" y="0" type="line"/>
      <point x="83" y="415" type="line" smooth="yes"/>
      <point x="83" y="531"/>
      <point x="198" y="637"/>
    </contour>
  </outline>
</glyph>
<glyph name="endash" format="1">
  <advance width="531"/>
  <unicode hex="2013"/>
  <outline>
    <contour>
      <point x="470" y="334" type="line"/>
      <point x="470" y="302" type="line"/>
      <point x="61" y="302" type="line"/>
      <point x="61" y="334" type="line"/>
    </contour>
  </outline>
</glyph>
<glyph name="emdash" format="1">
  <advance width="811"/>
  <unicode hex="2014"/>
  <outline>
    <contour>
      <point x="750" y="334" type="line"/>
      <point x="750" y="302" type="line"/>
      <point x="61" y="302" type="line"/>
      <point x="61" y="334" type="line"/>
    </contour>
  </outline>
</glyph>
<glyph name="quoteright" format="1">
  <advance width="158"/>
  <unicode hex="2019"/>
  <outline>
    <contour>
      <point x="108" y="627" type="line"/>
      <point x="87" y="488" type="line" smooth="yes"/>
      <point x="84" y="476"/>
      <point x="75" y="468"/>
      <point x="66" y="468" type="qcurve"/>
      <point x="60" y="468" type="line"/>
      <point x="69" y="627" type="line"/>
    </contour>
  </outline>
</glyph>
<glyph name="dagger" format="1">
  <advance width="374"/>
  <unicode hex="2020"/>
  <outline>
    <contour>
      <point x="199" y="464" type="line"/>
      <point x="203" y="221" type="line"/>
      <point x="168" y="221" type="line"/>
      <point x="173" y="464" type="line"/>
      <point x="35" y="460" type="line"/>
      <point x="35" y="494" type="line"/>
      <point x="172" y="489" type="line"/>
      <point x="168" y="627" type="line"/>
      <point x="203" y="627" type="line"/>
      <point x="199" y="489" type="line"/>
      <point x="340" y="494" type="line"/>
      <point x="340" y="460" type="line"/>
    </contour>
  </outline>
</glyph>
<glyph name="daggerdbl" format="1">
  <advance width="414"/>
  <unicode hex="2021"/>
  <outline>
    <contour>
      <point x="360" y="285" type="line"/>
      <point x="360" y="251" type="line"/>
      <point x="219" y="256" type="line"/>
      <point x="223" y="118" type="line"/>
      <point x="188" y="118" type="line"/>
      <point x="192" y="256" type="line"/>
      <point x="55" y="251" type="line"/>
      <point x="55" y="285" type="line"/>
      <point x="193" y="281" type="line"/>
      <point x="193" y="464" type="line"/>
      <point x="55" y="460" type="line"/>
      <point x="55" y="494" type="line"/>
      <point x="192" y="489" type="line"/>
      <point x="188" y="627" type="line"/>
      <point x="223" y="627" type="line"/>
      <point x="219" y="489" type="line"/>
      <point x="360" y="494" type="line"/>
      <point x="360" y="460" type="line"/>
      <point x="219" y="464" type="line"/>
      <point x="219" y="281" type="line"/>
    </contour>
  </outline>
</glyph>
<glyph name="bullet" format="1">
  <advance width="257"/>
  <unicode hex="2022"/>
  <outline>
    <contour>
      <point x="168" y="282" type="line"/>
      <point x="91" y="282" type="line"/>
      <point x="91" y="354" type="line"/>
      <point x="168" y="354" type="line"/>
    </contour>
  </outline>
</glyph>
<glyph name="ellipsis" format="1">
  <advance width="386"/>
  <unicode hex="2026"/>
  <outline>
    <contour>
      <point x="211" y="0" type="line"/>
      <point x="175" y="0" type="line"/>
      <point x="175" y="46" type="line"/>
      <point x="211" y="46" type="line"/>
    </contour>
    <contour>
      <point x="88" y="0" type="line"/>
      <point x="51" y="0" type="line"/>
      <point x="51" y="46" type="line"/>
      <point x="88" y="46" type="line"/>
    </contour>
    <contour>
      <point x="335" y="0" type="line"/>
      <point x="298" y="0" type="line"/>
      <point x="298" y="46" type="line"/>
      <point x="335" y="46" type="line"/>
    </contour>
  </outline>
</glyph>
<glyph name="perthousand" format="1">
  <advance width="925"/>
  <unicode hex="2030"/>
  <outline>
    <contour>
      <point x="276" y="475" type="qcurve"/>
      <point x="276" y="390"/>
      <point x="223" y="320"/>
      <point x="158" y="320" type="qcurve"/>
      <point x="94" y="320"/>
      <point x="41" y="390"/>
      <point x="41" y="475" type="qcurve"/>
      <point x="41" y="561"/>
      <point x="94" y="631"/>
      <point x="158" y="631" type="qcurve"/>
      <point x="223" y="631"/>
      <point x="276" y="561"/>
    </contour>
    <contour>
      <point x="481" y="627" type="line"/>
      <point x="181" y="0" type="line"/>
      <point x="148" y="0" type="line"/>
      <point x="448" y="627" type="line"/>
    </contour>
    <contour>
      <point x="245" y="475" type="qcurve"/>
      <point x="245" y="547"/>
      <point x="206" y="604"/>
      <point x="158" y="604" type="qcurve"/>
      <point x="110" y="604"/>
      <point x="72" y="546"/>
      <point x="72" y="475" type="qcurve"/>
      <point x="72" y="405"/>
      <point x="110" y="348"/>
      <point x="158" y="348" type="qcurve"/>
      <point x="206" y="348"/>
      <point x="245" y="405"/>
    </contour>
    <contour>
      <point x="594" y="152" type="qcurve"/>
      <point x="594" y="67"/>
      <point x="541" y="-3"/>
      <point x="477" y="-3" type="qcurve"/>
      <point x="412" y="-3"/>
      <point x="359" y="67"/>
      <point x="359" y="152" type="qcurve"/>
      <point x="359" y="237"/>
      <point x="412" y="308"/>
      <point x="477" y="308" type="qcurve"/>
      <point x="541" y="308"/>
      <point x="594" y="237"/>
    </contour>
    <contour>
      <point x="884" y="152" type="qcurve"/>
      <point x="884" y="67"/>
      <point x="831" y="-3"/>
      <point x="767" y="-3" type="qcurve"/>
      <point x="702" y="-3"/>
      <point x="649" y="67"/>
      <point x="649" y="152" type="qcurve"/>
      <point x="649" y="237"/>
      <point x="702" y="308"/>
      <point x="767" y="308" type="qcurve"/>
      <point x="831" y="308"/>
      <point x="884" y="237"/>
    </contour>
    <contour>
      <point x="563" y="152" type="qcurve"/>
      <point x="563" y="223"/>
      <point x="524" y="281"/>
      <point x="477" y="281" type="qcurve"/>
      <point x="429" y="281"/>
      <point x="390" y="223"/>
      <point x="390" y="152" type="qcurve"/>
      <point x="390" y="81"/>
      <point x="429" y="24"/>
      <point x="477" y="24" type="qcurve"/>
      <point x="524" y="24"/>
      <point x="563" y="82"/>
    </contour>
    <contour>
      <point x="853" y="152" type="qcurve"/>
      <point x="853" y="224"/>
      <point x="815" y="281"/>
      <point x="767" y="281" type="qcurve"/>
      <point x="719" y="281"/>
      <point x="680" y="223"/>
      <point x="680" y="152" type="qcurve"/>
      <point x="680" y="81"/>
      <point x="719" y="24"/>
      <point x="767" y="24" type="qcurve"/>
      <point x="815" y="24"/>
      <point x="853" y="81"/>
    </contour>
  </outline>
</glyph>
<glyph name="guilsinglleft" format="1">
  <advance width="264"/>
  <unicode hex="2039"/>
  <outline>
    <contour>
      <point x="220" y="64" type="line"/>
      <point x="182" y="64" type="line"/>
      <point x="33" y="281" type="line"/>
      <point x="182" y="494" type="line"/>
      <point x="220" y="494" type="line"/>
      <point x="72" y="282" type="line"/>
    </contour>
  </outline>
</glyph>
<glyph name="guilsinglright" format="1">
  <advance width="264"/>
  <unicode hex="203A"/>
  <outline>
    <contour>
      <point x="231" y="281" type="line"/>
      <point x="82" y="64" type="line"/>
      <point x="44" y="64" type="line"/>
      <point x="192" y="282" type="line"/>
      <point x="44" y="494" type="line"/>
      <point x="82" y="494" type="line"/>
    </contour>
  </outline>
</glyph>
<glyph name="fraction" format="1">
  <advance width="128"/>
  <unicode hex="2044"/>
  <outline>
    <contour>
      <point x="231" y="627" type="line"/>
      <point x="-69" y="0" type="line"/>
      <point x="-102" y="0" type="line"/>
      <point x="198" y="627" type="line"/>
    </contour>
  </outline>
</glyph>
<glyph name="uni2070" format="1">
  <advance width="371"/>
  <unicode hex="2070"/>
  <outline>
    <contour>
      <point x="325" y="450" type="qcurve"/>
      <point x="325" y="348"/>
      <point x="264" y="266"/>
      <point x="186" y="266" type="qcurve"/>
      <point x="104" y="266"/>
      <point x="46" y="343"/>
      <point x="46" y="450" type="qcurve"/>
      <point x="46" y="552"/>
      <point x="108" y="633"/>
      <point x="186" y="633" type="qcurve"/>
      <point x="268" y="633"/>
      <point x="325" y="558"/>
    </contour>
    <contour>
      <point x="293" y="450" type="qcurve"/>
      <point x="293" y="542"/>
      <point x="250" y="604"/>
      <point x="186" y="604" type="qcurve"/>
      <point x="124" y="604"/>
      <point x="78" y="538"/>
      <point x="78" y="450" type="qcurve"/>
      <point x="78" y="358"/>
      <point x="121" y="296"/>
      <point x="186" y="296" type="qcurve"/>
      <point x="248" y="296"/>
      <point x="293" y="361"/>
    </contour>
  </outline>
</glyph>
<glyph name="uni2074" format="1">
  <advance width="338"/>
  <unicode hex="2074"/>
  <outline>
    <contour>
      <point x="309" y="399" type="line"/>
      <point x="309" y="370" type="line"/>
      <point x="252" y="370" type="line"/>
      <point x="252" y="270" type="line"/>
      <point x="220" y="270" type="line"/>
      <point x="220" y="370" type="line"/>
      <point x="36" y="370" type="line"/>
      <point x="36" y="398" type="line"/>
      <point x="84" y="627" type="line"/>
      <point x="115" y="627" type="line"/>
      <point x="68" y="399" type="line"/>
      <point x="220" y="399" type="line"/>
      <point x="220" y="565" type="line"/>
      <point x="252" y="565" type="line"/>
      <point x="252" y="399" type="line"/>
    </contour>
  </outline>
</glyph>
<glyph name="uni2075" format="1">
  <advance width="302"/>
  <unicode hex="2075"/>
  <outline>
    <contour>
      <point x="265" y="375" type="qcurve" smooth="yes"/>
      <point x="265" y="319"/>
      <point x="204" y="266"/>
      <point x="141" y="266" type="qcurve"/>
      <point x="106" y="266"/>
      <point x="55" y="272"/>
      <point x="39" y="277" type="qcurve"/>
      <point x="39" y="306" type="line"/>
      <point x="57" y="301"/>
      <point x="105" y="296"/>
      <point x="135" y="296" type="qcurve"/>
      <point x="189" y="296"/>
      <point x="233" y="332"/>
      <point x="233" y="375" type="qcurve" smooth="yes"/>
      <point x="233" y="412"/>
      <point x="189" y="445"/>
      <point x="133" y="445" type="qcurve" smooth="yes"/>
      <point x="113" y="445"/>
      <point x="75" y="442"/>
      <point x="57" y="439" type="qcurve"/>
      <point x="57" y="627" type="line"/>
      <point x="241" y="627" type="line"/>
      <point x="241" y="599" type="line"/>
      <point x="88" y="599" type="line"/>
      <point x="88" y="467" type="line"/>
      <point x="100" y="469"/>
      <point x="130" y="472"/>
      <point x="145" y="472" type="qcurve" smooth="yes"/>
      <point x="210" y="472"/>
      <point x="265" y="426"/>
    </contour>
  </outline>
</glyph>
